<svg id="Layer_1" data-name="Layer 1" xmlns="http://www.w3.org/2000/svg" viewBox="0 0 3741.34 4310.49"><defs><style>.cls-1{fill:#4d4d4d;}.cls-2{fill:#b3b3b3;}.cls-3{fill:#ccc;}.cls-4{fill:#333;}.cls-5{fill:#7f7e7e;}.cls-6{fill:#cca258;}.cls-7{fill:#b5873e;}</style></defs><polygon points="1550.41 902.03 1505.99 974.49 487.4 300.26 487.4 300.26 1550.41 902.03"/><polygon points="1647.61 1108.08 1679.33 1223.89 0 1621.52 0 1621.52 1647.61 1108.08"/><path class="cls-1" d="M3189.3,2597.43a1716.61,1716.61,0,0,1,384.11,118.38,257.44,257.44,0,0,1-.84-110.45c50.84-241.6,545.94-321.63,545.94-321.63-149.64-51.19-400.1-115.21-710.91-92.94-415.84,29.79-716.38,198-858.75,291l147.81,97.2A1728.15,1728.15,0,0,1,3189.3,2597.43Z" transform="translate(-378.5 -96.34)"/><path class="cls-2" d="M3173.63,2455.49c171.54,1.31,313.79,47.1,419.43,97.69,104.81-200.57,526.78-268.79,526.78-268.79-149.64-51.19-400.1-115.21-710.92-92.94-415.84,29.79-716.38,198-858.74,291l143.07,94.09C2802.18,2517.51,2967.05,2453.92,3173.63,2455.49Z" transform="translate(-378.5 -96.34)"/><path class="cls-3" d="M3465.3,2232.79a1743.24,1743.24,0,0,1,626.69,55c16.1-3.19,25.35-4.69,25.35-4.69-149.64-51.19-400.11-115.21-710.92-92.94-415.84,29.79-716.38,198-858.74,291l76.43,50.27C2780.16,2429.26,3073.37,2269.5,3465.3,2232.79Z" transform="translate(-378.5 -96.34)"/><path class="cls-3" d="M3446.2,2474.23h0a49.84,49.84,0,0,0,69.05-13.12L3606,2327.78a49.85,49.85,0,0,0-13.13-69.05h0a49.84,49.84,0,0,0-69,13.13l-90.73,133.33A49.83,49.83,0,0,0,3446.2,2474.23Z" transform="translate(-378.5 -96.34)"/><path d="M3449.07,2469.87h0a44.87,44.87,0,0,0,62.16-11.81l90.31-132.71a44.89,44.89,0,0,0-11.82-62.17h0a44.88,44.88,0,0,0-62.16,11.82l-90.31,132.71A44.86,44.86,0,0,0,3449.07,2469.87Z" transform="translate(-378.5 -96.34)"/><path class="cls-1" d="M3498.11,2449.55l90.7-133.28a44.56,44.56,0,0,0-5.92-56.95,43.58,43.58,0,0,1,6.54,3.67l.58.39a44.53,44.53,0,0,1,11.72,61.68L3511,2458.34a44.53,44.53,0,0,1-61.69,11.73l-.57-.39a43.33,43.33,0,0,1-5.81-4.74A44.54,44.54,0,0,0,3498.11,2449.55Z" transform="translate(-378.5 -96.34)"/><path class="cls-3" d="M3336.15,2450.68h0a44.19,44.19,0,0,0,60.73-14l75.84-121.22a44.18,44.18,0,0,0-14-60.72h0a44.19,44.19,0,0,0-60.73,14L3322.17,2390A44.18,44.18,0,0,0,3336.15,2450.68Z" transform="translate(-378.5 -96.34)"/><path d="M3338.54,2446.72h0a39.77,39.77,0,0,0,54.67-12.59l75.5-120.65a39.79,39.79,0,0,0-12.59-54.67h0a39.79,39.79,0,0,0-54.68,12.59L3326,2392.05A39.78,39.78,0,0,0,3338.54,2446.72Z" transform="translate(-378.5 -96.34)"/><path class="cls-1" d="M3381.3,2427l75.82-121.17a39.5,39.5,0,0,0-7.18-50.25,39.39,39.39,0,0,1,5.92,3l.52.32a39.49,39.49,0,0,1,12.49,54.25l-75.82,121.17a39.48,39.48,0,0,1-54.25,12.5l-.52-.33a39.23,39.23,0,0,1-5.31-4A39.5,39.5,0,0,0,3381.3,2427Z" transform="translate(-378.5 -96.34)"/><path class="cls-3" d="M3243.77,2437.44h0a35.68,35.68,0,0,0,48-15l53.53-102.27a35.68,35.68,0,0,0-15-48h0a35.68,35.68,0,0,0-48,15l-53.53,102.27A35.68,35.68,0,0,0,3243.77,2437.44Z" transform="translate(-378.5 -96.34)"/><path d="M3245.45,2434.1h0a32.12,32.12,0,0,0,43.23-13.52L3342,2318.79a32.11,32.11,0,0,0-13.52-43.22h0a32.12,32.12,0,0,0-43.22,13.52l-53.28,101.79A32.11,32.11,0,0,0,3245.45,2434.1Z" transform="translate(-378.5 -96.34)"/><path class="cls-1" d="M3278.65,2415.61l53.51-102.23a31.89,31.89,0,0,0-8.9-40,32.63,32.63,0,0,1,4.95,2.07l.44.23a31.88,31.88,0,0,1,13.42,42.89l-53.51,102.23a31.87,31.87,0,0,1-42.89,13.42l-.44-.23a32.2,32.2,0,0,1-4.52-2.89A31.89,31.89,0,0,0,3278.65,2415.61Z" transform="translate(-378.5 -96.34)"/><path d="M3748.29,2285.66l-.32-.23c-22-16.39-54-11.09-71,11.78l-112.29,151c-17,22.87-12.89,55,9.15,71.39l.31.23Z" transform="translate(-378.5 -96.34)"/><path class="cls-1" d="M3748,2285.43a48,48,0,0,0-10.55-5.94,47.42,47.42,0,0,1,4,2.68l.31.23-173.08,232.73a49.43,49.43,0,0,0,5.17,4.46l.31.23,174.15-234.16Z" transform="translate(-378.5 -96.34)"/><path class="cls-3" d="M3575.35,2453.52l112.29-151c14-18.76,38-25.69,58.3-18.53-21.93-14.63-52.47-9-69,13.21l-112.29,151c-17,22.87-12.89,55,9.15,71.39l.31.23,2.08-2.79C3561.73,2499.57,3560.76,2473.14,3575.35,2453.52Z" transform="translate(-378.5 -96.34)"/><circle class="cls-3" cx="3150.48" cy="2372.79" r="58.05" transform="translate(-1043.61 1278.01) rotate(-22.32)"/><circle cx="3150.48" cy="2372.79" r="49.46" transform="translate(-1043.61 1278) rotate(-22.32)"/><path class="cls-1" d="M3166.49,2334.49a49.46,49.46,0,0,1,28.06,60.62c.67-1.27,1.29-2.58,1.85-3.93a49.46,49.46,0,0,0-91.27-38.14c-.56,1.35-1.06,2.71-1.49,4.08A49.45,49.45,0,0,1,3166.49,2334.49Z" transform="translate(-378.5 -96.34)"/><path class="cls-1" d="M1378.54,3153.37a885.14,885.14,0,0,0-204.44,33.75,132.5,132.5,0,0,0,8.11-56.36c-9.17-126.94-256.5-202.26-256.5-202.26,80-15.74,212.39-31,369.61,2,210.34,44.14,352.15,151,418.41,208.35l-82.26,39.38A890.77,890.77,0,0,0,1378.54,3153.37Z" transform="translate(-378.5 -96.34)"/><path class="cls-2" d="M1396.42,3082a508.1,508.1,0,0,0-221,20.74C1135.78,2992.94,925,2928.75,925,2928.75c80-15.74,212.38-31,369.6,2,210.34,44.14,352.16,151,418.42,208.36l-79.63,38.11C1581.84,3139.47,1502.05,3095.52,1396.42,3082Z" transform="translate(-378.5 -96.34)"/><path class="cls-3" d="M1262.92,2947.91a898.63,898.63,0,0,0-324-15.46c-8-2.76-12.62-4.16-12.62-4.16,80-15.74,212.39-31,369.61,2,210.34,44.14,352.16,151,418.41,208.36L1671.83,3159C1599.23,3095.92,1460.56,2993.92,1262.92,2947.91Z" transform="translate(-378.5 -96.34)"/><path class="cls-3" d="M1255.88,3072.57h0a25.68,25.68,0,0,1-34.35-11.51l-37.08-74.41a25.71,25.71,0,0,1,11.51-34.36h0a25.71,25.71,0,0,1,34.36,11.51l37.07,74.41A25.69,25.69,0,0,1,1255.88,3072.57Z" transform="translate(-378.5 -96.34)"/><path d="M1254.72,3070.15h0a23.14,23.14,0,0,1-30.93-10.37l-36.9-74.06a23.14,23.14,0,0,1,10.36-30.94h0a23.14,23.14,0,0,1,30.93,10.37l36.9,74.06A23.14,23.14,0,0,1,1254.72,3070.15Z" transform="translate(-378.5 -96.34)"/><path class="cls-1" d="M1231.08,3056.35,1194,2982a23,23,0,0,1,7-28.67,21.78,21.78,0,0,0-3.59,1.42l-.32.15a23,23,0,0,0-10.28,30.7l37.06,74.38a22.94,22.94,0,0,0,30.69,10.28l.32-.15a23.27,23.27,0,0,0,3.3-2A23,23,0,0,1,1231.08,3056.35Z" transform="translate(-378.5 -96.34)"/><path class="cls-3" d="M1313.74,3068.2h0a22.79,22.79,0,0,1-30-11.37l-30.31-67.19a22.78,22.78,0,0,1,11.36-30h0a22.79,22.79,0,0,1,30,11.36l30.31,67.2A22.78,22.78,0,0,1,1313.74,3068.2Z" transform="translate(-378.5 -96.34)"/><path d="M1312.79,3066h0a20.51,20.51,0,0,1-27-10.24l-30.17-66.88a20.51,20.51,0,0,1,10.23-27h0a20.51,20.51,0,0,1,27,10.23L1323,3039A20.52,20.52,0,0,1,1312.79,3066Z" transform="translate(-378.5 -96.34)"/><path class="cls-1" d="M1292.32,3053,1262,2985.81a20.36,20.36,0,0,1,7.17-25.17,19.83,19.83,0,0,0-3.24,1.14l-.28.13a20.35,20.35,0,0,0-10.16,26.84l30.3,67.17a20.36,20.36,0,0,0,26.85,10.15l.28-.13a20.15,20.15,0,0,0,3-1.67A20.37,20.37,0,0,1,1292.32,3053Z" transform="translate(-378.5 -96.34)"/><path class="cls-3" d="M1361.84,3067.85h0a18.39,18.39,0,0,1-23.48-11l-20.22-56a18.39,18.39,0,0,1,11-23.48h0a18.41,18.41,0,0,1,23.48,11l20.23,56A18.39,18.39,0,0,1,1361.84,3067.85Z" transform="translate(-378.5 -96.34)"/><path d="M1361.22,3066h0a16.56,16.56,0,0,1-21.14-9.91l-20.14-55.7a16.57,16.57,0,0,1,9.92-21.14h0a16.56,16.56,0,0,1,21.14,9.92l20.13,55.7A16.54,16.54,0,0,1,1361.22,3066Z" transform="translate(-378.5 -96.34)"/><path class="cls-1" d="M1345.55,3054.28l-20.23-55.94a16.44,16.44,0,0,1,7.33-19.81,16,16,0,0,0-2.67.71l-.24.09a16.42,16.42,0,0,0-9.84,21l20.22,55.94a16.44,16.44,0,0,0,21,9.84l.24-.09a16.39,16.39,0,0,0,2.51-1.16A16.43,16.43,0,0,1,1345.55,3054.28Z" transform="translate(-378.5 -96.34)"/><path d="M1114.69,2955.24l.18-.1c12.4-6.84,28.35-1.91,35.45,11l46.85,84.93c7.1,12.87,2.76,29-9.63,35.83l-.18.1Z" transform="translate(-378.5 -96.34)"/><path class="cls-1" d="M1114.87,2955.14a24.52,24.52,0,0,1,5.8-2.3c-.76.33-1.5.69-2.23,1.09l-.18.1,72.23,130.91a24.47,24.47,0,0,1-3,1.92l-.18.1-72.67-131.72Z" transform="translate(-378.5 -96.34)"/><path class="cls-3" d="M1191.35,3053l-46.86-84.94a26.71,26.71,0,0,0-28.49-13.52c12.22-5.94,27.43-.93,34.32,11.55l46.85,84.93c7.1,12.87,2.76,29-9.63,35.83l-.18.1-.87-1.57C1195.11,3077.48,1197.44,3064.05,1191.35,3053Z" transform="translate(-378.5 -96.34)"/><circle class="cls-3" cx="1413.99" cy="3041.32" r="29.93" transform="translate(-1140.25 392.5) rotate(-15.51)"/><circle cx="1413.99" cy="3041.32" r="25.5" transform="translate(-2304.97 2644.55) rotate(-59.93)"/><path class="cls-1" d="M1408.48,3020.64a25.5,25.5,0,0,0-18.55,29c-.25-.7-.48-1.41-.67-2.14a25.49,25.49,0,0,1,49.27-13.13,20.7,20.7,0,0,1,.48,2.18A25.5,25.5,0,0,0,1408.48,3020.64Z" transform="translate(-378.5 -96.34)"/><path class="cls-1" d="M1853.54,3665.32a885.47,885.47,0,0,0-114.78,172.51,132.76,132.76,0,0,0-35.68-44.38c-99.07-79.9-322.87,49.57-322.87,49.57,43.07-69.23,122.2-176.45,253.58-268.9,175.76-123.69,350.63-154.5,437.78-163.8l-27.32,87A890.86,890.86,0,0,0,1853.54,3665.32Z" transform="translate(-378.5 -96.34)"/><path class="cls-2" d="M1813.52,3603.53a508.25,508.25,0,0,0-135.63,175.77c-107.25-45.92-298,64.42-298,64.42,43.06-69.23,122.2-176.46,253.57-268.91,175.77-123.68,350.64-154.49,437.79-163.8l-26.45,84.23C1982.07,3507.19,1895.5,3535.55,1813.52,3603.53Z" transform="translate(-378.5 -96.34)"/><path class="cls-3" d="M1624.44,3609.7A898.85,898.85,0,0,0,1392.14,3836c-7.47,4-11.65,6.39-11.65,6.39,43.06-69.22,122.2-176.45,253.58-268.9,175.76-123.69,350.63-154.49,437.78-163.8l-14.13,45C1962.09,3464.77,1792.92,3496.58,1624.44,3609.7Z" transform="translate(-378.5 -96.34)"/><path class="cls-3" d="M1710.79,3699.89h0a25.69,25.69,0,0,1-31.85,17.27l-79.7-23.66a25.69,25.69,0,0,1-17.27-31.85h0a25.69,25.69,0,0,1,31.85-17.27l79.7,23.66A25.69,25.69,0,0,1,1710.79,3699.89Z" transform="translate(-378.5 -96.34)"/><path d="M1708.23,3699.08h0a23.15,23.15,0,0,1-28.68,15.55l-79.33-23.55a23.13,23.13,0,0,1-15.55-28.67h0a23.14,23.14,0,0,1,28.68-15.55l79.33,23.55A23.13,23.13,0,0,1,1708.23,3699.08Z" transform="translate(-378.5 -96.34)"/><path class="cls-1" d="M1682,3707l-79.67-23.65a23,23,0,0,1-16.2-24.67,21.74,21.74,0,0,0-1.42,3.6l-.1.34a23,23,0,0,0,15.43,28.45l79.67,23.65a23,23,0,0,0,28.45-15.43l.11-.34a23,23,0,0,0,.77-3.78A23,23,0,0,1,1682,3707Z" transform="translate(-378.5 -96.34)"/><path class="cls-3" d="M1747.06,3654.6h0a22.79,22.79,0,0,1-28.81,14.22l-69.81-23.68a22.78,22.78,0,0,1-14.22-28.8h0a22.79,22.79,0,0,1,28.81-14.22l69.81,23.67A22.79,22.79,0,0,1,1747.06,3654.6Z" transform="translate(-378.5 -96.34)"/><path d="M1744.81,3653.8h0a20.51,20.51,0,0,1-25.93,12.8L1649.39,3643a20.52,20.52,0,0,1-12.8-25.94h0a20.52,20.52,0,0,1,25.94-12.8l69.48,23.56A20.52,20.52,0,0,1,1744.81,3653.8Z" transform="translate(-378.5 -96.34)"/><path class="cls-1" d="M1721.32,3659.88l-69.78-23.66a20.37,20.37,0,0,1-13.52-22.41,20.59,20.59,0,0,0-1.38,3.14l-.1.3a20.35,20.35,0,0,0,12.7,25.73l69.78,23.67a20.35,20.35,0,0,0,25.74-12.7l.1-.3a19.74,19.74,0,0,0,.82-3.33A20.35,20.35,0,0,1,1721.32,3659.88Z" transform="translate(-378.5 -96.34)"/><path class="cls-3" d="M1779.63,3619.19h0a18.4,18.4,0,0,1-24.07,9.66l-54.72-23.38a18.39,18.39,0,0,1-9.65-24.07h0a18.38,18.38,0,0,1,24.06-9.66l54.72,23.39A18.38,18.38,0,0,1,1779.63,3619.19Z" transform="translate(-378.5 -96.34)"/><path d="M1777.87,3618.41h0a16.56,16.56,0,0,1-21.67,8.69l-54.46-23.27a16.57,16.57,0,0,1-8.7-21.67h0a16.56,16.56,0,0,1,21.67-8.69l54.47,23.27A16.56,16.56,0,0,1,1777.87,3618.41Z" transform="translate(-378.5 -96.34)"/><path class="cls-1" d="M1758.58,3621.85l-54.69-23.38a16.43,16.43,0,0,1-9.49-18.87,16.3,16.3,0,0,0-1.31,2.44l-.1.24a16.44,16.44,0,0,0,8.63,21.5l54.7,23.37a16.43,16.43,0,0,0,21.5-8.62l.1-.24a15.84,15.84,0,0,0,.86-2.63A16.44,16.44,0,0,1,1758.58,3621.85Z" transform="translate(-378.5 -96.34)"/><path d="M1528.68,3723.08l0-.19c3.46-13.73,17.94-22,32.19-18.45l94.07,23.68c14.25,3.59,23.08,17.76,19.62,31.49l0,.2Z" transform="translate(-378.5 -96.34)"/><path class="cls-1" d="M1528.73,3722.89a24.32,24.32,0,0,1,2.28-5.81,23.25,23.25,0,0,0-.73,2.37l0,.2,145,36.5a23.24,23.24,0,0,1-.61,3.46l0,.2-145.89-36.73Z" transform="translate(-378.5 -96.34)"/><path class="cls-3" d="M1652.47,3733.73l-94.08-23.68a26.69,26.69,0,0,0-29.32,11.61c4-13,18-20.7,31.85-17.22l94.07,23.68c14.25,3.59,23.08,17.76,19.62,31.49l0,.2-1.74-.44C1672.92,3747.67,1664.69,3736.8,1652.47,3733.73Z" transform="translate(-378.5 -96.34)"/><circle class="cls-3" cx="1795.8" cy="3562.96" r="29.93" transform="translate(-1337.26 580.1) rotate(-16.91)"/><circle cx="1795.8" cy="3562.96" r="25.5" transform="translate(-838.71 175.73) rotate(-7.68)"/><path class="cls-1" d="M1776.92,3552.89a25.49,25.49,0,0,0,8.56,33.35c-.68-.29-1.35-.61-2-1a25.5,25.5,0,0,1,24-45c.67.35,1.31.74,1.93,1.14A25.5,25.5,0,0,0,1776.92,3552.89Z" transform="translate(-378.5 -96.34)"/><path d="M2440.77,1466.45h0a188.83,188.83,0,0,1-77.21-36.83,204.07,204.07,0,0,1-46.56-52.33c14.35-14.74,21.32-28.79,16.36-35.78l-23.16-32.7c-18.36,7.47-38.43,18.49-58.3,32.57a301.62,301.62,0,0,0-46.38,40.15l23.85,33.66h0c4.5,6.34,17.75,5.35,34.13-1.37a204,204,0,0,1,34.62,62.16,188.7,188.7,0,0,1,9.15,85h0c12.49,17.64,52.5,10.76,89.37-15.36S2453.26,1484.09,2440.77,1466.45Z" transform="translate(-378.5 -96.34)"/><path d="M2557.23,1243.06h0a188.85,188.85,0,0,1-76.26,38.75,204.13,204.13,0,0,1-69.87,5c-2.94-20.36-9.83-34.45-18.39-34.78l-40-1.57c-5.27,19.11-8.77,41.73-9.72,66.06a301.09,301.09,0,0,0,3.55,61.24l41.22,1.62h0c7.77.3,15.06-10.81,19.73-27.89a204.27,204.27,0,0,1,70.38,10.45,188.82,188.82,0,0,1,73,44.59h0c21.59.85,40.52-35.06,42.29-80.21S2578.82,1243.91,2557.23,1243.06Z" transform="translate(-378.5 -96.34)"/><polygon class="cls-4" points="1826.15 2187.56 1824.82 2230.67 1752.36 2220.59 1753.2 2193.16 1826.15 2187.56"/><polygon class="cls-4" points="1826.15 2304.53 1824.82 2347.65 1752.36 2337.57 1753.2 2310.13 1826.15 2304.53"/><polygon class="cls-4" points="1826.15 2413.38 1824.82 2456.49 1752.36 2446.42 1753.2 2418.98 1826.15 2413.38"/><polygon class="cls-4" points="1826.15 2531.81 1824.82 2574.92 1752.36 2564.84 1753.2 2537.41 1826.15 2531.81"/><path class="cls-1" d="M2196.72,1075V4209.69a893.42,893.42,0,0,1,30,138.72q4,29.55,6.1,58.42h3.7V1075Z" transform="translate(-378.5 -96.34)"/><path class="cls-1" d="M2241.35,2545.23a1.14,1.14,0,1,0-1.14,1.15A1.14,1.14,0,0,0,2241.35,2545.23Z" transform="translate(-378.5 -96.34)"/><path class="cls-1" d="M2241.2,2544.66a1.14,1.14,0,0,0-2,1.14,1.14,1.14,0,1,0,2-1.14Z" transform="translate(-378.5 -96.34)"/><path class="cls-1" d="M2240.78,2544.24a1.14,1.14,0,1,0,.42,1.56A1.14,1.14,0,0,0,2240.78,2544.24Z" transform="translate(-378.5 -96.34)"/><path class="cls-1" d="M2240.21,2544.09a1.15,1.15,0,1,0,1.14,1.14A1.14,1.14,0,0,0,2240.21,2544.09Z" transform="translate(-378.5 -96.34)"/><path class="cls-1" d="M2239.64,2544.24a1.14,1.14,0,1,0,1.56.42A1.14,1.14,0,0,0,2239.64,2544.24Z" transform="translate(-378.5 -96.34)"/><path class="cls-1" d="M2239.22,2544.66a1.14,1.14,0,1,0,1.56-.42A1.13,1.13,0,0,0,2239.22,2544.66Z" transform="translate(-378.5 -96.34)"/><path class="cls-1" d="M2239.07,2545.23a1.14,1.14,0,1,0,1.14-1.14A1.15,1.15,0,0,0,2239.07,2545.23Z" transform="translate(-378.5 -96.34)"/><path class="cls-1" d="M2239.22,2545.8a1.14,1.14,0,1,0,2-1.14,1.14,1.14,0,0,0-2,1.14Z" transform="translate(-378.5 -96.34)"/><path class="cls-1" d="M2239.64,2546.22a1.14,1.14,0,1,0-.42-1.56A1.14,1.14,0,0,0,2239.64,2546.22Z" transform="translate(-378.5 -96.34)"/><path class="cls-1" d="M2240.21,2546.38a1.15,1.15,0,1,0-1.14-1.15A1.15,1.15,0,0,0,2240.21,2546.38Z" transform="translate(-378.5 -96.34)"/><path class="cls-1" d="M2240.78,2546.22a1.13,1.13,0,0,0,.42-1.56,1.14,1.14,0,0,0-2,1.14A1.13,1.13,0,0,0,2240.78,2546.22Z" transform="translate(-378.5 -96.34)"/><path class="cls-1" d="M2241.2,2545.8a1.14,1.14,0,1,0-1.56.42A1.14,1.14,0,0,0,2241.2,2545.8Z" transform="translate(-378.5 -96.34)"/><path class="cls-1" d="M2241.2,2544.66a1.14,1.14,0,0,0-2,1.14,1.14,1.14,0,1,0,2-1.14Z" transform="translate(-378.5 -96.34)"/><path class="cls-1" d="M2240.78,2544.24a1.14,1.14,0,1,0,.42,1.56A1.14,1.14,0,0,0,2240.78,2544.24Z" transform="translate(-378.5 -96.34)"/><path class="cls-1" d="M2240.21,2544.09a1.15,1.15,0,1,0,1.14,1.14A1.14,1.14,0,0,0,2240.21,2544.09Z" transform="translate(-378.5 -96.34)"/><path class="cls-1" d="M2239.64,2544.24a1.14,1.14,0,1,0,1.56.42A1.14,1.14,0,0,0,2239.64,2544.24Z" transform="translate(-378.5 -96.34)"/><path class="cls-1" d="M2239.22,2544.66a1.14,1.14,0,1,0,1.56-.42A1.13,1.13,0,0,0,2239.22,2544.66Z" transform="translate(-378.5 -96.34)"/><path class="cls-1" d="M2239.07,2545.23a1.14,1.14,0,1,0,1.14-1.14A1.15,1.15,0,0,0,2239.07,2545.23Z" transform="translate(-378.5 -96.34)"/><path class="cls-1" d="M2239.22,2545.8a1.14,1.14,0,1,0,2-1.14,1.14,1.14,0,0,0-2,1.14Z" transform="translate(-378.5 -96.34)"/><path class="cls-1" d="M2239.64,2546.22a1.14,1.14,0,1,0-.42-1.56A1.14,1.14,0,0,0,2239.64,2546.22Z" transform="translate(-378.5 -96.34)"/><path class="cls-1" d="M2240.21,2546.38a1.15,1.15,0,1,0-1.14-1.15A1.15,1.15,0,0,0,2240.21,2546.38Z" transform="translate(-378.5 -96.34)"/><path class="cls-1" d="M2240.78,2546.22a1.13,1.13,0,0,0,.42-1.56,1.14,1.14,0,0,0-2,1.14A1.13,1.13,0,0,0,2240.78,2546.22Z" transform="translate(-378.5 -96.34)"/><path class="cls-1" d="M2241.2,2545.8a1.14,1.14,0,1,0-1.56.42A1.14,1.14,0,0,0,2241.2,2545.8Z" transform="translate(-378.5 -96.34)"/><path class="cls-1" d="M2241.35,2545.23a1.14,1.14,0,1,0-1.14,1.15A1.14,1.14,0,0,0,2241.35,2545.23Z" transform="translate(-378.5 -96.34)"/><path class="cls-1" d="M2241.35,2545.23a1.14,1.14,0,1,0-1.14,1.15A1.14,1.14,0,0,0,2241.35,2545.23Z" transform="translate(-378.5 -96.34)"/><path class="cls-1" d="M2241.2,2544.66a1.14,1.14,0,0,0-2,1.14,1.14,1.14,0,1,0,2-1.14Z" transform="translate(-378.5 -96.34)"/><path class="cls-1" d="M2240.78,2544.24a1.14,1.14,0,1,0,.42,1.56A1.14,1.14,0,0,0,2240.78,2544.24Z" transform="translate(-378.5 -96.34)"/><path class="cls-1" d="M2240.21,2544.09a1.15,1.15,0,1,0,1.14,1.14A1.14,1.14,0,0,0,2240.21,2544.09Z" transform="translate(-378.5 -96.34)"/><path class="cls-1" d="M2239.64,2544.24a1.14,1.14,0,1,0,1.56.42A1.14,1.14,0,0,0,2239.64,2544.24Z" transform="translate(-378.5 -96.34)"/><path class="cls-1" d="M2239.22,2544.66a1.14,1.14,0,1,0,1.56-.42A1.13,1.13,0,0,0,2239.22,2544.66Z" transform="translate(-378.5 -96.34)"/><path class="cls-1" d="M2239.07,2545.23a1.14,1.14,0,1,0,1.14-1.14A1.15,1.15,0,0,0,2239.07,2545.23Z" transform="translate(-378.5 -96.34)"/><path class="cls-1" d="M2239.22,2545.8a1.14,1.14,0,1,0,2-1.14,1.14,1.14,0,0,0-2,1.14Z" transform="translate(-378.5 -96.34)"/><path class="cls-1" d="M2239.64,2546.22a1.14,1.14,0,1,0-.42-1.56A1.14,1.14,0,0,0,2239.64,2546.22Z" transform="translate(-378.5 -96.34)"/><path class="cls-1" d="M2240.21,2546.38a1.15,1.15,0,1,0-1.14-1.15A1.15,1.15,0,0,0,2240.21,2546.38Z" transform="translate(-378.5 -96.34)"/><path class="cls-1" d="M2240.78,2546.22a1.13,1.13,0,0,0,.42-1.56,1.14,1.14,0,0,0-2,1.14A1.13,1.13,0,0,0,2240.78,2546.22Z" transform="translate(-378.5 -96.34)"/><path class="cls-1" d="M2241.2,2545.8a1.14,1.14,0,1,0-1.56.42A1.14,1.14,0,0,0,2241.2,2545.8Z" transform="translate(-378.5 -96.34)"/><rect class="cls-1" x="1858.28" y="2089.56" width="2.29" height="358.19"/><rect class="cls-1" x="1857.75" y="2449.38" width="2.29" height="358.19"/><path class="cls-1" d="M2345.48,2812.54a141.1,141.1,0,0,1,21.77,1.7,137.11,137.11,0,0,1,31.87,9l-.92,2.19a138.27,138.27,0,0,0-86.12-6.38,140,140,0,0,0-73.84,46.53l-1.84-1.51a141.56,141.56,0,0,1,109.08-51.5Z" transform="translate(-378.5 -96.34)"/><path class="cls-1" d="M2321,2751.45a104.89,104.89,0,0,1,42,8.88l-1,2.17c-10.94-4.92-40-15.06-73.25-3-27.49,9.93-43.32,30.48-50.32,41.85l-2-1.25a108.1,108.1,0,0,1,15.85-20,96.28,96.28,0,0,1,68.72-28.67Z" transform="translate(-378.5 -96.34)"/><path class="cls-1" d="M2289.6,2691.73A68.17,68.17,0,0,1,2333,2708l-1.61,1.75a65.11,65.11,0,0,0-51.71-14.83c-24.69,4-38.17,21.69-41.71,27l-2-1.31c3.67-5.54,17.67-23.94,43.31-28.07A65.22,65.22,0,0,1,2289.6,2691.73Z" transform="translate(-378.5 -96.34)"/><path class="cls-1" d="M2277.26,2647.38a55.13,55.13,0,0,1,23.83,5.5l-1,2.14a52.15,52.15,0,0,0-30.58-4.65,52.79,52.79,0,0,0-31.25,17.62l-1.81-1.55a56,56,0,0,1,10.37-9.36,52.6,52.6,0,0,1,30.48-9.7Z" transform="translate(-378.5 -96.34)"/><path class="cls-1" d="M2265.27,2611.12c6.94,0,11.84,1.8,13.1,2.52l-1.17,2.07c-1.54-.87-10.14-3.8-21.23-1.07a29.37,29.37,0,0,0-17.64,12.74l-2-1.27a31.85,31.85,0,0,1,19.09-13.78A41.33,41.33,0,0,1,2265.27,2611.12Z" transform="translate(-378.5 -96.34)"/><path class="cls-1" d="M2250.48,2578.92a17.68,17.68,0,0,1,10.39,3.72l-1.53,1.83c-.24-.2-5.94-4.87-12.79-2.51-5.31,1.83-7.74,5.36-8.05,6.13l-2.21-.9c.52-1.27,3.38-5.37,9.48-7.48A14.49,14.49,0,0,1,2250.48,2578.92Z" transform="translate(-378.5 -96.34)"/><rect class="cls-1" x="2326.24" y="2521.74" width="2.29" height="358.19" transform="translate(-1417.13 1429.26) rotate(-30)"/><path class="cls-1" d="M2464.86,2722.78a140.28,140.28,0,0,1,19.7-9.42,137,137,0,0,1,32.08-8.17l.3,2.36a138.25,138.25,0,0,0-77.77,37.54,140,140,0,0,0-40.69,77.21l-2.34-.39a142.4,142.4,0,0,1,41.38-78.54A140.89,140.89,0,0,1,2464.86,2722.78Z" transform="translate(-378.5 -96.34)"/><path class="cls-1" d="M2413.07,2682.13a104.93,104.93,0,0,1,40.81-13.31l.24,2.37c-11.93,1.21-42.13,6.94-64.94,34-18.84,22.34-22.29,48.06-22.66,61.4l-2.38-.07a107.41,107.41,0,0,1,3.75-25.2,96.33,96.33,0,0,1,45.18-59.19Z" transform="translate(-378.5 -96.34)"/><path class="cls-1" d="M2356.06,2646.09a68.34,68.34,0,0,1,45.71-7.62l-.51,2.33a65.08,65.08,0,0,0-52.21,13c-19.39,15.78-22.2,37.87-22.6,44.26l-2.38-.15c.42-6.64,3.33-29.57,23.48-46A64.76,64.76,0,0,1,2356.06,2646.09Z" transform="translate(-378.5 -96.34)"/><path class="cls-1" d="M2323.19,2613.85a55.22,55.22,0,0,1,23.39-7.15l.17,2.37a52.16,52.16,0,0,0-28.81,11.26,52.7,52.7,0,0,0-18.25,30.88l-2.34-.43a55.69,55.69,0,0,1,4.29-13.29,52.75,52.75,0,0,1,21.55-23.64Z" transform="translate(-378.5 -96.34)"/><path class="cls-1" d="M2294.68,2588.44c6-3.47,11.15-4.36,12.61-4.37l0,2.38c-1.77,0-10.69,1.79-18.93,9.69a29.42,29.42,0,0,0-8.9,19.86l-2.38-.09a31.81,31.81,0,0,1,9.63-21.49A41.52,41.52,0,0,1,2294.68,2588.44Z" transform="translate(-378.5 -96.34)"/><path class="cls-1" d="M2265.77,2568a17.56,17.56,0,0,1,10.86-2l-.41,2.35c-.31-.06-7.58-1.25-12.33,4.22-3.68,4.24-4,8.51-3.91,9.33l-2.36.32c-.19-1.36.24-6.33,4.47-11.21A14.28,14.28,0,0,1,2265.77,2568Z" transform="translate(-378.5 -96.34)"/><rect class="cls-1" x="2392.19" y="2455.99" width="2.29" height="358.19" transform="translate(-1463.87 3293.95) rotate(-60)"/><path class="cls-1" d="M2523.35,2585.35a141.21,141.21,0,0,1,12.36-18,137.69,137.69,0,0,1,23.7-23.12l1.44,1.9a138.35,138.35,0,0,0-48.59,71.39,139.94,139.94,0,0,0,3.38,87.22l-2.23.83a142.35,142.35,0,0,1-3.43-88.71A140.71,140.71,0,0,1,2523.35,2585.35Z" transform="translate(-378.5 -96.34)"/><path class="cls-1" d="M2458.18,2576a105,105,0,0,1,28.69-31.93l1.39,1.93c-9.72,7-33,27.07-39.24,61.92-5.14,28.77,4.73,52.76,11.07,64.5l-2.09,1.13a107.9,107.9,0,0,1-9.35-23.7,96.4,96.4,0,0,1,9.53-73.85Z" transform="translate(-378.5 -96.34)"/><path class="cls-1" d="M2390.79,2573.34a68.2,68.2,0,0,1,35.78-29.46l.72,2.27a63.06,63.06,0,0,0-16.66,8.83,62.3,62.3,0,0,0-22.05,28.54c-8.9,23.37-.29,43.9,2.56,49.63l-2.14,1.06c-3-5.95-11.89-27.27-2.64-51.54A64.37,64.37,0,0,1,2390.79,2573.34Z" transform="translate(-378.5 -96.34)"/><path class="cls-1" d="M2346.21,2561.84a55,55,0,0,1,16.68-17.88l1.33,2a52.09,52.09,0,0,0-19.32,24.15,52.73,52.73,0,0,0-.36,35.87l-2.25.8a56,56,0,0,1-2.93-13.66,52.87,52.87,0,0,1,6.85-31.25Z" transform="translate(-378.5 -96.34)"/><path class="cls-1" d="M2308.81,2554.1c3.47-6,7.48-9.35,8.73-10.09l1.21,2c-1.52.9-8.36,6.89-11.54,17.86a29.39,29.39,0,0,0,2.21,21.64l-2.11,1.11a31.84,31.84,0,0,1-2.39-23.42A41.34,41.34,0,0,1,2308.81,2554.1Z" transform="translate(-378.5 -96.34)"/><path class="cls-1" d="M2273.53,2550.81a17.54,17.54,0,0,1,8.42-7.14l.82,2.24c-.3.11-7.19,2.7-8.57,9.82-1.07,5.51.77,9.38,1.28,10l-1.88,1.46c-.84-1.09-3-5.61-1.74-11.95A14.12,14.12,0,0,1,2273.53,2550.81Z" transform="translate(-378.5 -96.34)"/><rect class="cls-1" x="1859.97" y="2447.68" width="358.19" height="2.29"/><path class="cls-1" d="M2505.3,2437.08a141.1,141.1,0,0,1,1.7-21.77,137.24,137.24,0,0,1,9-31.87l2.2.92a138.28,138.28,0,0,0-6.38,86.12,139.92,139.92,0,0,0,46.53,73.84l-1.52,1.84a141.58,141.58,0,0,1-51.49-109.08Z" transform="translate(-378.5 -96.34)"/><path class="cls-1" d="M2444.21,2461.61a105.06,105.06,0,0,1,8.87-42l2.18,1c-4.92,10.94-15.06,40-3,73.25,9.93,27.49,30.48,43.33,41.84,50.32l-1.25,2a108.43,108.43,0,0,1-20-15.85,96.32,96.32,0,0,1-28.66-68.72Z" transform="translate(-378.5 -96.34)"/><path class="cls-1" d="M2340.13,2505.3a55.11,55.11,0,0,1,5.51-23.83l2.14,1a52.06,52.06,0,0,0-4.66,30.58,52.75,52.75,0,0,0,17.62,31.25l-1.54,1.81a55.71,55.71,0,0,1-9.37-10.37,52.87,52.87,0,0,1-9.7-30.48Z" transform="translate(-378.5 -96.34)"/><path class="cls-1" d="M2303.88,2517.29c0-6.94,1.8-11.83,2.51-13.1l2.08,1.17c-.87,1.54-3.8,10.14-1.07,21.23a29.43,29.43,0,0,0,12.74,17.65l-1.27,2a31.82,31.82,0,0,1-13.79-19.09A41.28,41.28,0,0,1,2303.88,2517.29Z" transform="translate(-378.5 -96.34)"/><path class="cls-1" d="M2271.67,2532.08a17.59,17.59,0,0,1,3.73-10.39l1.83,1.53c-.2.24-4.88,5.94-2.51,12.79,1.83,5.31,5.35,7.74,6.13,8l-.91,2.21c-1.27-.52-5.37-3.38-7.47-9.48A14.25,14.25,0,0,1,2271.67,2532.08Z" transform="translate(-378.5 -96.34)"/><polyline class="cls-1" points="2170.77 2270.28 2169.62 2268.3 1859.42 2447.39 1860.57 2449.37"/><path class="cls-1" d="M2415.53,2317.71a140.88,140.88,0,0,1-9.41-19.71,136.87,136.87,0,0,1-8.17-32.08l2.36-.3a138.22,138.22,0,0,0,37.53,77.77,140,140,0,0,0,77.22,40.69l-.39,2.34a141.6,141.6,0,0,1-99.14-68.71Z" transform="translate(-378.5 -96.34)"/><path class="cls-1" d="M2374.89,2369.49a104.93,104.93,0,0,1-13.31-40.81l2.36-.24c1.21,11.93,6.94,42.13,34,64.95,22.35,18.84,48.06,22.28,61.4,22.66l-.06,2.37a107.55,107.55,0,0,1-25.21-3.74,96.31,96.31,0,0,1-59.18-45.19Z" transform="translate(-378.5 -96.34)"/><path class="cls-1" d="M2338.85,2426.51a68.22,68.22,0,0,1-7.62-45.72l2.32.51a63.06,63.06,0,0,0-.68,18.84,62.31,62.31,0,0,0,13.7,33.37c15.78,19.39,37.86,22.2,44.26,22.6l-.15,2.38c-6.64-.42-29.57-3.33-46-23.48A64.66,64.66,0,0,1,2338.85,2426.51Z" transform="translate(-378.5 -96.34)"/><path class="cls-1" d="M2306.6,2459.37a55.22,55.22,0,0,1-7.15-23.39l2.38-.17a52.08,52.08,0,0,0,11.26,28.81,52.7,52.7,0,0,0,30.88,18.25l-.43,2.34a55.91,55.91,0,0,1-13.3-4.29,53.22,53.22,0,0,1-19-14.8A51.86,51.86,0,0,1,2306.6,2459.37Z" transform="translate(-378.5 -96.34)"/><path class="cls-1" d="M2281.2,2487.88c-3.47-6-4.36-11.15-4.37-12.61h2.38c0,1.76,1.78,10.68,9.69,18.92a29.41,29.41,0,0,0,19.85,8.91l-.09,2.37a31.79,31.79,0,0,1-21.48-9.63A41.21,41.21,0,0,1,2281.2,2487.88Z" transform="translate(-378.5 -96.34)"/><path class="cls-1" d="M2260.71,2516.79a17.56,17.56,0,0,1-2-10.86l2.34.41c0,.31-1.25,7.58,4.23,12.33,4.24,3.68,8.5,4,9.33,3.91l.32,2.36c-1.36.19-6.34-.24-11.21-4.47A14.11,14.11,0,0,1,2260.71,2516.79Z" transform="translate(-378.5 -96.34)"/><rect class="cls-1" x="2148.75" y="2388.09" width="358.19" height="2.29" transform="translate(-1283.73 3114.18) rotate(-60)"/><path class="cls-1" d="M2278.1,2259.21a140.4,140.4,0,0,1-18-12.36,137,137,0,0,1-23.12-23.7l1.9-1.44a138.24,138.24,0,0,0,71.39,48.59,139.9,139.9,0,0,0,87.21-3.38l.84,2.23a141.51,141.51,0,0,1-120.22-9.94Z" transform="translate(-378.5 -96.34)"/><path class="cls-1" d="M2268.8,2324.38a104.54,104.54,0,0,1-13.05-9,103.37,103.37,0,0,1-18.89-19.74l1.94-1.39c7,9.72,27.07,33,61.91,39.24,28.77,5.15,52.76-4.73,64.5-11.07l1.14,2.09a108.31,108.31,0,0,1-23.71,9.36,96.3,96.3,0,0,1-73.84-9.54Z" transform="translate(-378.5 -96.34)"/><path class="cls-1" d="M2266.09,2391.77a68.24,68.24,0,0,1-29.45-35.78l2.27-.72a65.07,65.07,0,0,0,37.37,38.71c23.36,8.91,43.89.3,49.63-2.55l1.06,2.13c-6,3-27.27,11.89-51.54,2.64A65,65,0,0,1,2266.09,2391.77Z" transform="translate(-378.5 -96.34)"/><path class="cls-1" d="M2254.6,2436.36a55.07,55.07,0,0,1-17.89-16.69l2-1.33a52,52,0,0,0,24.15,19.32,52.75,52.75,0,0,0,35.87.37l.8,2.24a56.12,56.12,0,0,1-13.66,2.93,53.07,53.07,0,0,1-23.86-3.32A52.15,52.15,0,0,1,2254.6,2436.36Z" transform="translate(-378.5 -96.34)"/><path class="cls-1" d="M2246.86,2473.75c-6-3.47-9.35-7.48-10.09-8.73l2.05-1.21c.89,1.52,6.88,8.36,17.85,11.54a29.37,29.37,0,0,0,21.65-2.21l1.11,2.11a31.86,31.86,0,0,1-23.42,2.39A41.34,41.34,0,0,1,2246.86,2473.75Z" transform="translate(-378.5 -96.34)"/><path class="cls-1" d="M2243.57,2509a17.59,17.59,0,0,1-7.14-8.43l2.24-.81c.1.29,2.7,7.19,9.82,8.56,5.51,1.07,9.37-.77,10-1.28L2260,2509c-1.08.84-5.61,3-11.94,1.73A14.27,14.27,0,0,1,2243.57,2509Z" transform="translate(-378.5 -96.34)"/><path class="cls-2" d="M2208.08,3687.39a405.72,405.72,0,0,0,143.62,61.67,411.82,411.82,0,0,1-176.18-12Z" transform="translate(-378.5 -96.34)"/><path class="cls-3" d="M2195.36,3595.21a303.58,303.58,0,0,1-70,180.71,17.86,17.86,0,0,0,9.41,28.72c15.67,3.93,34.44,9.14,48,14.49,27.69,11,62.4,43.56,62.4,43.56s37.81-104,33.57-169.41-25.48-121.18-25.48-121.18Z" transform="translate(-378.5 -96.34)"/><path class="cls-1" d="M2125.34,3775.92a303.58,303.58,0,0,0,70-180.71l57.86-23.11.57,1.56-45.17,18.05a303.75,303.75,0,0,1-70,180.71,17.85,17.85,0,0,0,9.4,28.72c15.67,3.93,34.45,9.14,48,14.49,18.86,7.46,41,25,53.17,35.37-2.45,7.36-4,11.69-4,11.69s-34.71-32.6-62.4-43.56c-13.53-5.35-32.3-10.56-48-14.49A17.86,17.86,0,0,1,2125.34,3775.92Z" transform="translate(-378.5 -96.34)"/><circle class="cls-5" cx="2175.55" cy="3774.78" r="24.17" transform="translate(-892.92 251.19) rotate(-8.17)"/><circle class="cls-1" cx="2176.08" cy="3774.44" r="17.39" transform="translate(-2359.33 4982.64) rotate(-77.46)"/><path class="cls-2" d="M2187.18,3767.38A17.38,17.38,0,0,0,2165,3761a17.85,17.85,0,0,1,1.71-1.25,17.39,17.39,0,0,1,18.66,29.34,15.3,15.3,0,0,1-1.86,1A17.38,17.38,0,0,0,2187.18,3767.38Z" transform="translate(-378.5 -96.34)"/><path class="cls-2" d="M2215.1,3517.46a405.38,405.38,0,0,0,155.11,19.24,411.75,411.75,0,0,1-172.55,37.53Z" transform="translate(-378.5 -96.34)"/><path class="cls-3" d="M2177.22,3432.47a303.59,303.59,0,0,1-16.94,193.06,17.86,17.86,0,0,0,17,25c16.15-.59,35.63-.82,50.11.55,29.65,2.82,72.07,24.46,72.07,24.46s7.36-110.37-14.93-172.05-58.21-109.3-58.21-109.3Z" transform="translate(-378.5 -96.34)"/><path class="cls-1" d="M2160.28,3625.53a303.59,303.59,0,0,0,16.94-193.06l49.13-38.31s.35.47,1,1.35L2189,3425.42A303.68,303.68,0,0,1,2172,3618.48a17.85,17.85,0,0,0,17,25c16.14-.59,35.63-.81,50.1.56,20.2,1.92,46.31,12.57,60.92,19.17-.3,7.75-.6,12.34-.6,12.34s-42.42-21.64-72.07-24.46c-14.48-1.37-34-1.14-50.11-.55A17.86,17.86,0,0,1,2160.28,3625.53Z" transform="translate(-378.5 -96.34)"/><circle class="cls-5" cx="2208.18" cy="3610.46" r="24.17" transform="translate(-1809.72 1353.97) rotate(-27.86)"/><circle class="cls-1" cx="2208.61" cy="3609.98" r="17.39" transform="translate(-2399.45 3657.78) rotate(-60.49)"/><path class="cls-2" d="M2217.3,3600.11a17.38,17.38,0,0,0-23,.06,15.64,15.64,0,0,1,1.29-1.68,17.38,17.38,0,1,1,26.09,23,17.69,17.69,0,0,1-1.5,1.5A17.38,17.38,0,0,0,2217.3,3600.11Z" transform="translate(-378.5 -96.34)"/><polygon class="cls-4" points="1654.04 3314.11 1671.03 3295.8 1637.06 3270.48 1626.25 3282.13 1654.04 3314.11"/><polygon class="cls-4" points="1602.08 3375.22 1617.59 3355.65 1581.76 3333.04 1571.89 3345.5 1602.08 3375.22"/><polygon class="cls-4" points="1554.6 3456.24 1564.82 3433.44 1524.52 3420.36 1518.02 3434.87 1554.6 3456.24"/><polygon class="cls-4" points="1527.99 3531.06 1532.94 3506.57 1490.75 3502.67 1487.6 3518.25 1527.99 3531.06"/><polygon class="cls-4" points="1533.59 3609.89 1533.51 3585.31 1492.06 3589.91 1492.11 3605.56 1533.59 3609.89"/><polygon class="cls-4" points="1532.26 3693.72 1524.6 3669.95 1485.9 3687.2 1490.78 3702.33 1532.26 3693.72"/><polygon class="cls-4" points="1562.51 3776.21 1548.64 3755.44 1516.13 3782.61 1524.96 3795.83 1562.51 3776.21"/><path d="M2070,4026.29c87.46,160.88,346.73,202.55,447.91,33.14,61.92-103.67,25.73-259.29-99.3-293.63-113.26-31.1-242.81,76.16-179.33,193.42,15.57,28.75,43.46,49.45,76,54.8,67.21,11.06,136.51-52.31,99.91-121.32,52.7,109.18-118.08,156.09-165.64,62.61-38.12-74.93,15.82-159.38,94.21-172.36,123.73-20.48,198.37,106.75,164.86,213.34-20.93,66.59-77.59,110.89-144.12,124.89-99.57,20.94-202.13-30.34-246.52-120.79Z" transform="translate(-378.5 -96.34)"/><path class="cls-2" d="M2240.83,3875.18c6,17.21,24.39,53.84,73.69,64.68,65.19,14.34,100.67-47.16,100.67-47.16,52.7,109.18-118.08,156.09-165.64,62.61A111.38,111.38,0,0,1,2240.83,3875.18Z" transform="translate(-378.5 -96.34)"/><circle class="cls-3" cx="2359.59" cy="3968.76" r="21.07" transform="translate(-2613.59 4328.06) rotate(-64.93)"/><circle cx="2359.59" cy="3968.76" r="17.95" transform="translate(-2407.97 2438.93) rotate(-41.18)"/><path class="cls-1" d="M2360.59,3953.72a18,18,0,0,0-18.93,15.15c0-.52,0-1,0-1.57a18,18,0,0,1,35.83,2.39c0,.53-.1,1-.18,1.57A18,18,0,0,0,2360.59,3953.72Z" transform="translate(-378.5 -96.34)"/><circle class="cls-3" cx="2316.29" cy="3971.65" r="13.54" transform="translate(-2658.28 3998.83) rotate(-61.29)"/><path d="M2315.52,3983.15a11.53,11.53,0,1,0-10.74-12.27A11.53,11.53,0,0,0,2315.52,3983.15Z" transform="translate(-378.5 -96.34)"/><path class="cls-1" d="M2316.94,3962a11.54,11.54,0,0,0-12.17,9.73c0-.33,0-.67,0-1a11.54,11.54,0,0,1,23,1.53c0,.34-.06.68-.11,1A11.53,11.53,0,0,0,2316.94,3962Z" transform="translate(-378.5 -96.34)"/><circle class="cls-3" cx="2281.22" cy="3952.31" r="10.32" transform="translate(-2416.52 2383.26) rotate(-41.18)"/><circle cx="2281.22" cy="3952.31" r="8.79" transform="translate(-1942.8 1399) rotate(-27.43)"/><path class="cls-1" d="M2281.71,3944.94a8.81,8.81,0,0,0-9.28,7.42c0-.25,0-.51,0-.77a8.79,8.79,0,1,1,17.55,1.17c0,.26-.05.52-.09.77A8.8,8.8,0,0,0,2281.71,3944.94Z" transform="translate(-378.5 -96.34)"/><circle class="cls-3" cx="2396.29" cy="3943.38" r="10.32" transform="translate(-2382.18 2456.81) rotate(-41.18)"/><path d="M2395.7,3952.16a8.79,8.79,0,1,0-8.19-9.36A8.79,8.79,0,0,0,2395.7,3952.16Z" transform="translate(-378.5 -96.34)"/><path class="cls-1" d="M2396.78,3936a8.79,8.79,0,0,0-9.28,7.42c0-.26,0-.51,0-.77a8.79,8.79,0,1,1,17.55,1.17c0,.26-.05.51-.08.77A8.79,8.79,0,0,0,2396.78,3936Z" transform="translate(-378.5 -96.34)"/><circle class="cls-3" cx="2254.55" cy="3928.36" r="10.32" transform="translate(-2407.34 2359.78) rotate(-41.18)"/><circle cx="2254.55" cy="3928.36" r="8.79" transform="translate(-1934.77 1384.03) rotate(-27.43)"/><path class="cls-1" d="M2255,3921a8.79,8.79,0,0,0-9.27,7.42,6.66,6.66,0,0,1,0-.77,8.79,8.79,0,1,1,17.55,1.17c0,.26-.05.52-.09.77A8.8,8.8,0,0,0,2255,3921Z" transform="translate(-378.5 -96.34)"/><path class="cls-3" d="M2495.73,4056.73a88.89,88.89,0,0,0,21.24-52.39,5.25,5.25,0,0,1,7.74-4.28,121.13,121.13,0,0,0,13.1,6.34c8.08,3.11,22,3,22,3s-12.75,29.65-26.73,42.8a137.94,137.94,0,0,1-29.64,20.88Z" transform="translate(-378.5 -96.34)"/><path class="cls-1" d="M2517,4004.34a88.89,88.89,0,0,1-21.24,52.39l7.69,16.33.43-.23-6-12.74A89.65,89.65,0,0,0,2513,4035a88.59,88.59,0,0,0,6.08-27.26,5.26,5.26,0,0,1,7.74-4.29,121.27,121.27,0,0,0,13.1,6.35c5.5,2.12,13.7,2.73,18.37,2.9,1-2,1.49-3.28,1.49-3.28s-13.9.13-22-3a121.13,121.13,0,0,1-13.1-6.34A5.25,5.25,0,0,0,2517,4004.34Z" transform="translate(-378.5 -96.34)"/><path class="cls-3" d="M2453.07,4103.42a89.61,89.61,0,0,0,20-21.48,88.48,88.48,0,0,0,11.54-25.44,5.26,5.26,0,0,1,8.46-2.6,123.24,123.24,0,0,0,11.52,8.9c7.27,4.7,20.9,7.42,20.9,7.42s-18.56,26.41-34.95,36.4a138.06,138.06,0,0,1-33.3,14.35Z" transform="translate(-378.5 -96.34)"/><path class="cls-1" d="M2484.61,4056.5a88.48,88.48,0,0,1-11.54,25.44,89.61,89.61,0,0,1-20,21.48l4.17,17.55.47-.13-3.25-13.7a90,90,0,0,0,20-21.48,89,89,0,0,0,11.54-25.44,5.25,5.25,0,0,1,8.45-2.6,123.24,123.24,0,0,0,11.52,8.9c5,3.2,12.85,5.48,17.39,6.62,1.35-1.82,2.13-2.92,2.13-2.92s-13.63-2.72-20.9-7.42a123.24,123.24,0,0,1-11.52-8.9A5.26,5.26,0,0,0,2484.61,4056.5Z" transform="translate(-378.5 -96.34)"/><path class="cls-3" d="M2343.27,4160.84a4,4,0,0,1,2.58-5.92,171,171,0,0,0,59.74-27.17,168.83,168.83,0,0,0,27.78-25,11.8,11.8,0,0,1,15.23-2l29.41,19.13s-33.68,30.79-71.51,40.08c-30.45,7.49-50.19,8.21-56.73,8.21a4.06,4.06,0,0,1-3.54-2.07Z" transform="translate(-378.5 -96.34)"/><path class="cls-1" d="M2433.37,4102.77a168.83,168.83,0,0,1-27.78,25,171,171,0,0,1-59.74,27.17,4,4,0,0,0-2.58,5.92l.39.7a4,4,0,0,1,2.83-2.48,169.47,169.47,0,0,0,87.52-52.15,11.79,11.79,0,0,1,15.22-2l26.34,17.13c1.59-1.35,2.44-2.13,2.44-2.13l-29.41-19.13A11.8,11.8,0,0,0,2433.37,4102.77Z" transform="translate(-378.5 -96.34)"/><path class="cls-3" d="M2221.61,4148.84a4.35,4.35,0,0,1,5.64-4,183.2,183.2,0,0,0,69.89,7.87,181.11,181.11,0,0,0,39.3-7.69,12.63,12.63,0,0,1,15.1,6.54l16.54,33.78s-47.92,9.8-87.84-2.47c-32.12-9.87-50.68-20.06-56.7-23.66a4.35,4.35,0,0,1-2.11-3.85Z" transform="translate(-378.5 -96.34)"/><path class="cls-1" d="M2336.44,4145a181.11,181.11,0,0,1-39.3,7.69,183.2,183.2,0,0,1-69.89-7.87,4.35,4.35,0,0,0-5.64,4l0,.86a4.31,4.31,0,0,1,4-.73,181.47,181.47,0,0,0,109.19.17,12.65,12.65,0,0,1,15.1,6.54l14.8,30.25c2.21-.37,3.43-.62,3.43-.62l-16.54-33.78A12.63,12.63,0,0,0,2336.44,4145Z" transform="translate(-378.5 -96.34)"/><path class="cls-3" d="M2107.92,4073.79a4.88,4.88,0,0,1,7.71-1.06,204,204,0,0,0,108.47,57.2,14.19,14.19,0,0,1,11.6,14.39l-1.2,42.22s-52.76-15.29-86-48.32c-26.78-26.59-39.91-46.41-44-53.14a4.86,4.86,0,0,1-.08-4.93Z" transform="translate(-378.5 -96.34)"/><path class="cls-1" d="M2224.1,4129.93a204,204,0,0,1-108.47-57.2,4.88,4.88,0,0,0-7.71,1.06l-.47.84a4.86,4.86,0,0,1,4.33,1.35,205.93,205.93,0,0,0,65.37,44.32,203.81,203.81,0,0,0,43.1,12.87,14.2,14.2,0,0,1,11.6,14.39l-1.08,37.8c2.38.79,3.73,1.18,3.73,1.18l1.2-42.22A14.19,14.19,0,0,0,2224.1,4129.93Z" transform="translate(-378.5 -96.34)"/><path class="cls-2" d="M2075.9,4038.07l78.41-99.92c-.35-.27-34.44-27.29-65.14-74.18-38-58-53.84-119.28-47.09-182,9.43-87.58,62.08-165.7,138.4-212.22a118,118,0,0,0,52.85-131.55l-6.8-25.1a434.09,434.09,0,0,0-116.93,51,426.7,426.7,0,0,0-94.57,80.39A413.18,413.18,0,0,0,1948.45,3548a398,398,0,0,0-32.66,120.35,384.93,384.93,0,0,0,13.77,151.29c11.63,39.3,29.58,77.63,53.34,113.92C2023.35,3995.32,2067.46,4031.46,2075.9,4038.07Z" transform="translate(-378.5 -96.34)"/><path class="cls-3" d="M1891.48,3668.34A398.25,398.25,0,0,1,1924.14,3548a413.18,413.18,0,0,1,66.58-103.53,426.7,426.7,0,0,1,94.57-80.39,434.09,434.09,0,0,1,116.93-51l4.1,15.14a433.18,433.18,0,0,0-71.16,35.87,426.7,426.7,0,0,0-94.57,80.39A413.18,413.18,0,0,0,1974,3548a398,398,0,0,0-32.66,120.35,384.93,384.93,0,0,0,13.77,151.29c11.63,39.3,29.58,77.63,53.34,113.92a487.43,487.43,0,0,0,63.75,78.24l-20.62,26.28c-8.44-6.61-52.55-42.75-93-104.52-23.76-36.29-41.71-74.62-53.34-113.92A385.12,385.12,0,0,1,1891.48,3668.34Z" transform="translate(-378.5 -96.34)"/><path class="cls-1" d="M2064,4011.79a488,488,0,0,1-63.75-78.24c-23.76-36.29-41.71-74.62-53.34-113.92a385.12,385.12,0,0,1-13.77-151.29A398.25,398.25,0,0,1,1965.83,3548a413.46,413.46,0,0,1,66.58-103.53,426.7,426.7,0,0,1,94.57-80.39,432.88,432.88,0,0,1,71.17-35.87l-3.5-12.91q4-1.15,7.95-2.23l4.1,15.14a433.67,433.67,0,0,0-71.17,35.87,426.65,426.65,0,0,0-94.56,80.39A413.49,413.49,0,0,0,1974.38,3548a398.23,398.23,0,0,0-32.65,120.35,385.11,385.11,0,0,0,13.76,151.29c11.64,39.3,29.58,77.63,53.35,113.92a487.43,487.43,0,0,0,63.75,78.24L2052,4038.07c-1.13-.88-2.9-2.31-5.22-4.24Z" transform="translate(-378.5 -96.34)"/><path d="M2093.17,3954.57l0,0a19,19,0,0,0,1.68-25.7,387.66,387.66,0,0,1-49.08-79.11c-32.59-70.12-40.76-141.64-24.28-212.56,29.46-126.85,124.94-192.92,166.73-216.35a19,19,0,0,0,7.84-24.69h0a19,19,0,0,0-26.47-8.42c-46.82,26.37-152.4,99.94-185.14,240.86a350.46,350.46,0,0,0-5.24,132,386.46,386.46,0,0,0,32.09,105.22,424.2,424.2,0,0,0,54,87A19,19,0,0,0,2093.17,3954.57Z" transform="translate(-378.5 -96.34)"/><circle class="cls-3" cx="2084.95" cy="3966.25" r="128.3" transform="translate(-2572.4 2539.63) rotate(-45)"/><circle class="cls-2" cx="1706.45" cy="3869.91" r="116.59"/><circle cx="2084.76" cy="3966.25" r="110.74" transform="translate(-2572.45 2539.49) rotate(-45)"/><path class="cls-3" d="M2095.53,4050h-22l3.57,18.38a2,2,0,0,0,2,1.61h11a2,2,0,0,0,2-1.61Z" transform="translate(-378.5 -96.34)"/><path class="cls-3" d="M2073.6,4050l-21.26-5.7L2051,4063a2,2,0,0,0,1.47,2.06l10.59,2.84a2,2,0,0,0,2.31-1Z" transform="translate(-378.5 -96.34)"/><path class="cls-3" d="M2052.41,4044.3l-19.06-11-6.1,17.71a2,2,0,0,0,.89,2.37l9.49,5.48a2,2,0,0,0,2.5-.42Z" transform="translate(-378.5 -96.34)"/><path class="cls-3" d="M2033.41,4033.34l-15.56-15.56-10.48,15.52a2,2,0,0,0,.25,2.52l7.75,7.75a2,2,0,0,0,2.52.25Z" transform="translate(-378.5 -96.34)"/><path class="cls-3" d="M2017.9,4017.84l-11-19.06-14.13,12.28a2,2,0,0,0-.42,2.5l5.48,9.49a2,2,0,0,0,2.37.89Z" transform="translate(-378.5 -96.34)"/><path class="cls-3" d="M2006.92,3998.85l-5.7-21.26-16.83,8.21a2,2,0,0,0-1.05,2.3l2.84,10.59a2,2,0,0,0,2.06,1.47Z" transform="translate(-378.5 -96.34)"/><path class="cls-3" d="M2001.23,3977.67v-22l-18.38,3.57a2,2,0,0,0-1.61,1.95v11a2,2,0,0,0,1.61,1.95Z" transform="translate(-378.5 -96.34)"/><path class="cls-3" d="M2001.22,3955.74l5.7-21.27-18.68-1.31a2,2,0,0,0-2.06,1.47l-2.84,10.6a2,2,0,0,0,1.05,2.3Z" transform="translate(-378.5 -96.34)"/><path class="cls-3" d="M2006.89,3934.55l11-19.07-17.71-6.1a2,2,0,0,0-2.37.89l-5.48,9.5a2,2,0,0,0,.42,2.5Z" transform="translate(-378.5 -96.34)"/><path class="cls-3" d="M2017.85,3915.55l15.56-15.57-15.52-10.47a2,2,0,0,0-2.52.24l-7.75,7.75a2,2,0,0,0-.25,2.53Z" transform="translate(-378.5 -96.34)"/><path class="cls-3" d="M2033.35,3900l19.06-11-12.28-14.14a2,2,0,0,0-2.5-.42l-9.49,5.48a2,2,0,0,0-.89,2.38Z" transform="translate(-378.5 -96.34)"/><path class="cls-3" d="M2052.34,3889.06l21.26-5.7-8.2-16.83a2,2,0,0,0-2.31-1.05l-10.59,2.83a2,2,0,0,0-1.47,2.07Z" transform="translate(-378.5 -96.34)"/><path class="cls-3" d="M2073.52,3883.37h22L2092,3865a2,2,0,0,0-2-1.61h-11a2,2,0,0,0-2,1.61Z" transform="translate(-378.5 -96.34)"/><path class="cls-3" d="M2095.46,3883.36l21.26,5.7,1.31-18.68a2,2,0,0,0-1.47-2.07l-10.59-2.83a2,2,0,0,0-2.31,1.05Z" transform="translate(-378.5 -96.34)"/><path class="cls-3" d="M2116.64,3889l19.07,11,6.1-17.7a2,2,0,0,0-.89-2.38l-9.5-5.48a2,2,0,0,0-2.49.42Z" transform="translate(-378.5 -96.34)"/><path class="cls-3" d="M2135.64,3900l15.57,15.57,10.47-15.52a2,2,0,0,0-.24-2.53l-7.75-7.75a2,2,0,0,0-2.52-.24Z" transform="translate(-378.5 -96.34)"/><path class="cls-3" d="M2151.16,3915.48l11,19.07,14.13-12.28a2,2,0,0,0,.42-2.5l-5.48-9.5a2,2,0,0,0-2.38-.89Z" transform="translate(-378.5 -96.34)"/><path class="cls-3" d="M2162.14,3934.47l5.69,21.27,16.83-8.21a2,2,0,0,0,1.05-2.3l-2.83-10.6a2,2,0,0,0-2.07-1.47Z" transform="translate(-378.5 -96.34)"/><path class="cls-3" d="M2167.82,3955.66v22l18.38-3.57a2,2,0,0,0,1.62-1.95v-11a2,2,0,0,0-1.62-1.95Z" transform="translate(-378.5 -96.34)"/><path class="cls-3" d="M2167.83,3977.59l-5.69,21.26,18.67,1.31a2,2,0,0,0,2.07-1.47l2.83-10.59a2,2,0,0,0-1.05-2.3Z" transform="translate(-378.5 -96.34)"/><path class="cls-3" d="M2162.17,3998.78l-11,19.06,17.7,6.1a2,2,0,0,0,2.38-.89l5.48-9.49a2,2,0,0,0-.42-2.5Z" transform="translate(-378.5 -96.34)"/><path class="cls-3" d="M2151.21,4017.78l-15.57,15.56,15.53,10.48a2,2,0,0,0,2.52-.25l7.75-7.75a2,2,0,0,0,.24-2.52Z" transform="translate(-378.5 -96.34)"/><path class="cls-3" d="M2135.71,4033.29l-19.07,11,12.29,14.13a2,2,0,0,0,2.49.42l9.5-5.48a2,2,0,0,0,.89-2.37Z" transform="translate(-378.5 -96.34)"/><path class="cls-3" d="M2116.72,4044.27l-21.26,5.7,8.2,16.83a2,2,0,0,0,2.31,1l10.59-2.84A2,2,0,0,0,2118,4063Z" transform="translate(-378.5 -96.34)"/><circle class="cls-1" cx="2084.53" cy="3966.66" r="85.72" transform="translate(-2572.81 2539.45) rotate(-45)"/><circle class="cls-2" cx="1706.03" cy="3870.32" r="82.36"/><circle class="cls-1" cx="1706.03" cy="3870.32" r="78.93"/><circle class="cls-6" cx="2084.53" cy="3966.66" r="76.72" transform="translate(-2572.81 2539.45) rotate(-45)"/><circle class="cls-6" cx="2084.53" cy="3966.66" r="76.72" transform="translate(-2489.71 5443.68) rotate(-82.83)"/><circle class="cls-6" cx="2084.53" cy="3966.66" r="76.72" transform="translate(-857.09 194.72) rotate(-7.17)"/><circle class="cls-6" cx="2084.53" cy="3966.66" r="76.72" transform="translate(-2572.81 2539.45) rotate(-45)"/><circle class="cls-6" cx="2084.53" cy="3966.66" r="76.72" transform="translate(-2572.81 2539.45) rotate(-45)"/><circle class="cls-3" cx="2084.53" cy="3966.66" r="76.72" transform="translate(-2572.81 2539.45) rotate(-45)"/><path class="cls-1" d="M2109.38,4017l-15.45-26.77a10.86,10.86,0,0,0-18.8,0L2059.68,4017a10.84,10.84,0,0,0,9.4,16.27H2100A10.85,10.85,0,0,0,2109.38,4017Z" transform="translate(-378.5 -96.34)"/><path class="cls-1" d="M2053.35,4013.36l15.45-26.76a10.86,10.86,0,0,0-9.4-16.28h-30.9a10.85,10.85,0,0,0-9.4,16.28l15.45,26.76A10.86,10.86,0,0,0,2053.35,4013.36Z" transform="translate(-378.5 -96.34)"/><path class="cls-1" d="M2028.5,3963h30.9a10.86,10.86,0,0,0,9.4-16.28L2053.35,3920a10.85,10.85,0,0,0-18.8,0l-15.45,26.76A10.85,10.85,0,0,0,2028.5,3963Z" transform="translate(-378.5 -96.34)"/><path class="cls-1" d="M2059.68,3916.31l15.45,26.76a10.85,10.85,0,0,0,18.8,0l15.45-26.76A10.86,10.86,0,0,0,2100,3900h-30.9A10.85,10.85,0,0,0,2059.68,3916.31Z" transform="translate(-378.5 -96.34)"/><path class="cls-1" d="M2115.71,3920l-15.45,26.76a10.85,10.85,0,0,0,9.4,16.28h30.9a10.86,10.86,0,0,0,9.4-16.28L2134.51,3920A10.85,10.85,0,0,0,2115.71,3920Z" transform="translate(-378.5 -96.34)"/><path class="cls-1" d="M2140.56,3970.32h-30.9a10.85,10.85,0,0,0-9.4,16.28l15.45,26.76a10.86,10.86,0,0,0,18.8,0L2150,3986.6A10.85,10.85,0,0,0,2140.56,3970.32Z" transform="translate(-378.5 -96.34)"/><path d="M2106.55,4015.6l-13.2-22.85a10.19,10.19,0,0,0-17.65,0l-13.19,22.85a10.2,10.2,0,0,0,8.83,15.29h26.38A10.2,10.2,0,0,0,2106.55,4015.6Z" transform="translate(-378.5 -96.34)"/><path d="M2053.16,4010.2l13.19-22.85a10.2,10.2,0,0,0-8.83-15.29h-26.38a10.2,10.2,0,0,0-8.83,15.29l13.19,22.85A10.2,10.2,0,0,0,2053.16,4010.2Z" transform="translate(-378.5 -96.34)"/><path d="M2031.14,3961.26h26.38a10.19,10.19,0,0,0,8.83-15.28l-13.19-22.85a10.19,10.19,0,0,0-17.66,0L2022.31,3946A10.19,10.19,0,0,0,2031.14,3961.26Z" transform="translate(-378.5 -96.34)"/><path d="M2062.51,3917.73l13.19,22.85a10.19,10.19,0,0,0,17.65,0l13.2-22.85a10.2,10.2,0,0,0-8.83-15.29h-26.38A10.19,10.19,0,0,0,2062.51,3917.73Z" transform="translate(-378.5 -96.34)"/><path d="M2115.9,3923.13,2102.71,3946a10.18,10.18,0,0,0,8.82,15.28h26.39a10.18,10.18,0,0,0,8.82-15.28l-13.19-22.85A10.19,10.19,0,0,0,2115.9,3923.13Z" transform="translate(-378.5 -96.34)"/><path d="M2137.92,3972.06h-26.39a10.19,10.19,0,0,0-8.82,15.29l13.19,22.85a10.19,10.19,0,0,0,17.65,0l13.19-22.85A10.19,10.19,0,0,0,2137.92,3972.06Z" transform="translate(-378.5 -96.34)"/><circle class="cls-1" cx="1706.03" cy="3870.32" r="32.21"/><circle class="cls-7" cx="2084.53" cy="3966.66" r="31.25" transform="translate(-1234.09 488.7) rotate(-13.28)"/><circle class="cls-7" cx="1706.03" cy="3870.32" r="31.25"/><circle class="cls-7" cx="2084.53" cy="3966.66" r="31.25" transform="translate(-2572.81 2539.45) rotate(-45)"/><circle class="cls-7" cx="1706.03" cy="3870.32" r="31.25"/><circle class="cls-7" cx="2084.53" cy="3966.66" r="31.25" transform="translate(-1234.09 488.7) rotate(-13.28)"/><circle class="cls-7" cx="1706.03" cy="3870.32" r="31.25"/><circle class="cls-7" cx="2084.53" cy="3966.66" r="31.25" transform="translate(-2572.81 2539.45) rotate(-45)"/><circle class="cls-3" cx="1706.03" cy="3870.32" r="31.25"/><circle class="cls-1" cx="1706.03" cy="3870.32" r="14.35"/><circle cx="1706.03" cy="3870.32" r="13.3"/><circle class="cls-2" cx="1706.03" cy="3870.32" r="10.86"/><path class="cls-3" d="M2088.53,3962.66a5.66,5.66,0,1,0,0,8A5.66,5.66,0,0,0,2088.53,3962.66Z" transform="translate(-378.5 -96.34)"/><circle cx="1706.03" cy="3892.54" r="4.98"/><path d="M2072.34,3985.9a5,5,0,1,0-7,0A5,5,0,0,0,2072.34,3985.9Z" transform="translate(-378.5 -96.34)"/><circle cx="1683.81" cy="3870.32" r="4.98"/><path d="M2065.3,3954.48a5,5,0,1,0,0-7.05A5,5,0,0,0,2065.3,3954.48Z" transform="translate(-378.5 -96.34)"/><circle cx="1706.03" cy="3848.11" r="4.98"/><path d="M2096.71,3947.43a5,5,0,1,0,7.05,0A5,5,0,0,0,2096.71,3947.43Z" transform="translate(-378.5 -96.34)"/><circle cx="1728.25" cy="3870.32" r="4.98"/><path d="M2103.76,3978.85a5,5,0,1,0,0,7.05A5,5,0,0,0,2103.76,3978.85Z" transform="translate(-378.5 -96.34)"/><circle class="cls-5" cx="1937.61" cy="3672.54" r="12.68" transform="translate(-2348.32 4981.14) rotate(-81.96)"/><path class="cls-1" d="M1929.06,3674.56a9.12,9.12,0,1,0,6.78-11A9.12,9.12,0,0,0,1929.06,3674.56Z" transform="translate(-378.5 -96.34)"/><path class="cls-2" d="M1944.66,3670.88a9.12,9.12,0,0,0-9.88-7,9.32,9.32,0,0,1,1.06-.33,9.12,9.12,0,1,1,4.19,17.76,8.44,8.44,0,0,1-1.1.19A9.12,9.12,0,0,0,1944.66,3670.88Z" transform="translate(-378.5 -96.34)"/><circle class="cls-5" cx="1974.02" cy="3535.76" r="12.68" transform="translate(-2372.6 4247.12) rotate(-72.33)"/><circle class="cls-1" cx="1974.34" cy="3535.68" r="9.12" transform="translate(-2449.7 3258.75) rotate(-58.26)"/><path class="cls-2" d="M1981.06,3534.1a9.12,9.12,0,0,0-9.88-7,9.48,9.48,0,0,1,1.07-.33,9.12,9.12,0,1,1,4.18,17.76,8.26,8.26,0,0,1-1.09.18A9.11,9.11,0,0,0,1981.06,3534.1Z" transform="translate(-378.5 -96.34)"/><circle class="cls-5" cx="2061.13" cy="3418.96" r="12.68" transform="translate(-784.57 184.07) rotate(-7.09)"/><circle class="cls-1" cx="2061.46" cy="3418.88" r="9.12" transform="translate(-996.52 363.02) rotate(-11.07)"/><path class="cls-2" d="M2068.18,3417.3a9.12,9.12,0,0,0-9.88-7,7.66,7.66,0,0,1,1.06-.33,9.12,9.12,0,1,1,4.19,17.76,8.4,8.4,0,0,1-1.1.18A9.12,9.12,0,0,0,2068.18,3417.3Z" transform="translate(-378.5 -96.34)"/><circle class="cls-5" cx="1947.06" cy="3807.51" r="12.68" transform="translate(-2473.83 5106.6) rotate(-81.96)"/><path class="cls-1" d="M1938.51,3809.53a9.12,9.12,0,1,0,6.78-11A9.13,9.13,0,0,0,1938.51,3809.53Z" transform="translate(-378.5 -96.34)"/><path class="cls-2" d="M1954.11,3805.85a9.12,9.12,0,0,0-9.88-7,9.48,9.48,0,0,1,1.07-.33,9.13,9.13,0,0,1,4.18,17.77,10.09,10.09,0,0,1-1.1.18A9.12,9.12,0,0,0,1954.11,3805.85Z" transform="translate(-378.5 -96.34)"/><polygon class="cls-4" points="2142.37 2010.6 2113.03 1978.98 2171.69 1935.25 2190.36 1955.38 2142.37 2010.6"/><polygon class="cls-4" points="2232.11 2116.13 2205.32 2082.32 2267.19 2043.28 2284.24 2064.79 2232.11 2116.13"/><polygon class="cls-4" points="2314.09 2256.02 2296.45 2216.66 2366.04 2194.07 2377.26 2219.13 2314.09 2256.02"/><polygon class="cls-4" points="2360.05 2385.22 2351.49 2342.95 2424.34 2336.21 2429.79 2363.12 2360.05 2385.22"/><polygon class="cls-4" points="2350.37 2521.36 2350.51 2478.9 2422.09 2486.86 2421.99 2513.88 2350.37 2521.36"/><polygon class="cls-4" points="2352.67 2666.12 2365.9 2625.07 2432.73 2654.85 2424.3 2680.98 2352.67 2666.12"/><polygon class="cls-4" points="2300.43 2808.56 2324.38 2772.69 2380.52 2819.61 2365.28 2842.43 2300.43 2808.56"/><path d="M2456.14,3170.38c-151,277.81-598.75,349.76-773.47,57.22-106.92-179-44.42-447.75,171.48-507,195.57-53.71,419.28,131.5,309.66,334-26.88,49.65-75,85.4-131.18,94.63-116.07,19.1-235.73-90.33-172.53-209.49-91,188.53,203.91,269.54,286,108.11,65.83-129.39-27.33-275.22-162.68-297.63-213.67-35.38-342.56,184.34-284.7,368.39,36.15,115,134,191.5,248.88,215.67,171.94,36.17,349-52.4,425.7-208.59Z" transform="translate(-378.5 -96.34)"/><path class="cls-2" d="M2161.2,2909.44c-10.41,29.72-42.12,93-127.26,111.69-112.56,24.76-173.84-81.43-173.84-81.43-91,188.53,203.91,269.54,286,108.11C2169.62,3001.66,2172.87,2953.43,2161.2,2909.44Z" transform="translate(-378.5 -96.34)"/><circle class="cls-3" cx="1956.12" cy="3071.04" r="36.39" transform="translate(-2005.13 3623.99) rotate(-67.78)"/><circle cx="1956.12" cy="3071.04" r="31" transform="translate(-1680.25 4600.72) rotate(-84.03)"/><path class="cls-1" d="M1954.39,3045.07a31,31,0,0,1,32.69,26.16c0-.9,0-1.8-.06-2.72a31,31,0,1,0-61.86,4.13c.06.92.16,1.82.3,2.71A31,31,0,0,1,1954.39,3045.07Z" transform="translate(-378.5 -96.34)"/><circle class="cls-3" cx="2030.89" cy="3076.02" r="23.37" transform="translate(-1999.96 2482.91) rotate(-48.82)"/><circle cx="2030.89" cy="3076.02" r="19.91" transform="matrix(0.66, -0.75, 0.75, 0.66, -1999.96, 2482.91)"/><path class="cls-1" d="M2029.77,3059.34a19.93,19.93,0,0,1,21,16.81c0-.58,0-1.16,0-1.75a19.91,19.91,0,0,0-39.74,2.65c0,.59.1,1.17.19,1.74A19.92,19.92,0,0,1,2029.77,3059.34Z" transform="translate(-378.5 -96.34)"/><circle class="cls-3" cx="1712.96" cy="2946.29" r="17.83"/><circle cx="2091.45" cy="3042.63" r="15.19" transform="translate(-715.38 165.11) rotate(-6.62)"/><path class="cls-1" d="M2090.6,3029.91a15.18,15.18,0,0,1,16,12.82c0-.45,0-.89,0-1.34a15.18,15.18,0,1,0-30.3,2c0,.44.08.89.14,1.32A15.19,15.19,0,0,1,2090.6,3029.91Z" transform="translate(-378.5 -96.34)"/><circle class="cls-3" cx="1514.25" cy="2930.87" r="17.83"/><circle cx="1892.75" cy="3027.22" r="15.19" transform="translate(-770.24 187.22) rotate(-7.77)"/><path class="cls-1" d="M1891.9,3014.5a15.18,15.18,0,0,1,16,12.81c0-.44,0-.88,0-1.33a15.18,15.18,0,0,0-30.3,2c0,.45.08.89.15,1.33A15.18,15.18,0,0,1,1891.9,3014.5Z" transform="translate(-378.5 -96.34)"/><circle class="cls-3" cx="2137.5" cy="3001.26" r="17.83" transform="translate(-1907.28 2537.62) rotate(-48.82)"/><path d="M2138.51,3016.42a15.19,15.19,0,1,1,14.14-16.17A15.19,15.19,0,0,1,2138.51,3016.42Z" transform="translate(-378.5 -96.34)"/><path class="cls-1" d="M2136.65,2988.55a15.18,15.18,0,0,1,16,12.81c0-.44,0-.88,0-1.33a15.18,15.18,0,0,0-30.3,2c0,.45.08.89.15,1.33A15.18,15.18,0,0,1,2136.65,2988.55Z" transform="translate(-378.5 -96.34)"/><path class="cls-3" d="M1721,3223a155,155,0,0,1-26.18-43.39,153.3,153.3,0,0,1-10.49-47.08,9.08,9.08,0,0,0-13.36-7.4,210.92,210.92,0,0,1-22.62,11c-14,5.37-38,5.14-38,5.14s22,51.2,46.15,73.91a238.55,238.55,0,0,0,51.19,36Z" transform="translate(-378.5 -96.34)"/><path class="cls-1" d="M1684.35,3132.48a153.3,153.3,0,0,0,10.49,47.08A155,155,0,0,0,1721,3223l-13.27,28.19-.75-.38,10.36-22a155.19,155.19,0,0,1-26.18-43.4,153.24,153.24,0,0,1-10.49-47.07,9.07,9.07,0,0,0-13.36-7.4,212.7,212.7,0,0,1-22.62,10.95c-9.51,3.66-23.67,4.72-31.74,5-1.64-3.54-2.56-5.67-2.56-5.67s24,.23,38-5.14a210.92,210.92,0,0,0,22.62-11A9.08,9.08,0,0,1,1684.35,3132.48Z" transform="translate(-378.5 -96.34)"/><path class="cls-3" d="M1794.69,3303.56a153.4,153.4,0,0,1-54.47-81,9.07,9.07,0,0,0-14.6-4.49,211.3,211.3,0,0,1-19.89,15.36c-12.55,8.12-36.09,12.83-36.09,12.83s32,45.59,60.35,62.85a237.83,237.83,0,0,0,57.5,24.77Z" transform="translate(-378.5 -96.34)"/><path class="cls-1" d="M1740.22,3222.55a153.4,153.4,0,0,0,54.47,81l-7.2,30.31-.81-.22,5.62-23.66a153.5,153.5,0,0,1-54.47-81,9.08,9.08,0,0,0-14.6-4.5,213.15,213.15,0,0,1-19.89,15.37c-8.55,5.53-22.19,9.47-30,11.42-2.33-3.13-3.67-5-3.67-5s23.54-4.71,36.09-12.83a211.3,211.3,0,0,0,19.89-15.36A9.07,9.07,0,0,1,1740.22,3222.55Z" transform="translate(-378.5 -96.34)"/><path class="cls-3" d="M1984.3,3402.73a7,7,0,0,0-4.47-10.23,295.2,295.2,0,0,1-103.14-46.91,291.92,291.92,0,0,1-48-43.15,20.36,20.36,0,0,0-26.29-3.43l-50.8,33s58.16,53.18,123.49,69.22c52.58,12.92,86.67,14.18,98,14.18a7,7,0,0,0,6.1-3.59Z" transform="translate(-378.5 -96.34)"/><path class="cls-1" d="M1828.71,3302.44a291.92,291.92,0,0,0,48,43.15,295.2,295.2,0,0,0,103.14,46.91,7,7,0,0,1,4.47,10.23l-.68,1.2a6.9,6.9,0,0,0-4.88-4.28,295.48,295.48,0,0,1-103.15-46.92,291.91,291.91,0,0,1-48-43.14,20.37,20.37,0,0,0-26.29-3.44l-45.47,29.58c-2.75-2.34-4.23-3.69-4.23-3.69l50.8-33A20.36,20.36,0,0,1,1828.71,3302.44Z" transform="translate(-378.5 -96.34)"/><path class="cls-3" d="M2194.38,3382a7.5,7.5,0,0,0-9.74-6.95A316.49,316.49,0,0,1,2064,3388.64a313.18,313.18,0,0,1-67.87-13.29,21.83,21.83,0,0,0-26.08,11.3L1941.46,3445s82.75,16.91,151.67-4.26c55.47-17,87.52-34.64,97.92-40.86a7.48,7.48,0,0,0,3.64-6.65Z" transform="translate(-378.5 -96.34)"/><path class="cls-1" d="M1996.09,3375.35a313.18,313.18,0,0,0,67.87,13.29,316.49,316.49,0,0,0,120.68-13.59,7.5,7.5,0,0,1,9.74,6.95l0,1.48a7.43,7.43,0,0,0-6.85-1.26,313.46,313.46,0,0,1-188.56.3,21.82,21.82,0,0,0-26.07,11.3L1947.38,3446c-3.81-.63-5.92-1.06-5.92-1.06l28.55-58.33A21.83,21.83,0,0,1,1996.09,3375.35Z" transform="translate(-378.5 -96.34)"/><path class="cls-3" d="M2390.7,3252.41a8.42,8.42,0,0,0-13.31-1.83,351.92,351.92,0,0,1-187.31,98.76,24.52,24.52,0,0,0-20,24.85l2.08,72.91s91.1-26.4,148.57-83.44c46.25-45.91,68.92-80.14,76-91.75a8.41,8.41,0,0,0,.15-8.52Z" transform="translate(-378.5 -96.34)"/><path class="cls-1" d="M2190.08,3349.34a351.92,351.92,0,0,0,187.31-98.76,8.42,8.42,0,0,1,13.31,1.83l.81,1.45a8.35,8.35,0,0,0-7.47,2.32A352,352,0,0,1,2196.73,3355a24.5,24.5,0,0,0-20,24.85l1.85,65.27c-4.11,1.35-6.43,2-6.43,2l-2.08-72.91A24.52,24.52,0,0,1,2190.08,3349.34Z" transform="translate(-378.5 -96.34)"/><path class="cls-2" d="M2446,3190.73,2310.6,3018.17c.59-.46,59.47-47.11,112.49-128.09,65.61-100.21,93-206,81.31-314.34-16.28-151.24-107.2-286.14-239-366.47-77.5-47.24-115-139.56-91.26-227.17l11.74-43.35a750.2,750.2,0,0,1,201.92,88.1,736.83,736.83,0,0,1,163.3,138.81,713.93,713.93,0,0,1,115,178.78,687.37,687.37,0,0,1,56.38,207.83,664.79,664.79,0,0,1-23.77,261.25c-20.08,67.86-51.08,134-92.11,196.71C2536.75,3116.9,2460.57,3179.3,2446,3190.73Z" transform="translate(-378.5 -96.34)"/><path class="cls-3" d="M2764.45,2552.27a687.39,687.39,0,0,0-56.39-207.83,713.89,713.89,0,0,0-115-178.78,737.05,737.05,0,0,0-163.3-138.81,750.33,750.33,0,0,0-201.92-88.1l-7.09,26.16a747.66,747.66,0,0,1,122.89,61.94A736.83,736.83,0,0,1,2507,2165.66a713.93,713.93,0,0,1,115,178.78,687.68,687.68,0,0,1,56.39,207.83,665,665,0,0,1-23.77,261.25c-20.09,67.86-51.08,134-92.12,196.71a842.14,842.14,0,0,1-110.08,135.11l35.61,45.39c14.56-11.43,90.74-73.83,160.59-180.5,41-62.67,72-128.85,92.11-196.71A665,665,0,0,0,2764.45,2552.27Z" transform="translate(-378.5 -96.34)"/><path class="cls-1" d="M2466.49,3145.34a842.14,842.14,0,0,0,110.08-135.11c41-62.67,72-128.85,92.12-196.71a665,665,0,0,0,23.77-261.25,687.68,687.68,0,0,0-56.39-207.83,713.93,713.93,0,0,0-115-178.78,736.83,736.83,0,0,0-163.3-138.81,747.27,747.27,0,0,0-122.89-61.94l6-22.3q-6.84-2-13.73-3.86l-7.08,26.16A748.06,748.06,0,0,1,2343,2026.85a736.83,736.83,0,0,1,163.3,138.81,713.93,713.93,0,0,1,115,178.78,687.68,687.68,0,0,1,56.39,207.83,665.16,665.16,0,0,1-23.77,261.25c-20.09,67.86-51.08,134-92.12,196.71a842.14,842.14,0,0,1-110.08,135.11l35.61,45.39c2-1.53,5-4,9-7.33Z" transform="translate(-378.5 -96.34)"/><path d="M2416.18,3046.53l-.06-.06a32.79,32.79,0,0,1-2.89-44.37A669.84,669.84,0,0,0,2498,2865.49c56.27-121.08,70.38-244.58,41.93-367C2489,2279.39,2324.15,2165.31,2252,2124.85a32.79,32.79,0,0,1-13.54-42.64h0a32.8,32.8,0,0,1,45.71-14.54c80.84,45.53,263.17,172.58,319.7,415.91a605.23,605.23,0,0,1,9,227.88c-9.23,61.32-27.87,122.46-55.41,181.7-32.15,69.18-69.25,120.7-93.22,150.28A32.79,32.79,0,0,1,2416.18,3046.53Z" transform="translate(-378.5 -96.34)"/><circle class="cls-3" cx="2051.88" cy="2970.37" r="221.56"/><circle class="cls-2" cx="2430.37" cy="3066.71" r="201.34" transform="translate(-1835.15 2520.41) rotate(-45)"/><circle cx="2052.2" cy="2970.37" r="191.23"/><path class="cls-3" d="M2412.09,3211.25h38l-6.16,31.74a3.43,3.43,0,0,1-3.38,2.78h-18.93a3.42,3.42,0,0,1-3.37-2.78Z" transform="translate(-378.5 -96.34)"/><path class="cls-3" d="M2450,3211.27l36.71-9.84,2.26,32.25a3.44,3.44,0,0,1-2.54,3.57l-18.28,4.9a3.45,3.45,0,0,1-4-1.82Z" transform="translate(-378.5 -96.34)"/><path class="cls-3" d="M2486.56,3201.48l32.91-19,10.54,30.57a3.44,3.44,0,0,1-1.53,4.09l-16.4,9.47a3.45,3.45,0,0,1-4.32-.72Z" transform="translate(-378.5 -96.34)"/><path class="cls-3" d="M2519.36,3182.56l26.88-26.88,18.09,26.81a3.44,3.44,0,0,1-.42,4.35l-13.39,13.39a3.44,3.44,0,0,1-4.35.42Z" transform="translate(-378.5 -96.34)"/><path class="cls-3" d="M2546.16,3155.79l19-32.92,24.41,21.21a3.44,3.44,0,0,1,.72,4.32l-9.46,16.39a3.43,3.43,0,0,1-4.1,1.53Z" transform="translate(-378.5 -96.34)"/><path class="cls-3" d="M2565.11,3123l9.84-36.72,29.06,14.17a3.44,3.44,0,0,1,1.82,4l-4.9,18.29a3.44,3.44,0,0,1-3.56,2.54Z" transform="translate(-378.5 -96.34)"/><path class="cls-3" d="M2574.93,3086.42v-38l31.74,6.16a3.45,3.45,0,0,1,2.79,3.38v18.93a3.45,3.45,0,0,1-2.79,3.38Z" transform="translate(-378.5 -96.34)"/><path class="cls-3" d="M2575,3048.55l-9.84-36.72,32.26-2.26a3.44,3.44,0,0,1,3.56,2.54l4.9,18.29a3.44,3.44,0,0,1-1.82,4Z" transform="translate(-378.5 -96.34)"/><path class="cls-3" d="M2565.16,3012l-19-32.92,30.57-10.53a3.43,3.43,0,0,1,4.1,1.53l9.46,16.39a3.44,3.44,0,0,1-.72,4.32Z" transform="translate(-378.5 -96.34)"/><path class="cls-3" d="M2546.24,2979.15l-26.88-26.88,26.81-18.09a3.44,3.44,0,0,1,4.35.42l13.39,13.39a3.45,3.45,0,0,1,.42,4.36Z" transform="translate(-378.5 -96.34)"/><path class="cls-3" d="M2519.47,2952.35l-32.91-19,21.2-24.41a3.45,3.45,0,0,1,4.32-.72l16.4,9.47a3.44,3.44,0,0,1,1.53,4.09Z" transform="translate(-378.5 -96.34)"/><path class="cls-3" d="M2486.68,2933.4l-36.71-9.84,14.17-29.06a3.45,3.45,0,0,1,4-1.82l18.28,4.9a3.44,3.44,0,0,1,2.54,3.57Z" transform="translate(-378.5 -96.34)"/><path class="cls-3" d="M2450.1,2923.58h-38l6.17-31.74a3.42,3.42,0,0,1,3.37-2.78h18.93a3.43,3.43,0,0,1,3.38,2.78Z" transform="translate(-378.5 -96.34)"/><path class="cls-3" d="M2412.23,2923.56l-36.72,9.84-2.26-32.25a3.45,3.45,0,0,1,2.54-3.57l18.29-4.9a3.45,3.45,0,0,1,4,1.82Z" transform="translate(-378.5 -96.34)"/><path class="cls-3" d="M2375.64,2933.35l-32.92,19-10.53-30.57a3.42,3.42,0,0,1,1.53-4.09l16.4-9.47a3.44,3.44,0,0,1,4.31.72Z" transform="translate(-378.5 -96.34)"/><path class="cls-3" d="M2342.83,2952.27,2316,2979.15l-18.08-26.8a3.45,3.45,0,0,1,.41-4.36l13.39-13.39a3.45,3.45,0,0,1,4.36-.42Z" transform="translate(-378.5 -96.34)"/><path class="cls-3" d="M2316,2979,2297,3012l-24.41-21.21a3.45,3.45,0,0,1-.72-4.32l9.47-16.39a3.43,3.43,0,0,1,4.1-1.53Z" transform="translate(-378.5 -96.34)"/><path class="cls-3" d="M2297.08,3011.83l-9.83,36.72-29.07-14.17a3.43,3.43,0,0,1-1.81-4l4.9-18.29a3.43,3.43,0,0,1,3.56-2.54Z" transform="translate(-378.5 -96.34)"/><path class="cls-3" d="M2287.26,3048.41v38l-31.74-6.16a3.45,3.45,0,0,1-2.78-3.38V3058a3.45,3.45,0,0,1,2.78-3.38Z" transform="translate(-378.5 -96.34)"/><path class="cls-3" d="M2287.25,3086.28l9.83,36.72-32.25,2.26a3.43,3.43,0,0,1-3.56-2.54l-4.9-18.29a3.43,3.43,0,0,1,1.81-4Z" transform="translate(-378.5 -96.34)"/><path class="cls-3" d="M2297,3122.87l19,32.92-30.57,10.53a3.43,3.43,0,0,1-4.1-1.53l-9.47-16.39a3.45,3.45,0,0,1,.72-4.32Z" transform="translate(-378.5 -96.34)"/><path class="cls-3" d="M2316,3155.68l26.88,26.88-26.8,18.09a3.45,3.45,0,0,1-4.36-.42l-13.39-13.39a3.44,3.44,0,0,1-.41-4.35Z" transform="translate(-378.5 -96.34)"/><path class="cls-3" d="M2342.72,3182.48l32.92,19-21.21,24.41a3.44,3.44,0,0,1-4.31.72l-16.4-9.47a3.42,3.42,0,0,1-1.53-4.09Z" transform="translate(-378.5 -96.34)"/><path class="cls-3" d="M2375.51,3201.43l36.72,9.84-14.17,29.06a3.45,3.45,0,0,1-4,1.82l-18.29-4.9a3.45,3.45,0,0,1-2.54-3.57Z" transform="translate(-378.5 -96.34)"/><circle class="cls-1" cx="2052.6" cy="2971.07" r="148.03"/><circle class="cls-2" cx="2052.6" cy="2971.07" r="142.22"/><circle class="cls-1" cx="2052.6" cy="2971.07" r="136.29"/><circle class="cls-6" cx="2431.1" cy="3067.42" r="132.49" transform="translate(-1835.44 2521.13) rotate(-45)"/><circle class="cls-6" cx="2052.6" cy="2971.07" r="132.49"/><circle class="cls-6" cx="2052.6" cy="2971.07" r="132.49"/><circle class="cls-6" cx="2431.1" cy="3067.42" r="132.49" transform="translate(-1835.44 2521.13) rotate(-45)"/><circle class="cls-6" cx="2431.1" cy="3067.42" r="132.49" transform="translate(-1835.44 2521.13) rotate(-45)"/><circle class="cls-3" cx="2431.1" cy="3067.42" r="132.49" transform="translate(-1835.44 2521.13) rotate(-45)"/><path class="cls-1" d="M2388.19,3154.37l26.68-46.22a18.74,18.74,0,0,1,32.46,0l26.68,46.22a18.74,18.74,0,0,1-16.23,28.11h-53.36A18.74,18.74,0,0,1,2388.19,3154.37Z" transform="translate(-378.5 -96.34)"/><path class="cls-1" d="M2484.94,3148.05l-26.68-46.21a18.74,18.74,0,0,1,16.23-28.11h53.36a18.74,18.74,0,0,1,16.23,28.11l-26.68,46.21A18.74,18.74,0,0,1,2484.94,3148.05Z" transform="translate(-378.5 -96.34)"/><path class="cls-1" d="M2527.85,3061.1h-53.36a18.74,18.74,0,0,1-16.23-28.11l26.68-46.21a18.74,18.74,0,0,1,32.46,0l26.68,46.21A18.74,18.74,0,0,1,2527.85,3061.1Z" transform="translate(-378.5 -96.34)"/><path class="cls-1" d="M2474,2980.46l-26.68,46.22a18.74,18.74,0,0,1-32.46,0l-26.68-46.22a18.74,18.74,0,0,1,16.23-28.11h53.36A18.74,18.74,0,0,1,2474,2980.46Z" transform="translate(-378.5 -96.34)"/><path class="cls-1" d="M2377.25,2986.78l26.68,46.21a18.74,18.74,0,0,1-16.23,28.11h-53.36a18.74,18.74,0,0,1-16.23-28.11l26.68-46.21A18.74,18.74,0,0,1,2377.25,2986.78Z" transform="translate(-378.5 -96.34)"/><path class="cls-1" d="M2334.34,3073.73h53.36a18.74,18.74,0,0,1,16.23,28.11l-26.68,46.21a18.74,18.74,0,0,1-32.46,0l-26.68-46.21A18.74,18.74,0,0,1,2334.34,3073.73Z" transform="translate(-378.5 -96.34)"/><path d="M2393.08,3151.92l22.78-39.46a17.6,17.6,0,0,1,30.48,0l22.78,39.46a17.6,17.6,0,0,1-15.24,26.4h-45.56A17.6,17.6,0,0,1,2393.08,3151.92Z" transform="translate(-378.5 -96.34)"/><path d="M2485.27,3142.59l-22.78-39.45a17.6,17.6,0,0,1,15.24-26.4h45.56a17.6,17.6,0,0,1,15.24,26.4l-22.78,39.45A17.59,17.59,0,0,1,2485.27,3142.59Z" transform="translate(-378.5 -96.34)"/><path d="M2523.29,3058.09h-45.56a17.6,17.6,0,0,1-15.24-26.4l22.78-39.45a17.59,17.59,0,0,1,30.48,0l22.78,39.45A17.6,17.6,0,0,1,2523.29,3058.09Z" transform="translate(-378.5 -96.34)"/><path d="M2469.12,2982.91l-22.78,39.46a17.6,17.6,0,0,1-30.48,0l-22.78-39.46a17.6,17.6,0,0,1,15.24-26.4h45.56A17.6,17.6,0,0,1,2469.12,2982.91Z" transform="translate(-378.5 -96.34)"/><path d="M2376.93,2992.24l22.77,39.45a17.6,17.6,0,0,1-15.24,26.4h-45.55a17.6,17.6,0,0,1-15.25-26.4l22.78-39.45A17.6,17.6,0,0,1,2376.93,2992.24Z" transform="translate(-378.5 -96.34)"/><path d="M2338.91,3076.74h45.55a17.6,17.6,0,0,1,15.24,26.4l-22.77,39.45a17.6,17.6,0,0,1-30.49,0l-22.78-39.45A17.6,17.6,0,0,1,2338.91,3076.74Z" transform="translate(-378.5 -96.34)"/><circle class="cls-1" cx="2052.6" cy="2971.07" r="55.61"/><circle class="cls-7" cx="2052.6" cy="2971.07" r="53.96"/><circle class="cls-7" cx="2052.6" cy="2971.07" r="53.96"/><circle class="cls-7" cx="2052.6" cy="2971.07" r="53.96"/><circle class="cls-7" cx="2052.6" cy="2971.07" r="53.96"/><circle class="cls-7" cx="2052.6" cy="2971.07" r="53.96"/><circle class="cls-7" cx="2052.6" cy="2971.07" r="53.96"/><circle class="cls-7" cx="2052.6" cy="2971.07" r="53.96"/><circle class="cls-3" cx="2052.6" cy="2971.07" r="53.96"/><circle class="cls-1" cx="2052.6" cy="2971.07" r="24.79"/><circle cx="2052.6" cy="2971.07" r="22.97"/><circle class="cls-2" cx="2052.6" cy="2971.07" r="18.76"/><circle class="cls-3" cx="2052.6" cy="2971.07" r="9.77"/><circle cx="2431.1" cy="3105.78" r="8.61" transform="translate(-1528.65 4661.93) rotate(-76.72)"/><circle cx="2079.73" cy="2998.2" r="8.61"/><circle cx="2090.96" cy="2971.07" r="8.61"/><circle cx="2079.73" cy="2943.95" r="8.61"/><circle cx="2052.6" cy="2932.71" r="8.61"/><circle cx="2025.47" cy="2943.95" r="8.61"/><circle cx="2392.74" cy="3067.42" r="8.61" transform="translate(-1396.84 4841.57) rotate(-80.78)"/><circle cx="2025.47" cy="2998.2" r="8.61"/><circle class="cls-5" cx="2684.8" cy="2559.52" r="21.9" transform="translate(-626.81 192.46) rotate(-5.89)"/><path class="cls-1" d="M2699.57,2563a15.76,15.76,0,1,1-11.72-18.95A15.75,15.75,0,0,1,2699.57,2563Z" transform="translate(-378.5 -96.34)"/><path class="cls-2" d="M2672.63,2556.65a15.76,15.76,0,0,1,17.06-12,16.3,16.3,0,0,0-1.84-.56,15.76,15.76,0,0,0-7.23,30.67,15.35,15.35,0,0,0,1.9.31A15.74,15.74,0,0,1,2672.63,2556.65Z" transform="translate(-378.5 -96.34)"/><circle class="cls-5" cx="2621.93" cy="2323.32" r="21.9" transform="translate(-1139.93 3135.37) rotate(-56.57)"/><circle class="cls-1" cx="2621.37" cy="2323.18" r="15.76" transform="translate(-1079.94 3334.85) rotate(-59.99)"/><path class="cls-2" d="M2609.77,2320.45a15.75,15.75,0,0,1,17.05-12,15.54,15.54,0,0,0-1.83-.56,15.76,15.76,0,1,0-7.23,30.67,15.54,15.54,0,0,0,1.89.32A15.75,15.75,0,0,1,2609.77,2320.45Z" transform="translate(-378.5 -96.34)"/><circle class="cls-5" cx="2471.5" cy="2121.62" r="21.9" transform="translate(-846.59 3428.27) rotate(-66.16)"/><circle class="cls-1" cx="2470.94" cy="2121.49" r="15.76" transform="translate(-1124.95 1520.54) rotate(-31.74)"/><path class="cls-2" d="M2459.34,2118.76a15.74,15.74,0,0,1,17-12,13.86,13.86,0,0,0-1.83-.56,15.76,15.76,0,1,0-7.24,30.67,16,16,0,0,0,1.9.31A15.74,15.74,0,0,1,2459.34,2118.76Z" transform="translate(-378.5 -96.34)"/><circle class="cls-5" cx="2668.48" cy="2792.59" r="21.9" transform="translate(-1212.26 4325.25) rotate(-71.25)"/><path class="cls-1" d="M2683.25,2796.07a15.76,15.76,0,1,1-11.72-19A15.75,15.75,0,0,1,2683.25,2796.07Z" transform="translate(-378.5 -96.34)"/><path class="cls-2" d="M2656.31,2789.72a15.75,15.75,0,0,1,17.06-12,16.34,16.34,0,0,0-1.84-.57,15.76,15.76,0,0,0-7.23,30.67,15.54,15.54,0,0,0,1.89.32A15.75,15.75,0,0,1,2656.31,2789.72Z" transform="translate(-378.5 -96.34)"/><path class="cls-2" d="M2534.5,609.07c-45.78,232.21-154.33,348.27-256.05,328.21s-158.11-168.62-112.33-400.83S2423.5,92.31,2444.22,96.4C2464.06,100.31,2580.27,376.87,2534.5,609.07Z" transform="translate(-378.5 -96.34)"/><path class="cls-3" d="M2190.27,553.79c38.47-195.14,172.89-379.28,244.27-454.61-44.95,26.72-227.58,223.28-269.71,437-29,147-17,260.53,21.52,329.11C2165.75,789.86,2164.62,683.93,2190.27,553.79Z" transform="translate(-378.5 -96.34)"/><path class="cls-1" d="M2520.56,608.64c43.6-221.14-62.87-483.69-81.26-487.31l-157.86,800.8C2375.71,940.72,2477,829.77,2520.56,608.64Z" transform="translate(-378.5 -96.34)"/><path class="cls-1" d="M2439.3,121.33l-.18.91c32.7,60.3,106.22,284.85,68.06,478.45-42,212.85-135.56,325.27-225.54,320.41l-.2,1c94.27,18.59,195.53-92.36,239.12-313.49S2457.69,125,2439.3,121.33Z" transform="translate(-378.5 -96.34)"/><polygon class="cls-1" points="1990.14 397.37 1889.22 365.37 1902.13 299.91 1995.67 369.36 1990.14 397.37"/><polygon class="cls-1" points="1945.26 625.09 1844.33 593.09 1857.24 527.62 1950.78 597.07 1945.26 625.09"/><circle class="cls-5" cx="2349.43" cy="362.73" r="32.26" transform="translate(-254.38 1102.69) rotate(-29.37)"/><circle class="cls-1" cx="2348.66" cy="362.38" r="23.21" transform="translate(703.31 2276.66) rotate(-66.56)"/><path class="cls-2" d="M2332.67,355.12a23.2,23.2,0,0,1,28.07-12.54,22.71,22.71,0,0,0-2.49-1.33,23.21,23.21,0,1,0-19.19,42.26,22.43,22.43,0,0,0,2.65,1A23.19,23.19,0,0,1,2332.67,355.12Z" transform="translate(-378.5 -96.34)"/><circle class="cls-5" cx="2265.23" cy="789.86" r="32.26" transform="translate(-511.58 750.46) rotate(-20.58)"/><circle class="cls-1" cx="2264.45" cy="789.51" r="23.21" transform="matrix(0.19, -0.98, 0.98, 0.19, 682.25, 2767.33)"/><path class="cls-2" d="M2248.46,782.25a23.22,23.22,0,0,1,28.08-12.54,25.74,25.74,0,0,0-2.49-1.34,23.21,23.21,0,0,0-19.19,42.27,24.34,24.34,0,0,0,2.65,1A23.21,23.21,0,0,1,2248.46,782.25Z" transform="translate(-378.5 -96.34)"/><path class="cls-2" d="M1990.23,559.72c131.82,196.56,137.14,355.38,51,413.13s-231-7.44-362.86-204S1546.34,272.8,1563.88,261C1580.67,249.78,1858.4,363.16,1990.23,559.72Z" transform="translate(-378.5 -96.34)"/><path class="cls-3" d="M1707.74,764C1597,598.85,1561.79,373.59,1559,269.85c-12.88,50.68-3,318.8,118.31,499.73,83.48,124.48,172.21,196.25,247.94,217.5C1857.32,948.3,1781.62,874.19,1707.74,764Z" transform="translate(-378.5 -96.34)"/><path class="cls-1" d="M1980.07,569.26C1854.53,382.07,1593.6,271.7,1578,282.14L2032.65,960C2112.46,906.51,2105.61,756.45,1980.07,569.26Z" transform="translate(-378.5 -96.34)"/><path class="cls-1" d="M1578,282.14l.52.78c65.76,19.51,276.52,126.3,386.44,290.19,120.83,180.18,134.14,325.86,67.08,386l.58.87c79.81-53.52,73-203.58-52.58-390.77S1593.6,271.7,1578,282.14Z" transform="translate(-378.5 -96.34)"/><polygon class="cls-1" points="1412.88 499.08 1318.89 547.82 1281.73 492.4 1396.98 475.37 1412.88 499.08"/><polygon class="cls-1" points="1542.16 691.84 1448.17 740.58 1411 685.16 1526.26 668.13 1542.16 691.84"/><circle class="cls-5" cx="1685.18" cy="516.39" r="32.26" transform="translate(-437.38 674.48) rotate(-25.34)"/><circle class="cls-1" cx="1684.38" cy="516.69" r="23.21" transform="translate(-409.63 18.93) rotate(-3.88)"/><path class="cls-2" d="M1667.94,522.86a23.19,23.19,0,0,1,11-28.71,22.65,22.65,0,0,0-2.71.81,23.21,23.21,0,0,0,16.32,43.46,24.15,24.15,0,0,0,2.58-1.17A23.2,23.2,0,0,1,1667.94,522.86Z" transform="translate(-378.5 -96.34)"/><circle class="cls-5" cx="1927.66" cy="877.96" r="32.26" transform="translate(87.5 2314.66) rotate(-70.85)"/><circle class="cls-1" cx="1926.87" cy="878.25" r="23.21" transform="translate(-549.19 1072.44) rotate(-32.39)"/><path class="cls-2" d="M1910.43,884.43a23.2,23.2,0,0,1,11-28.72,22.17,22.17,0,0,0-2.71.82A23.21,23.21,0,1,0,1935,900a24.91,24.91,0,0,0,2.57-1.17A23.19,23.19,0,0,1,1910.43,884.43Z" transform="translate(-378.5 -96.34)"/><path class="cls-2" d="M1570.47,909.67c232.21,45.78,348.27,154.33,328.22,256.05s-168.63,158.11-400.84,112.33-444.13-257.37-440-278.09C1061.71,980.11,1338.27,863.9,1570.47,909.67Z" transform="translate(-378.5 -96.34)"/><path class="cls-1" d="M1570,923.61c-221.14-43.59-483.68,62.87-487.31,81.26l800.81,157.87C1902.12,1068.47,1791.17,967.2,1570,923.61Z" transform="translate(-378.5 -96.34)"/><path class="cls-1" d="M1082.73,1004.87l.91.18c60.3-32.7,284.85-106.22,478.46-68,212.84,42,325.26,135.56,320.41,225.53l1,.21c18.58-94.27-92.37-195.54-313.5-239.13S1086.36,986.48,1082.73,1004.87Z" transform="translate(-378.5 -96.34)"/><polygon class="cls-1" points="1076.62 979.19 1044.62 1080.11 979.15 1067.21 1048.61 973.67 1076.62 979.19"/><polygon class="cls-1" points="1304.33 1024.08 1272.33 1125 1206.87 1112.1 1276.32 1018.56 1304.33 1024.08"/><circle class="cls-5" cx="1324.13" cy="1094.74" r="32.26" transform="translate(-678.84 439.06) rotate(-20.58)"/><circle class="cls-1" cx="1323.78" cy="1095.52" r="23.21" transform="translate(-635.37 1673.03) rotate(-62.7)"/><path class="cls-2" d="M1316.52,1111.51a23.2,23.2,0,0,1-12.53-28.08,22,22,0,0,0-1.34,2.49,23.21,23.21,0,1,0,42.26,19.19,22.43,22.43,0,0,0,1-2.65A23.21,23.21,0,0,1,1316.52,1111.51Z" transform="translate(-378.5 -96.34)"/><circle class="cls-5" cx="1751.26" cy="1178.94" r="32.26" transform="translate(-710.09 738.31) rotate(-24.56)"/><circle class="cls-1" cx="1750.91" cy="1179.72" r="23.21" transform="translate(-195.74 2497) rotate(-76)"/><path class="cls-2" d="M1743.65,1195.71a23.2,23.2,0,0,1-12.53-28.08,22,22,0,0,0-1.34,2.49,23.21,23.21,0,1,0,42.26,19.19,22.43,22.43,0,0,0,1-2.65A23.21,23.21,0,0,1,1743.65,1195.71Z" transform="translate(-378.5 -96.34)"/><path class="cls-2" d="M1521.12,1453.94c196.56-131.82,355.38-137.13,413.13-51s-7.44,231-204,362.86-496,132.06-507.81,114.52C1211.18,1863.5,1324.56,1585.77,1521.12,1453.94Z" transform="translate(-378.5 -96.34)"/><path class="cls-3" d="M1725.44,1736.44c-165.19,110.78-390.45,145.94-494.19,148.74,50.68,12.88,318.81,3,499.74-118.31,124.47-83.48,196.24-172.21,217.49-247.93C1909.7,1586.85,1835.6,1662.56,1725.44,1736.44Z" transform="translate(-378.5 -96.34)"/><path class="cls-1" d="M1530.66,1464.1c-187.19,125.55-297.55,386.48-287.11,402l677.88-454.62C1867.91,1331.72,1717.86,1338.56,1530.66,1464.1Z" transform="translate(-378.5 -96.34)"/><path class="cls-1" d="M1243.55,1866.14l.77-.51c19.51-65.76,126.31-276.53,290.19-386.44,180.18-120.84,325.86-134.15,386-67.09l.87-.58c-53.52-79.8-203.57-73-390.77,52.58S1233.11,1850.58,1243.55,1866.14Z" transform="translate(-378.5 -96.34)"/><polygon class="cls-1" points="1178.33 1556.45 1227.07 1650.44 1171.65 1687.61 1154.62 1572.35 1178.33 1556.45"/><polygon class="cls-1" points="1371.09 1427.17 1419.83 1521.16 1364.41 1558.33 1347.38 1443.08 1371.09 1427.17"/><circle class="cls-5" cx="1477.79" cy="1759" r="32.26" transform="translate(-1168.26 1293.67) rotate(-40.72)"/><circle class="cls-1" cx="1478.09" cy="1759.79" r="23.21" transform="matrix(0.88, -0.48, 0.48, 0.88, -1037.87, 819.13)"/><path class="cls-2" d="M1484.27,1776.23a23.2,23.2,0,0,1-28.72-11,24.65,24.65,0,0,0,.81,2.71,23.21,23.21,0,1,0,43.46-16.32,24,24,0,0,0-1.17-2.57A23.19,23.19,0,0,1,1484.27,1776.23Z" transform="translate(-378.5 -96.34)"/><circle class="cls-5" cx="1839.36" cy="1516.51" r="32.26" transform="translate(-912.1 1648.46) rotate(-45)"/><circle class="cls-1" cx="1839.66" cy="1517.31" r="23.21" transform="translate(-821.39 730.67) rotate(-22.69)"/><path class="cls-2" d="M1845.83,1533.75a23.21,23.21,0,0,1-28.72-11,23.2,23.2,0,1,0,44.27-13.61,20.75,20.75,0,0,0-1.17-2.58A23.21,23.21,0,0,1,1845.83,1533.75Z" transform="translate(-378.5 -96.34)"/><path class="cls-2" d="M1871.08,1873.7c45.77-232.21,154.32-348.27,256.05-328.21s158.1,168.62,112.33,400.83-257.38,444.14-278.1,440.05" transform="translate(-378.5 -96.34)"/><path class="cls-1" d="M1885,1874.14c-43.59,221.13,62.87,483.68,81.26,487.3l157.87-800.8C2029.87,1542.05,1928.6,1653,1885,1874.14Z" transform="translate(-378.5 -96.34)"/><path class="cls-1" d="M1966.27,2361.44l.18-.91c-32.7-60.3-106.22-284.85-68-478.45,42-212.85,135.56-325.27,225.54-320.41l.2-1c-94.27-18.59-195.54,92.36-239.13,313.5S1947.88,2357.82,1966.27,2361.44Z" transform="translate(-378.5 -96.34)"/><polygon class="cls-1" points="1658.43 1892.71 1759.36 1924.71 1746.45 1990.18 1652.91 1920.73 1658.43 1892.71"/><polygon class="cls-1" points="1703.32 1665 1804.25 1697 1791.34 1762.46 1697.8 1693.01 1703.32 1665"/><circle class="cls-5" cx="2056.14" cy="2120.04" r="32.26" transform="translate(-746.48 336.72) rotate(-11.04)"/><circle class="cls-1" cx="2056.92" cy="2120.39" r="23.21" transform="matrix(0.14, -0.99, 0.99, 0.14, -714.45, 3756.43)"/><path class="cls-2" d="M2072.91,2127.65a23.21,23.21,0,0,1-28.08,12.54,22.86,22.86,0,0,0,2.5,1.33,23.2,23.2,0,1,0,19.18-42.26,22.43,22.43,0,0,0-2.65-1A23.21,23.21,0,0,1,2072.91,2127.65Z" transform="translate(-378.5 -96.34)"/><circle class="cls-5" cx="2140.35" cy="1692.91" r="32.26" transform="translate(-217.95 3474.72) rotate(-81.83)"/><circle class="cls-1" cx="2141.12" cy="1693.26" r="23.21" transform="translate(-837.11 764.5) rotate(-20.58)"/><path class="cls-2" d="M2157.11,1700.52a23.21,23.21,0,0,1-28.08,12.54,25.91,25.91,0,0,0,2.5,1.34,23.21,23.21,0,0,0,19.19-42.27,25.14,25.14,0,0,0-2.65-1A23.21,23.21,0,0,1,2157.11,1700.52Z" transform="translate(-378.5 -96.34)"/><path class="cls-2" d="M2415.35,1923.05" transform="translate(-378.5 -96.34)"/><path class="cls-2" d="M2364.32,1509.92c86.11-57.75,231,7.44,362.86,204s132.06,496,114.52,507.81" transform="translate(-378.5 -96.34)"/><path class="cls-1" d="M2425.51,1913.51c125.54,187.19,386.47,297.56,402,287.12l-454.63-677.89C2293.12,1576.26,2300,1726.32,2425.51,1913.51Z" transform="translate(-378.5 -96.34)"/><polygon class="cls-1" points="2235.7 1791.01 2329.69 1742.27 2366.85 1797.68 2251.6 1814.72 2235.7 1791.01"/><polygon class="cls-1" points="2106.42 1598.24 2200.41 1549.51 2237.57 1604.92 2122.32 1621.96 2106.42 1598.24"/><circle class="cls-5" cx="2720.4" cy="1966.38" r="32.26" transform="translate(-319.07 3916.12) rotate(-73.42)"/><circle class="cls-1" cx="2721.19" cy="1966.08" r="23.21" transform="translate(-572.41 3534.83) rotate(-65.58)"/><path class="cls-2" d="M2737.63,1959.91a23.19,23.19,0,0,1-11,28.71,22.12,22.12,0,0,0,2.71-.81,23.21,23.21,0,0,0-16.31-43.46,24.15,24.15,0,0,0-2.58,1.17A23.19,23.19,0,0,1,2737.63,1959.91Z" transform="translate(-378.5 -96.34)"/><circle class="cls-5" cx="2477.91" cy="1604.81" r="32.26" transform="translate(-692.13 2469.09) rotate(-51.92)"/><circle class="cls-1" cx="2478.71" cy="1604.52" r="23.21" transform="matrix(1, -0.01, 0.01, 1, -395.6, -69.61)"/><path class="cls-2" d="M2495.15,1598.34a23.2,23.2,0,0,1-11,28.72,22.71,22.71,0,0,0,2.71-.82,23.21,23.21,0,1,0-16.32-43.45A24.15,24.15,0,0,0,2468,1584,23.21,23.21,0,0,1,2495.15,1598.34Z" transform="translate(-378.5 -96.34)"/><path class="cls-2" d="M2835.1,1573.1c-232.2-45.78-348.26-154.33-328.21-256s168.63-158.11,400.83-112.33,444.14,257.37,440.05,278.09C3343.86,1502.66,3067.3,1618.87,2835.1,1573.1Z" transform="translate(-378.5 -96.34)"/><path class="cls-3" d="M2890.38,1228.87c195.14,38.47,379.29,172.88,454.62,244.26-26.73-44.94-223.29-227.57-437-269.7-147.05-29-260.54-17-329.11,21.52C2654.31,1204.35,2760.24,1203.21,2890.38,1228.87Z" transform="translate(-378.5 -96.34)"/><path class="cls-1" d="M2835.54,1559.16c221.13,43.6,483.68-62.87,487.31-81.26L2522,1320C2503.46,1414.3,2614.4,1515.57,2835.54,1559.16Z" transform="translate(-378.5 -96.34)"/><path class="cls-1" d="M3322.85,1477.9l-.92-.18c-60.29,32.7-284.84,106.22-478.45,68-212.85-42-325.27-135.56-320.41-225.53l-1-.21c-18.58,94.27,92.36,195.54,313.5,239.13S3319.22,1496.29,3322.85,1477.9Z" transform="translate(-378.5 -96.34)"/><polygon class="cls-1" points="2571.96 1310.9 2603.96 1209.98 2669.42 1222.88 2599.97 1316.42 2571.96 1310.9"/><polygon class="cls-1" points="2344.25 1266.01 2376.25 1165.09 2441.71 1177.99 2372.26 1271.53 2344.25 1266.01"/><circle class="cls-5" cx="3081.44" cy="1388.03" r="32.26" transform="translate(-393.27 2646.44) rotate(-47.88)"/><circle class="cls-1" cx="3081.79" cy="1387.25" r="23.21" transform="translate(-669.48 1075.67) rotate(-20.58)"/><path class="cls-2" d="M3089.05,1371.26a23.22,23.22,0,0,1,12.54,28.08,25.74,25.74,0,0,0,1.34-2.49,23.21,23.21,0,1,0-42.27-19.19,24.26,24.26,0,0,0-1,2.65A23.19,23.19,0,0,1,3089.05,1371.26Z" transform="translate(-378.5 -96.34)"/><circle class="cls-5" cx="2654.31" cy="1303.83" r="32.26" transform="translate(-116.69 2945.66) rotate(-62.16)"/><circle class="cls-1" cx="2654.67" cy="1303.05" r="23.21" transform="matrix(0.94, -0.35, 0.35, 0.94, -667.14, 920.14)"/><path class="cls-2" d="M2661.93,1287.06a23.21,23.21,0,0,1,12.53,28.08,23.73,23.73,0,0,0,1.34-2.49,23.21,23.21,0,1,0-42.27-19.19,24.26,24.26,0,0,0-1,2.65A23.21,23.21,0,0,1,2661.93,1287.06Z" transform="translate(-378.5 -96.34)"/><path class="cls-2" d="M2884.46,1028.83c-196.57,131.82-355.39,137.13-413.14,51s7.44-231,204-362.86,496-132.06,507.81-114.52C3194.4,619.27,3081,897,2884.46,1028.83Z" transform="translate(-378.5 -96.34)"/><path class="cls-3" d="M2680.14,746.33c165.18-110.78,390.44-145.94,494.18-148.74-50.67-12.88-318.8-3-499.73,118.31-124.48,83.48-196.25,172.21-217.5,247.93C2495.87,895.92,2570,820.21,2680.14,746.33Z" transform="translate(-378.5 -96.34)"/><path class="cls-1" d="M2874.91,1018.66c187.19-125.54,297.56-386.47,287.12-402l-677.88,454.62C2537.66,1151.05,2687.72,1144.21,2874.91,1018.66Z" transform="translate(-378.5 -96.34)"/><path class="cls-1" d="M3162,616.63l-.77.51c-19.52,65.76-126.31,276.53-290.2,386.44-180.17,120.84-325.85,134.15-386,67.09l-.87.58c53.51,79.8,203.57,73,390.76-52.59S3172.47,632.19,3162,616.63Z" transform="translate(-378.5 -96.34)"/><polygon class="cls-1" points="2470.25 733.64 2421.51 639.65 2476.93 602.48 2493.96 717.74 2470.25 733.64"/><polygon class="cls-1" points="2277.49 862.91 2228.75 768.92 2284.17 731.76 2301.2 847.01 2277.49 862.91"/><circle class="cls-5" cx="2927.78" cy="723.77" r="32.26" transform="translate(905.23 3155.84) rotate(-70.85)"/><circle class="cls-1" cx="2927.48" cy="722.98" r="23.21" transform="translate(-462.87 479.69) rotate(-11.08)"/><path class="cls-2" d="M2921.31,706.54a23.21,23.21,0,0,1,28.72,11,22.71,22.71,0,0,0-.82-2.71,23.21,23.21,0,1,0-43.45,16.32,20.61,20.61,0,0,0,1.17,2.57A23.19,23.19,0,0,1,2921.31,706.54Z" transform="translate(-378.5 -96.34)"/><circle class="cls-5" cx="2566.22" cy="966.26" r="32.26" transform="translate(-535.94 552.4) rotate(-13.98)"/><circle class="cls-1" cx="2565.92" cy="965.46" r="23.21" transform="translate(-527.46 1250.52) rotate(-28.62)"/><path class="cls-2" d="M2559.74,949a23.2,23.2,0,0,1,28.72,11,25.32,25.32,0,0,0-.81-2.71,23.21,23.21,0,0,0-43.46,16.32,24.15,24.15,0,0,0,1.17,2.58A23.21,23.21,0,0,1,2559.74,949Z" transform="translate(-378.5 -96.34)"/><path class="cls-3" d="M2202.79,1595.66c-195.66,0-354.27-158.62-354.27-354.28s158.61-354.27,354.27-354.27,354.27,158.62,354.27,354.27h35.58c0-215.3-174.54-389.85-389.85-389.85s-389.85,174.55-389.85,389.85,174.54,389.86,389.85,389.86h.58v-35.58Z" transform="translate(-378.5 -96.34)"/><path class="cls-2" d="M2202.79,887.11c-195.66,0-354.27,158.62-354.27,354.27s158.61,354.28,354.27,354.28h.58v-17.78c-185.84,0-336.49-150.65-336.49-336.49S2017.53,904.9,2203.37,904.9s336.48,150.65,336.48,336.48h17.21C2557.06,1045.73,2398.45,887.11,2202.79,887.11Z" transform="translate(-378.5 -96.34)"/><path d="M2539.85,1241.38c0-185.83-150.65-336.48-336.48-336.48s-336.49,150.65-336.49,336.48,150.65,336.49,336.49,336.49V1241.38Z" transform="translate(-378.5 -96.34)"/><path class="cls-3" d="M2169,1496.86h67.52l-11,56.38a6.12,6.12,0,0,1-6,5H2186a6.11,6.11,0,0,1-6-5Z" transform="translate(-378.5 -96.34)"/><path class="cls-3" d="M2236.3,1496.9l65.22-17.48,4,57.29A6.12,6.12,0,0,1,2301,1543l-32.48,8.7a6.1,6.1,0,0,1-7.07-3.22Z" transform="translate(-378.5 -96.34)"/><path class="cls-3" d="M2301.29,1479.51l58.47-33.75,18.71,54.3a6.1,6.1,0,0,1-2.72,7.27l-29.12,16.82a6.13,6.13,0,0,1-7.67-1.28Z" transform="translate(-378.5 -96.34)"/><path class="cls-3" d="M2359.57,1445.91l47.74-47.75,32.12,47.61a6.11,6.11,0,0,1-.74,7.74l-23.78,23.78a6.11,6.11,0,0,1-7.73.74Z" transform="translate(-378.5 -96.34)"/><path class="cls-3" d="M2407.16,1398.36l33.76-58.47,43.35,37.67a6.1,6.1,0,0,1,1.28,7.66l-16.81,29.13a6.12,6.12,0,0,1-7.28,2.72Z" transform="translate(-378.5 -96.34)"/><path class="cls-3" d="M2440.82,1340.12l17.48-65.22,51.62,25.17a6.11,6.11,0,0,1,3.23,7.07l-8.71,32.48a6.09,6.09,0,0,1-6.32,4.51Z" transform="translate(-378.5 -96.34)"/><path class="cls-3" d="M2458.27,1275.14v-67.51l56.38,10.94a6.12,6.12,0,0,1,4.94,6v33.63a6.12,6.12,0,0,1-4.94,6Z" transform="translate(-378.5 -96.34)"/><path class="cls-3" d="M2458.3,1207.87l-17.48-65.22,57.3-4a6.09,6.09,0,0,1,6.32,4.51l8.71,32.48a6.11,6.11,0,0,1-3.23,7.07Z" transform="translate(-378.5 -96.34)"/><path class="cls-3" d="M2440.92,1142.88l-33.76-58.47,54.3-18.71a6.12,6.12,0,0,1,7.28,2.72l16.81,29.13a6.1,6.1,0,0,1-1.28,7.66Z" transform="translate(-378.5 -96.34)"/><path class="cls-3" d="M2407.31,1084.61l-47.74-47.75,47.61-32.12a6.09,6.09,0,0,1,7.73.74l23.78,23.78a6.11,6.11,0,0,1,.74,7.74Z" transform="translate(-378.5 -96.34)"/><path class="cls-3" d="M2359.76,1037l-58.47-33.75L2339,959.9a6.13,6.13,0,0,1,7.67-1.28l29.12,16.82a6.1,6.1,0,0,1,2.72,7.27Z" transform="translate(-378.5 -96.34)"/><path class="cls-3" d="M2301.52,1003.35l-65.22-17.48,25.17-51.62a6.1,6.1,0,0,1,7.07-3.22l32.48,8.7a6.12,6.12,0,0,1,4.52,6.33Z" transform="translate(-378.5 -96.34)"/><path class="cls-3" d="M2236.55,985.91H2169L2180,929.53a6.11,6.11,0,0,1,6-4.95h33.63a6.12,6.12,0,0,1,6,4.95Z" transform="translate(-378.5 -96.34)"/><path class="cls-3" d="M2169.27,985.87l-65.21,17.48-4-57.29a6.12,6.12,0,0,1,4.51-6.33L2137,931a6.11,6.11,0,0,1,7.07,3.22Z" transform="translate(-378.5 -96.34)"/><path class="cls-3" d="M2104.28,1003.26,2045.81,1037l-18.71-54.3a6.1,6.1,0,0,1,2.72-7.27L2059,958.62a6.11,6.11,0,0,1,7.66,1.28Z" transform="translate(-378.5 -96.34)"/><path class="cls-3" d="M2046,1036.86l-47.74,47.75L1966.14,1037a6.12,6.12,0,0,1,.75-7.74l23.78-23.78a6.09,6.09,0,0,1,7.73-.74Z" transform="translate(-378.5 -96.34)"/><path class="cls-3" d="M1998.42,1084.41l-33.76,58.47-43.35-37.67a6.1,6.1,0,0,1-1.29-7.66l16.82-29.13a6.11,6.11,0,0,1,7.28-2.72Z" transform="translate(-378.5 -96.34)"/><path class="cls-3" d="M1964.75,1142.65l-17.47,65.22-51.63-25.17a6.1,6.1,0,0,1-3.22-7.07l8.7-32.48a6.1,6.1,0,0,1,6.33-4.51Z" transform="translate(-378.5 -96.34)"/><path class="cls-3" d="M1947.31,1207.63v67.51l-56.38-10.94a6.12,6.12,0,0,1-4.94-6v-33.63a6.12,6.12,0,0,1,4.94-6Z" transform="translate(-378.5 -96.34)"/><path class="cls-3" d="M1947.28,1274.9l17.47,65.22-57.29,4a6.1,6.1,0,0,1-6.33-4.51l-8.7-32.48a6.1,6.1,0,0,1,3.22-7.07Z" transform="translate(-378.5 -96.34)"/><path class="cls-3" d="M1964.66,1339.89l33.76,58.47-54.3,18.71a6.11,6.11,0,0,1-7.28-2.72L1920,1385.22a6.1,6.1,0,0,1,1.29-7.66Z" transform="translate(-378.5 -96.34)"/><path class="cls-3" d="M1998.27,1398.16l47.74,47.75L1998.4,1478a6.1,6.1,0,0,1-7.73-.74l-23.78-23.78a6.12,6.12,0,0,1-.75-7.74Z" transform="translate(-378.5 -96.34)"/><path class="cls-3" d="M2045.81,1445.76l58.47,33.75-37.67,43.36a6.11,6.11,0,0,1-7.66,1.28l-29.13-16.82a6.1,6.1,0,0,1-2.72-7.27Z" transform="translate(-378.5 -96.34)"/><path class="cls-3" d="M2104.06,1479.42l65.21,17.48-25.16,51.62a6.11,6.11,0,0,1-7.07,3.22l-32.49-8.7a6.12,6.12,0,0,1-4.51-6.33Z" transform="translate(-378.5 -96.34)"/><circle class="cls-1" cx="1824.29" cy="1145.04" r="262.93"/><circle class="cls-2" cx="1824.29" cy="1145.04" r="252.61"/><circle class="cls-1" cx="1824.29" cy="1145.04" r="242.09"/><circle class="cls-6" cx="2202.79" cy="1241.38" r="235.32" transform="translate(-611.11 1824.86) rotate(-45)"/><circle class="cls-6" cx="2202.79" cy="1241.38" r="235.32" transform="translate(-611.11 1824.86) rotate(-45)"/><circle class="cls-6" cx="2202.79" cy="1241.38" r="235.32" transform="translate(-611.11 1824.86) rotate(-45)"/><circle class="cls-6" cx="2202.79" cy="1241.38" r="235.32" transform="translate(-611.11 1824.86) rotate(-45)"/><circle class="cls-6" cx="1824.29" cy="1145.04" r="235.32"/><circle class="cls-3" cx="2202.79" cy="1241.38" r="235.32" transform="translate(-611.11 1824.86) rotate(-45)"/><path class="cls-1" d="M2126.57,1395.83l47.39-82.09c12.81-22.19,44.84-22.19,57.65,0l47.4,82.09c12.81,22.19-3.21,49.93-28.83,49.93H2155.4C2129.77,1445.76,2113.76,1418,2126.57,1395.83Z" transform="translate(-378.5 -96.34)"/><path class="cls-1" d="M2298.43,1384.61,2251,1302.53c-12.81-22.19,3.2-49.93,28.82-49.93h94.79c25.62,0,41.64,27.74,28.82,49.93l-47.39,82.08C2343.27,1406.8,2311.24,1406.8,2298.43,1384.61Z" transform="translate(-378.5 -96.34)"/><path class="cls-1" d="M2374.65,1230.17h-94.79c-25.62,0-41.63-27.74-28.82-49.93l47.39-82.08c12.81-22.19,44.84-22.19,57.65,0l47.39,82.08C2416.29,1202.43,2400.27,1230.17,2374.65,1230.17Z" transform="translate(-378.5 -96.34)"/><path class="cls-1" d="M2279,1086.94l-47.4,82.09c-12.81,22.19-44.84,22.19-57.65,0l-47.39-82.09c-12.81-22.19,3.2-49.93,28.83-49.93h94.78C2275.8,1037,2291.82,1064.75,2279,1086.94Z" transform="translate(-378.5 -96.34)"/><path class="cls-1" d="M2107.14,1098.16l47.4,82.08c12.81,22.19-3.21,49.93-28.83,49.93h-94.78c-25.63,0-41.64-27.74-28.83-49.93l47.39-82.08C2062.3,1076,2094.33,1076,2107.14,1098.16Z" transform="translate(-378.5 -96.34)"/><path class="cls-1" d="M2030.93,1252.6h94.78c25.62,0,41.64,27.74,28.83,49.93l-47.4,82.08c-12.81,22.19-44.84,22.19-57.65,0l-47.39-82.08C1989.29,1280.34,2005.3,1252.6,2030.93,1252.6Z" transform="translate(-378.5 -96.34)"/><path d="M2135.26,1391.48l40.46-70.08a31.26,31.26,0,0,1,54.14,0l40.46,70.08a31.26,31.26,0,0,1-27.07,46.89h-80.92A31.25,31.25,0,0,1,2135.26,1391.48Z" transform="translate(-378.5 -96.34)"/><path d="M2299,1374.92l-40.46-70.08a31.26,31.26,0,0,1,27.07-46.89h80.92a31.26,31.26,0,0,1,27.07,46.89l-40.46,70.08A31.26,31.26,0,0,1,2299,1374.92Z" transform="translate(-378.5 -96.34)"/><path d="M2366.54,1224.82h-80.92a31.26,31.26,0,0,1-27.07-46.89l40.46-70.08a31.26,31.26,0,0,1,54.14,0l40.46,70.08A31.26,31.26,0,0,1,2366.54,1224.82Z" transform="translate(-378.5 -96.34)"/><path d="M2270.32,1091.29l-40.46,70.08a31.26,31.26,0,0,1-54.14,0l-40.46-70.08a31.25,31.25,0,0,1,27.07-46.89h80.92A31.26,31.26,0,0,1,2270.32,1091.29Z" transform="translate(-378.5 -96.34)"/><path d="M2106.57,1107.85l40.46,70.08a31.26,31.26,0,0,1-27.08,46.89H2039a31.25,31.25,0,0,1-27.07-46.89l40.45-70.08A31.27,31.27,0,0,1,2106.57,1107.85Z" transform="translate(-378.5 -96.34)"/><path d="M2039,1258H2120a31.26,31.26,0,0,1,27.08,46.89l-40.46,70.08a31.27,31.27,0,0,1-54.15,0L2012,1304.84A31.25,31.25,0,0,1,2039,1258Z" transform="translate(-378.5 -96.34)"/><circle class="cls-1" cx="2202.79" cy="1241.38" r="98.78" transform="translate(-611.11 1824.86) rotate(-45)"/><circle class="cls-7" cx="2202.79" cy="1241.38" r="95.84" transform="translate(-611.11 1824.86) rotate(-45)"/><circle class="cls-7" cx="1824.29" cy="1145.04" r="95.84"/><circle class="cls-7" cx="2202.79" cy="1241.38" r="95.84" transform="translate(-611.11 1824.86) rotate(-45)"/><circle class="cls-7" cx="1824.29" cy="1145.04" r="95.84"/><circle class="cls-7" cx="2202.79" cy="1241.38" r="95.84" transform="translate(-611.11 1824.86) rotate(-45)"/><circle class="cls-7" cx="1824.29" cy="1145.04" r="95.84"/><circle class="cls-7" cx="2202.79" cy="1241.38" r="95.84" transform="translate(-611.11 1824.86) rotate(-45)"/><circle class="cls-3" cx="1824.29" cy="1145.04" r="95.84"/><circle class="cls-1" cx="1824.29" cy="1145.04" r="44.03"/><circle cx="1824.29" cy="1145.04" r="40.8"/><circle class="cls-2" cx="1824.29" cy="1145.04" r="33.32"/><path class="cls-3" d="M2190.52,1229.12a17.35,17.35,0,1,1,0,24.53A17.33,17.33,0,0,1,2190.52,1229.12Z" transform="translate(-378.5 -96.34)"/><circle cx="2202.79" cy="1309.52" r="15.29" transform="translate(-711.95 846.31) rotate(-22.5)"/><circle cx="1872.47" cy="1193.23" r="15.29"/><circle cx="1892.43" cy="1145.04" r="15.29"/><circle cx="1872.47" cy="1096.86" r="15.29"/><circle cx="2202.79" cy="1173.25" r="15.29" transform="translate(-562.93 1804.9) rotate(-45)"/><circle cx="1776.11" cy="1096.86" r="15.29"/><circle cx="2134.65" cy="1241.38" r="15.29" transform="translate(-631.07 1776.68) rotate(-45)"/><circle cx="1776.11" cy="1193.23" r="15.29"/></svg>