<?xml version="1.0" encoding="UTF-8" standalone="no"?>
<svg id="svg2" xmlns:rdf="http://www.w3.org/1999/02/22-rdf-syntax-ns#" xmlns="http://www.w3.org/2000/svg" height="282.29mm" width="282.22mm" version="1.1" xmlns:cc="http://creativecommons.org/ns#" xmlns:dc="http://purl.org/dc/elements/1.1/" viewBox="0 0 999.99992 1000.2382">
<g id="layer1" transform="translate(812.72 -113.34)">
<path id="path4197" d="m499.99 0c-0.65-0.0175-1.38 0.3978-2.57 1.3301-1.3 1.0206-2.72 1.8554-3.16 1.8554s-1.31 0.48-1.92 1.0684-1.98 1.6475-3.04 2.3535c-1.85 1.2365-9.26 6.7596-13.69 10.211-2.15 1.672-6.45 5.535-12.56 11.274-4.74 4.46-13.76 14.64-17.57 19.828-1.81 2.461-4.08 5.412-5.05 6.557-2.25 2.641-8.47 11.785-8.47 12.437 0 0.271-1.04 2.123-2.31 4.113-4.43 6.92-15.93 30.923-16.92 35.283-0.1 0.47-0.67 2.01-1.25 3.43-2.61 6.33-7.7 22.76-9.01 29.1-0.2 0.94-1.34 6.33-2.53 11.98-1.2 5.64-2.4 11.81-2.67 13.69s-0.64 4.39-0.82 5.56c-0.73 4.83-1.69 15.08-2.63 28.25-0.63 8.7-0.62 33.53 0 40.43 0.49 5.38-0.23 6.15-2.51 2.67-0.81-1.24-3.46-4.28-5.87-6.77-2.42-2.48-5.01-5.22-5.75-6.09-1.27-1.47-6.3-6.21-18.47-17.41-2.81-2.58-6.41-5.67-7.98-6.84-1.57-1.18-3.43-2.71-4.13-3.4-1.66-1.64-10.34-8.41-14.3-11.15-1.7-1.18-3.54-2.54-4.1-3.03-0.57-0.49-2.56-1.82-4.45-2.95-1.88-1.14-3.61-2.32-3.85-2.63-0.23-0.32-2.16-1.45-4.28-2.52s-4.04-2.19-4.28-2.5c-0.82-1.06-9.01-5.96-12.83-7.67-2.12-0.95-4.82-2.3-5.99-3.01-1.9-1.13-4.62-2.4-16.26-7.58-7.18-3.19-25.21-9.23-34.67-11.62-16.07-4.07-29.7-5.64-49.21-5.67-15.88-0.03-29.71 1.19-38.94 3.45-0.47 0.11-1.82 0.4-2.99 0.63-6.97 1.39-6.91 1.33-8.3 8.3-0.23 1.17-0.52 2.52-0.63 2.99-4.12 16.83-4.66 45.62-1.35 70.61 1.76 13.23 9.13 38.57 15.19 52.21 5.18 11.64 6.45 14.36 7.58 16.26 0.71 1.17 2.06 3.87 3.01 5.99 1.71 3.82 6.61 12.01 7.67 12.83 0.31 0.24 1.43 2.16 2.5 4.28s2.2 4.05 2.52 4.28c0.31 0.24 1.5 1.97 2.63 3.85 1.14 1.89 2.46 3.88 2.95 4.45 0.49 0.56 1.85 2.4 3.03 4.1 2.74 3.96 9.51 12.64 11.15 14.3 0.69 0.7 2.22 2.56 3.4 4.13 1.17 1.57 4.26 5.17 6.84 7.98 11.2 12.17 15.94 17.2 17.41 18.47 0.87 0.74 3.61 3.33 6.09 5.75 2.49 2.41 5.53 5.06 6.77 5.87 3.48 2.28 2.71 3-2.67 2.51-6.9-0.62-31.73-0.63-40.43 0-13.17 0.94-23.42 1.9-28.25 2.63-1.17 0.18-3.68 0.55-5.56 0.82s-8.05 1.47-13.69 2.67c-5.65 1.19-11.04 2.33-11.98 2.53-6.34 1.31-22.77 6.4-29.1 9.01-1.42 0.58-2.95 1.15-3.43 1.25-4.36 0.99-28.363 12.49-35.283 16.92-1.991 1.27-3.842 2.31-4.113 2.31-0.652 0-9.796 6.22-12.437 8.46-1.145 0.97-4.094 3.25-6.555 5.06-5.188 3.81-15.368 12.83-19.828 17.57-5.739 6.11-9.606 10.41-11.278 12.56-3.451 4.43-8.9721 11.84-10.209 13.69-0.7056 1.06-1.6718 2.36-2.148 2.89s-1.3405 1.93-1.9199 3.1c-0.5795 1.18-1.5053 2.77-2.0586 3.54-0.80871 1.12-0.64207 1.85 0.8496 3.75 1.0206 1.3 1.8554 2.72 1.8554 3.16s0.48 1.3 1.0684 1.92c0.5884 0.61 1.6475 1.98 2.3535 3.04 1.2365 1.85 6.7576 9.26 10.209 13.69 1.672 2.15 5.539 6.45 11.278 12.55 4.46 4.75 14.64 13.77 19.828 17.58 2.461 1.81 5.41 4.08 6.555 5.05 2.641 2.25 11.785 8.47 12.437 8.47 0.271 0 2.123 1.04 4.113 2.31 6.92 4.42 30.923 15.93 35.283 16.92 0.48 0.1 2.01 0.67 3.43 1.25 6.33 2.61 22.76 7.7 29.1 9.01 0.94 0.2 6.33 1.34 11.98 2.53 5.64 1.2 11.81 2.4 13.69 2.67s4.39 0.64 5.56 0.81c4.83 0.74 15.08 1.7 28.25 2.64 8.7 0.63 33.53 0.62 40.43 0 5.38-0.49 6.15 0.23 2.67 2.51-1.24 0.81-4.29 3.45-6.77 5.87s-5.22 5.01-6.09 5.75c-1.47 1.27-6.21 6.3-17.41 18.47-2.58 2.81-5.67 6.4-6.84 7.98-1.18 1.57-2.71 3.43-3.4 4.13-1.64 1.66-8.41 10.34-11.15 14.3-1.18 1.69-2.54 3.54-3.03 4.1s-1.81 2.56-2.95 4.44c-1.13 1.89-2.32 3.62-2.63 3.86-0.32 0.23-1.45 2.16-2.52 4.28-1.07 2.11-2.19 4.04-2.5 4.27-1.06 0.82-5.96 9.02-7.67 12.84-0.95 2.12-2.3 4.82-3.01 5.99-1.13 1.9-2.4 4.62-7.58 16.26-3.19 7.18-9.24 25.21-11.63 34.66-4.06 16.08-5.63 29.7-5.66 49.22-0.03 15.88 1.19 29.71 3.45 38.94 0.11 0.47 0.4 1.81 0.63 2.99 1.39 6.97 1.33 6.91 8.3 8.3 1.17 0.23 2.52 0.52 2.99 0.63 16.84 4.11 45.62 4.66 70.61 1.34 13.23-1.75 38.57-9.12 52.21-15.19 11.64-5.17 14.36-6.44 16.26-7.57 1.17-0.71 3.87-2.06 5.99-3.01 3.82-1.71 12.01-6.61 12.83-7.68 0.24-0.3 2.16-1.42 4.28-2.49s4.05-2.2 4.28-2.52c0.24-0.31 1.97-1.5 3.85-2.63 1.89-1.14 3.88-2.46 4.45-2.95 0.56-0.49 2.4-1.85 4.1-3.03 3.96-2.74 12.64-9.51 14.3-11.15 0.7-0.69 2.56-2.22 4.13-3.4s5.17-4.26 7.98-6.85c12.17-11.19 17.2-15.93 18.47-17.4 0.74-0.87 3.33-3.61 5.75-6.09 2.41-2.49 5.06-5.53 5.87-6.77 2.28-3.48 3-2.71 2.51 2.66-0.62 6.9-0.63 31.74-0.01 40.44 0.95 13.17 1.91 23.42 2.64 28.24 0.18 1.18 0.55 3.69 0.82 5.57s1.47 8.04 2.67 13.69c1.19 5.65 2.33 11.04 2.53 11.98 1.31 6.33 6.4 22.76 9.01 29.1 0.58 1.41 1.15 2.95 1.25 3.43 0.99 4.36 12.49 28.36 16.92 35.28 1.27 1.99 2.31 3.84 2.31 4.11 0 0.66 6.22 9.8 8.46 12.44 0.97 1.15 3.25 4.1 5.06 6.56 3.81 5.19 12.83 15.37 17.57 19.83 6.11 5.74 10.41 9.6 12.56 11.27 4.43 3.45 11.84 8.97 13.69 10.21 1.06 0.71 2.38 1.71 2.93 2.24s1.82 1.21 2.81 1.53c1 0.32 2.28 1.14 2.85 1.83 0.57 0.68 1.52 1.21 2.11 1.21s1.54-0.53 2.11-1.21c0.57-0.69 1.85-1.51 2.85-1.83 0.99-0.31 2.26-1 2.81-1.53s1.87-1.53 2.93-2.24c1.85-1.24 9.26-6.76 13.69-10.21 2.15-1.67 6.45-5.53 12.55-11.27 4.75-4.46 13.77-14.64 17.58-19.83 1.81-2.46 4.08-5.41 5.05-6.56 2.25-2.64 8.47-11.78 8.47-12.43 0-0.27 1.04-2.13 2.31-4.12 4.42-6.92 15.93-30.92 16.92-35.28 0.1-0.48 0.67-2.01 1.25-3.43 2.61-6.33 7.7-22.76 9.01-29.1 0.2-0.94 1.34-6.33 2.53-11.98 1.2-5.64 2.4-11.81 2.67-13.69s0.64-4.39 0.81-5.56c0.74-4.83 1.7-15.08 2.64-28.25 0.63-8.7 0.62-33.53 0-40.43-0.49-5.38 0.23-6.15 2.51-2.67 0.81 1.24 3.45 4.28 5.87 6.77 2.42 2.48 5.01 5.22 5.75 6.09 1.27 1.47 6.3 6.21 18.47 17.41 2.81 2.58 6.4 5.67 7.98 6.84 1.57 1.18 3.43 2.71 4.13 3.4 1.66 1.64 10.34 8.41 14.3 11.15 1.69 1.18 3.54 2.54 4.1 3.03s2.56 1.81 4.44 2.95c1.89 1.13 3.62 2.32 3.86 2.63 0.23 0.32 2.16 1.45 4.28 2.52 2.11 1.07 4.04 2.19 4.27 2.49 0.82 1.07 9.02 5.97 12.84 7.68 2.12 0.95 4.82 2.3 5.99 3.01 1.9 1.13 4.62 2.4 16.26 7.57 7.18 3.19 25.21 9.24 34.66 11.63 16.08 4.07 29.7 5.64 49.22 5.67 15.88 0.03 29.71-1.19 38.93-3.45 0.48-0.11 1.82-0.4 3-0.63 1.18-0.24 3.17-0.69 4.42-1.01 2.22-0.57 2.73-1.52 3.88-7.29 0.23-1.17 0.52-2.52 0.63-2.99 4.11-16.84 4.66-45.62 1.34-70.61-1.75-13.23-9.12-38.57-15.19-52.21-5.17-11.64-6.44-14.36-7.57-16.26-0.71-1.17-2.06-3.87-3.01-5.99-1.71-3.82-6.61-12.02-7.68-12.84-0.3-0.23-1.43-2.15-2.49-4.27-1.07-2.12-2.2-4.05-2.52-4.28-0.31-0.24-1.5-1.97-2.63-3.85-1.14-1.89-2.46-3.89-2.95-4.45s-1.85-2.4-3.03-4.1c-2.74-3.96-9.51-12.64-11.15-14.3-0.69-0.7-2.22-2.56-3.4-4.13-1.18-1.58-4.26-5.17-6.85-7.98-11.19-12.17-15.93-17.2-17.4-18.47-0.87-0.74-3.61-3.33-6.09-5.75-2.49-2.42-5.53-5.06-6.77-5.87-3.48-2.28-2.71-3 2.66-2.51 6.9 0.62 31.74 0.63 40.44 0 13.17-0.94 23.42-1.9 28.24-2.63 1.18-0.18 3.69-0.55 5.57-0.82s8.04-1.47 13.69-2.67c5.65-1.19 11.04-2.33 11.98-2.53 6.34-1.31 22.76-6.4 29.1-9.01 1.41-0.58 2.95-1.15 3.43-1.25 4.36-0.99 28.36-12.5 35.28-16.92 1.99-1.27 3.84-2.31 4.11-2.31 0.66 0 9.8-6.22 12.44-8.47 1.15-0.97 4.1-3.24 6.56-5.05 5.19-3.81 15.37-12.83 19.83-17.57 5.74-6.11 9.6-10.41 11.27-12.56 3.45-4.43 8.97-11.84 10.21-13.69 0.71-1.06 1.67-2.36 2.15-2.89s1.34-1.93 1.92-3.1c0.58-1.18 1.51-2.77 2.06-3.54 0.78-1.12 0.68-1.85-0.85-3.75-1.02-1.3-1.86-2.72-1.86-3.16s-0.48-1.3-1.07-1.92c-0.58-0.61-1.64-1.98-2.35-3.04-1.24-1.85-6.76-9.26-10.21-13.69-1.67-2.15-5.53-6.45-11.27-12.56-4.46-4.74-14.64-13.76-19.83-17.57-2.46-1.81-5.41-4.08-6.56-5.05-2.64-2.25-11.78-8.47-12.44-8.47-0.27 0-2.12-1.04-4.11-2.31-6.92-4.43-30.92-15.93-35.28-16.92-0.48-0.1-2.02-0.67-3.43-1.25-6.34-2.61-22.76-7.7-29.1-9.01-0.94-0.2-6.33-1.34-11.98-2.53-5.65-1.2-11.81-2.4-13.69-2.67s-4.39-0.64-5.57-0.82c-4.82-0.73-15.07-1.69-28.24-2.63-8.7-0.63-33.54-0.62-40.44 0-5.37 0.49-6.14-0.23-2.66-2.51 1.24-0.81 4.28-3.46 6.77-5.87 2.48-2.42 5.22-5.01 6.09-5.75 1.47-1.27 6.21-6.3 17.4-18.47 2.59-2.81 5.67-6.41 6.85-7.98s2.71-3.43 3.4-4.13c1.64-1.66 8.41-10.34 11.15-14.3 1.18-1.7 2.54-3.54 3.03-4.1s1.81-2.56 2.95-4.45c1.13-1.88 2.32-3.61 2.63-3.85 0.32-0.23 1.45-2.16 2.52-4.28s2.19-4.04 2.49-4.28c1.07-0.82 5.97-9.01 7.68-12.83 0.95-2.12 2.3-4.82 3.01-5.99 1.13-1.9 2.4-4.62 7.57-16.26 3.19-7.18 9.24-25.21 11.63-34.67 4.07-16.07 5.64-29.7 5.67-49.21 0.03-15.88-1.19-29.71-3.45-38.94-0.11-0.47-0.4-1.82-0.63-2.99-1.39-6.97-1.33-6.91-8.3-8.3-1.18-0.23-2.52-0.52-2.99-0.63-16.84-4.11-45.62-4.66-70.61-1.35-13.23 1.76-38.57 9.13-52.21 15.2-11.64 5.17-14.36 6.44-16.26 7.57-1.17 0.71-3.87 2.06-5.99 3.01-3.82 1.71-12.02 6.61-12.84 7.68-0.23 0.3-2.16 1.42-4.27 2.49-2.12 1.07-4.05 2.2-4.28 2.52-0.24 0.31-1.97 1.5-3.86 2.63-1.88 1.14-3.88 2.46-4.44 2.95s-2.41 1.85-4.1 3.03c-3.96 2.74-12.64 9.51-14.3 11.15-0.7 0.69-2.56 2.22-4.13 3.4-1.58 1.17-5.17 4.26-7.98 6.84-12.17 11.2-17.2 15.94-18.47 17.41-0.74 0.87-3.33 3.61-5.75 6.09-2.42 2.49-5.06 5.53-5.87 6.77-2.28 3.48-3 2.71-2.51-2.67 0.62-6.9 0.63-31.73 0-40.43-0.94-13.17-1.9-23.42-2.64-28.25-0.17-1.17-0.54-3.68-0.81-5.56s-1.47-8.05-2.67-13.69c-1.19-5.65-2.33-11.04-2.53-11.98-1.31-6.34-6.4-22.77-9.01-29.1-0.58-1.42-1.15-2.95-1.25-3.43-0.99-4.36-12.5-28.363-16.92-35.283-1.27-1.991-2.31-3.842-2.31-4.113 0-0.652-6.22-9.796-8.47-12.437-0.97-1.145-3.24-4.096-5.05-6.557-3.81-5.188-12.83-15.368-17.58-19.828-6.1-5.739-10.4-9.602-12.55-11.274-4.43-3.451-11.84-8.9741-13.69-10.211-1.06-0.7056-2.36-1.6718-2.89-2.148s-1.93-1.3405-3.1-1.9199c-1.18-0.5795-2.77-1.5053-3.54-2.0586-0.42-0.30328-0.78-0.47-1.18-0.4805zm-205 4.8965c-0.32 0-0.45 16.464-0.29 36.588 0.55 69.046 1.06 112.5 1.34 112.74 0.15 0.14 2.58 1.41 5.41 2.84 4.11 2.07 16.16 9.59 20.53 12.81 0.48 0.35 3.16 2.17 5.98 4.06 2.82 1.88 5.87 4.09 6.78 4.91 0.92 0.81 2.37 1.71 3.23 1.98s1.56 0.82 1.56 1.22 1.06 1.12 2.35 1.59c1.3 0.47 2.63 0.89 2.95 0.92 0.33 0.04 0.52-13.02 0.43-29.03-0.09-16-0.1-29.09-0.01-29.09 0.27 0 33.8 33.75 37.32 37.56 2.96 3.21 5.09 4.5 4.75 2.88-0.07-0.36 0.1-1.22 0.38-1.93 0.29-0.71 1.72-7.83 3.19-15.83 1.48-8.01 3.08-16.09 3.57-17.98 0.49-1.88 1.01-4.19 1.16-5.13 0.32-2.08 0.73-3.67 2.63-10.12 1.45-4.93 1.44-4.99-0.43-6.84-1.04-1.03-7.36-7.53-14.04-14.44-24.2-25.024-88.22-89.704-88.79-89.704zm410.02 0c-0.57 0-64.59 64.68-88.79 89.704-6.68 6.91-13 13.41-14.04 14.44-1.87 1.85-1.88 1.91-0.43 6.84 1.9 6.45 2.31 8.04 2.63 10.12 0.15 0.94 0.67 3.25 1.16 5.13 0.49 1.89 2.09 9.97 3.56 17.98 1.48 8 2.91 15.12 3.2 15.83 0.28 0.71 0.45 1.57 0.38 1.93-0.35 1.62 1.79 0.33 4.75-2.88 3.52-3.81 37.05-37.56 37.32-37.56 0.09 0 0.08 13.09-0.01 29.09-0.09 16.01-0.06 29.1 0.08 29.1 1.22 0 5.65-2.03 5.65-2.59 0-0.39 0.7-0.94 1.56-1.21s2.3-1.17 3.21-1.98c0.91-0.82 3.95-3.03 6.77-4.91 2.81-1.89 5.51-3.71 5.99-4.06 4.86-3.51 16.46-10.75 20.55-12.81 2.83-1.43 5.26-2.7 5.41-2.84 0.28-0.24 0.79-43.69 1.34-112.74 0.16-20.119 0.03-36.584-0.29-36.584zm-204.59 77.74c0.27 0.022 0.49 0.14 0.72 0.32 2.14 1.68 14.72 14.384 18.2 18.383 7.42 8.53 18.83 27.52 21.74 36.21 0.08 0.24 0.59 1.51 1.13 2.82 0.55 1.32 1.24 3.43 1.55 4.71 0.3 1.27 0.83 2.7 1.17 3.17 0.35 0.47 0.84 1.82 1.1 2.99 0.26 1.18 1.12 4.46 1.92 7.28 0.79 2.82 1.57 5.91 1.72 6.85 0.3 1.86 0.93 4.95 2.11 10.27 0.42 1.88 0.98 5.35 1.25 7.7s0.67 5.63 0.89 7.27c1.39 10.15 1.64 15.34 1.66 33.81 0.01 19.46-0.71 36.92-1.78 42.95-0.26 1.5-0.58 4.01-0.69 5.57-0.12 1.55-0.48 4.95-0.81 7.54-0.56 4.33-1.31 9.02-5.3 32.95-0.79 4.7-1.73 8.94-2.09 9.41s-1.48 5.09-2.48 10.27c-0.38 1.96-0.77 3.79-1.15 5.45 15.32 3.93 30.09 10 43.7 18.04 0.86-1.37 1.78-2.8 2.76-4.25 2.85-4.25 5.43-8.38 5.73-9.2 0.71-1.93 8.82-14.07 10.14-15.17 0.56-0.47 3.44-4.52 6.4-8.99s5.85-8.41 6.43-8.76c0.57-0.35 2.28-2.56 3.8-4.92 1.51-2.36 3.06-4.29 3.45-4.29 0.38 0 1.49-1.28 2.45-2.85 0.97-1.57 2.64-3.83 3.71-5.04s4.07-4.58 6.66-7.5c2.58-2.91 7.01-7.73 9.84-10.69 2.82-2.97 6.32-6.69 7.77-8.27 5.76-6.27 19.7-18.42 30.31-26.42 1.56-1.17 3.26-2.52 3.78-2.99 0.51-0.47 3.43-2.5 6.49-4.51 3.06-2 6.14-4.04 6.85-4.52 6.86-4.7 30.13-16.22 32.75-16.22 0.66 0 1.47-0.27 1.81-0.61 1.28-1.28 20.71-5.68 29.63-6.71 2.95-0.34 10.21-0.53 16.8-0.55 6.6-0.02 12.54 0.12 12.87 0.45 0.66 0.66 0.58 23.76-0.1 29.67-1.03 8.92-5.43 28.35-6.71 29.63-0.34 0.34-0.61 1.15-0.61 1.81 0 2.62-11.52 25.89-16.22 32.75-0.48 0.71-2.52 3.79-4.53 6.84-2 3.06-4.03 5.99-4.5 6.5-0.47 0.52-1.82 2.21-2.99 3.78-8 10.6-20.15 24.55-26.42 30.3-1.58 1.46-5.3 4.96-8.27 7.78s-7.78 7.25-10.69 9.84c-2.92 2.59-6.29 5.59-7.5 6.66s-3.48 2.74-5.04 3.71c-1.57 0.96-2.85 2.07-2.85 2.45 0 0.39-1.93 1.94-4.29 3.45-2.36 1.52-4.57 3.23-4.92 3.8-0.35 0.58-4.29 3.47-8.76 6.43s-8.52 5.84-8.99 6.4c-1.1 1.32-13.24 9.43-15.17 10.14-0.82 0.3-4.95 2.88-9.2 5.73-1.45 0.98-2.88 1.9-4.25 2.76 8.03 13.62 14.16 28.37 18.13 43.68 1.64-0.37 3.43-0.75 5.36-1.13 5.18-1 9.8-2.12 10.27-2.48s4.71-1.3 9.41-2.09c23.93-3.99 28.61-4.74 32.95-5.3 2.59-0.33 5.98-0.7 7.54-0.81 1.56-0.12 4.06-0.43 5.56-0.69 6.03-1.08 23.5-1.8 42.96-1.78 18.47 0.02 23.66 0.27 33.8 1.65 1.65 0.23 4.93 0.63 7.28 0.9s5.82 0.83 7.7 1.25c5.32 1.18 8.41 1.81 10.27 2.11 0.94 0.15 4.02 0.93 6.85 1.72 2.82 0.79 6.1 1.66 7.27 1.92 1.18 0.26 2.53 0.75 3 1.09 0.47 0.35 1.9 0.88 3.17 1.18s3.39 1 4.71 1.54c1.31 0.55 2.58 1.06 2.82 1.14 8.69 2.91 27.68 14.32 36.2 21.74 4.01 3.49 16.71 16.06 18.39 18.19 0.96 1.23 0.08 2.45-6.85 9.41-10.35 10.41-13.6 13.18-22.21 18.92-10.58 7.06-19.3 11.81-25.53 13.9-0.24 0.08-1.51 0.59-2.82 1.13-1.32 0.55-3.44 1.25-4.71 1.55s-2.7 0.83-3.17 1.17c-0.47 0.35-1.82 0.84-3 1.1-1.17 0.26-4.45 1.13-7.27 1.92-2.83 0.79-5.91 1.56-6.85 1.71s-2.67 0.49-3.85 0.76c-5.25 1.18-10.97 2.24-14.12 2.62-8.17 0.97-12.12 1.49-14.12 1.85-2.55 0.46-46.77 1.18-47.2 0.77-0.17-0.16-4.73-0.53-10.14-0.83-5.42-0.3-11.07-0.76-12.58-1.03-1.5-0.26-4-0.58-5.56-0.69-1.56-0.12-4.95-0.48-7.54-0.81-4.34-0.56-9.02-1.31-32.95-5.3-4.7-0.79-8.94-1.73-9.41-2.09s-5.09-1.48-10.27-2.48c-1.88-0.37-3.63-0.74-5.24-1.1-3.95 15.33-10.11 30.07-18.17 43.7 1.34 0.85 2.75 1.75 4.17 2.71 4.25 2.85 8.38 5.43 9.2 5.73 1.93 0.71 14.07 8.82 15.17 10.14 0.47 0.56 4.52 3.44 8.99 6.4s8.41 5.85 8.76 6.43c0.35 0.57 2.56 2.28 4.92 3.8 2.36 1.51 4.29 3.06 4.29 3.45 0 0.38 1.28 1.49 2.85 2.45 1.56 0.97 3.83 2.64 5.04 3.71s4.58 4.07 7.5 6.66c2.91 2.58 7.72 7.01 10.69 9.84 2.97 2.82 6.69 6.32 8.27 7.77 6.27 5.76 18.42 19.7 26.42 30.31 1.17 1.56 2.52 3.26 2.99 3.78 0.47 0.51 2.5 3.43 4.5 6.49 2.01 3.06 4.05 6.14 4.53 6.85 4.7 6.86 16.22 30.13 16.22 32.75 0 0.66 0.27 1.47 0.61 1.81 1.28 1.28 5.68 20.71 6.71 29.63 0.61 5.26 0.79 28.97 0.23 29.54-0.36 0.35-17.65 1.12-18.05 0.79-0.11-0.09-3.86-0.39-8.33-0.68-9.97-0.63-31.27-5.01-33.05-6.79-0.34-0.34-1.15-0.61-1.81-0.61-2.62 0-25.89-11.52-32.75-16.22-0.71-0.48-3.79-2.52-6.85-4.52-3.06-2.01-5.98-4.04-6.49-4.51-0.52-0.47-2.22-1.82-3.78-2.99-10.61-8-24.55-20.15-30.31-26.42-1.45-1.58-4.95-5.3-7.77-8.27-2.83-2.97-7.26-7.78-9.84-10.69-2.59-2.92-5.59-6.3-6.66-7.5-1.07-1.21-2.74-3.48-3.71-5.04-0.96-1.57-2.07-2.85-2.45-2.85-0.39 0-1.94-1.93-3.45-4.29-1.52-2.36-3.23-4.57-3.8-4.92-0.58-0.35-3.47-4.29-6.43-8.76s-5.84-8.52-6.4-8.99c-1.32-1.1-9.43-13.24-10.14-15.17-0.3-0.82-2.88-4.95-5.73-9.2-0.94-1.4-1.83-2.78-2.67-4.1-13.59 8.2-28.39 14.25-43.73 18.14 0.35 1.6 0.73 3.33 1.09 5.2 1 5.17 2.12 9.8 2.48 10.27s1.3 4.71 2.09 9.41c3.99 23.93 4.74 28.61 5.3 32.95 0.33 2.59 0.69 5.98 0.81 7.54 0.11 1.56 0.43 4.06 0.69 5.56 1.07 6.03 1.79 23.5 1.78 42.96-0.02 18.47-0.27 23.66-1.66 33.8-0.22 1.65-0.62 4.93-0.89 7.28s-0.83 5.82-1.25 7.7c-1.18 5.32-1.81 8.41-2.11 10.27-0.15 0.94-0.93 4.02-1.72 6.85-0.8 2.82-1.66 6.1-1.92 7.27-0.26 1.18-0.75 2.53-1.1 3-0.34 0.47-0.87 1.9-1.17 3.17-0.31 1.28-1 3.39-1.55 4.71-0.54 1.31-1.05 2.58-1.13 2.82-2.09 6.23-6.84 14.95-13.9 25.53-5.52 8.27-8.37 11.65-17.78 21.08-3.77 3.78-7.48 7.37-8.26 7.98-1.22 0.97-2.44 0.08-9.4-6.85-10.41-10.35-13.18-13.6-18.92-22.21-7.06-10.58-11.81-19.3-13.9-25.53-0.08-0.24-0.59-1.51-1.14-2.82-0.54-1.32-1.24-3.43-1.54-4.71-0.3-1.27-0.83-2.7-1.18-3.17-0.34-0.47-0.83-1.82-1.09-3-0.26-1.17-1.13-4.45-1.92-7.27-0.79-2.83-1.57-5.91-1.72-6.85-0.3-1.86-0.93-4.95-2.11-10.27-0.42-1.88-0.98-5.35-1.25-7.7s-0.67-5.63-0.9-7.28c-1.38-10.14-1.63-15.33-1.65-33.8-0.02-19.46 0.7-36.93 1.78-42.96 0.26-1.5 0.57-4 0.69-5.56 0.11-1.56 0.48-4.95 0.81-7.54 0.56-4.34 1.31-9.02 5.3-32.95 0.79-4.7 1.73-8.94 2.09-9.41s1.48-5.1 2.48-10.27c0.36-1.84 0.72-3.56 1.08-5.14-7.19-1.83-14.25-4.13-21.13-6.95-7.83-3.13-15.39-6.89-22.62-11.2-0.83 1.31-1.71 2.67-2.64 4.05-2.85 4.25-5.43 8.38-5.73 9.2-0.71 1.93-8.82 14.07-10.14 15.17-0.56 0.47-3.44 4.52-6.4 8.99s-5.85 8.41-6.43 8.76c-0.57 0.35-2.29 2.56-3.8 4.92s-3.07 4.29-3.45 4.29-1.49 1.28-2.45 2.85c-0.97 1.56-2.64 3.83-3.71 5.04-1.07 1.2-4.07 4.58-6.66 7.5-2.59 2.91-7.02 7.72-9.84 10.69s-6.32 6.69-7.78 8.27c-5.75 6.27-19.7 18.42-30.3 26.42-1.57 1.17-3.26 2.52-3.78 2.99-0.51 0.47-3.43 2.5-6.49 4.51-3.06 2-6.14 4.04-6.85 4.52-6.86 4.7-30.13 16.22-32.75 16.22-0.66 0-1.47 0.27-1.81 0.61-1.5 1.5-22.23 6.01-30.91 6.72-7.54 0.62-19.3 0.88-24.61 0.54l-4.06-0.26-0.11-4.02c-0.22-8.03 0.03-20.4 0.51-25.41 0.81-8.45 5.31-28.68 6.69-30.06 0.34-0.34 0.61-1.15 0.61-1.81 0-2.62 11.52-25.89 16.22-32.75 0.48-0.71 2.52-3.79 4.52-6.85 2.01-3.06 4.04-5.98 4.51-6.49 0.47-0.52 1.82-2.22 2.99-3.78 8-10.61 20.15-24.55 26.42-30.31 1.58-1.45 5.3-4.95 8.27-7.77 2.96-2.83 7.78-7.26 10.69-9.84 2.92-2.59 6.29-5.59 7.5-6.66s3.47-2.74 5.04-3.71c1.57-0.96 2.85-2.07 2.85-2.45 0-0.39 1.93-1.94 4.29-3.45 2.36-1.52 4.57-3.23 4.92-3.8 0.35-0.58 4.29-3.47 8.76-6.43s8.52-5.84 8.99-6.4c1.1-1.32 13.24-9.43 15.17-10.14 0.82-0.3 4.95-2.88 9.2-5.73 1.4-0.95 2.78-1.84 4.11-2.67-7.37-12.39-13.14-25.73-16.96-39.68-0.39-1.35-0.76-2.71-1.12-4.07-1.61 0.36-3.38 0.74-5.27 1.11-5.18 1-9.8 2.12-10.27 2.48s-4.71 1.3-9.41 2.09c-23.86 3.98-28.62 4.74-32.95 5.3-2.59 0.34-5.67 0.69-6.85 0.79-1.18 0.09-4.26 0.42-6.85 0.73s-7.21 0.78-10.27 1.04c-5.89 0.51-51.92 1.18-52.37 0.76-0.14-0.13-2.57-0.48-5.4-0.76-2.82-0.29-6.48-0.71-8.13-0.94-1.64-0.22-4.92-0.62-7.27-0.89s-5.82-0.83-7.7-1.25c-5.32-1.18-8.41-1.81-10.27-2.11-0.94-0.15-4.03-0.93-6.85-1.72s-6.1-1.66-7.28-1.92c-1.17-0.26-2.52-0.75-2.99-1.1-0.47-0.34-1.9-0.87-3.17-1.17-1.28-0.3-3.39-1-4.71-1.55-1.31-0.54-2.58-1.05-2.82-1.13-6.23-2.09-14.95-6.84-25.53-13.9-8.61-5.74-11.86-8.51-22.213-18.92-6.926-6.96-7.812-8.18-6.85-9.41 1.68-2.13 14.384-14.7 18.383-18.19 8.53-7.42 27.52-18.83 36.21-21.74 0.24-0.08 1.51-0.59 2.82-1.14 1.32-0.54 3.43-1.24 4.71-1.54 1.27-0.3 2.7-0.83 3.17-1.18 0.47-0.34 1.82-0.83 2.99-1.09 1.18-0.26 4.46-1.13 7.28-1.92s5.91-1.57 6.85-1.72c1.86-0.3 4.95-0.93 10.27-2.11 1.88-0.42 5.35-0.98 7.7-1.25s5.63-0.67 7.27-0.9c10.15-1.38 15.34-1.63 33.81-1.65 19.46-0.02 36.92 0.7 42.95 1.78 1.5 0.26 4.01 0.57 5.57 0.69 1.55 0.11 4.95 0.48 7.54 0.81 4.33 0.56 9.02 1.31 32.95 5.3 4.7 0.79 8.94 1.73 9.41 2.09s5.09 1.48 10.27 2.48c1.94 0.38 3.75 0.76 5.39 1.14 3.92-15.34 9.98-30.11 18.04-43.73-1.35-0.85-2.76-1.76-4.19-2.72-4.25-2.85-8.38-5.43-9.2-5.73-1.93-0.71-14.07-8.82-15.17-10.14-0.47-0.56-4.52-3.44-8.99-6.4s-8.41-5.85-8.76-6.43c-0.35-0.57-2.56-2.28-4.92-3.8-2.36-1.51-4.29-3.06-4.29-3.45 0-0.38-1.28-1.49-2.85-2.45-1.57-0.97-3.83-2.64-5.04-3.71s-4.58-4.07-7.5-6.66c-2.91-2.59-7.73-7.02-10.69-9.84-2.97-2.82-6.69-6.32-8.27-7.78-6.27-5.75-18.42-19.7-26.42-30.3-1.17-1.57-2.52-3.26-2.99-3.78-0.47-0.51-2.5-3.44-4.51-6.5-2-3.05-4.04-6.13-4.52-6.84-4.7-6.86-16.22-30.13-16.22-32.75 0-0.66-0.27-1.47-0.61-1.81-1.28-1.28-5.68-20.71-6.71-29.63-0.69-5.91-0.76-29.01-0.1-29.67 0.33-0.33 6.27-0.47 12.87-0.45 6.59 0.02 13.84 0.21 16.8 0.55 8.92 1.03 28.35 5.43 29.63 6.71 0.34 0.34 1.15 0.61 1.81 0.61 2.62 0 25.89 11.52 32.75 16.22 0.71 0.48 3.79 2.52 6.85 4.52 3.06 2.01 5.98 4.04 6.49 4.51 0.52 0.47 2.21 1.82 3.78 2.99 10.6 8 24.55 20.15 30.3 26.42 1.46 1.58 4.96 5.3 7.78 8.27 2.82 2.96 7.25 7.78 9.84 10.69 2.59 2.92 5.59 6.29 6.66 7.5s2.74 3.47 3.71 5.04c0.96 1.57 2.07 2.85 2.45 2.85s1.94 1.93 3.45 4.29 3.23 4.57 3.8 4.92c0.58 0.35 3.47 4.29 6.43 8.76s5.84 8.52 6.4 8.99c1.32 1.1 9.43 13.24 10.14 15.17 0.3 0.82 2.88 4.95 5.73 9.2 0.99 1.46 1.92 2.91 2.78 4.29 13.62-8.02 28.36-14.14 43.67-18.1-0.37-1.66-0.76-3.48-1.14-5.43-1-5.18-2.12-9.8-2.48-10.27s-1.3-4.71-2.09-9.41c-3.99-23.93-4.74-28.62-5.3-32.95-0.33-2.59-0.7-5.99-0.81-7.54-0.12-1.56-0.43-4.07-0.69-5.57-1.08-6.03-1.8-23.49-1.78-42.95 0.02-18.47 0.27-23.66 1.65-33.81 0.23-1.64 0.63-4.92 0.9-7.27s0.83-5.82 1.25-7.7c1.18-5.32 1.81-8.41 2.11-10.27 0.15-0.94 0.93-4.03 1.72-6.85s1.66-6.1 1.92-7.28c0.26-1.17 0.75-2.52 1.09-2.99 0.35-0.47 0.88-1.9 1.18-3.17 0.3-1.28 1-3.39 1.54-4.71 0.55-1.31 1.06-2.58 1.14-2.82 2.09-6.23 6.84-14.95 13.9-25.53 5.74-8.61 8.51-11.86 18.92-22.211 5.66-5.627 7.52-7.271 8.68-7.172zm-473.14 211.99c-13.12-0.01-22.38 0.12-22.38 0.36-0.0005 0.58 65.527 65.42 89.703 88.77 6.91 6.68 13.31 12.94 14.22 13.91 1.97 2.11 2.27 2.13 7.76 0.42 5.09-1.59 7.12-2.12 9.42-2.48 0.94-0.14 3.25-0.66 5.13-1.15 1.89-0.49 9.97-2.09 17.98-3.57 8-1.47 15.12-2.9 15.83-3.19 0.7-0.28 1.57-0.45 1.92-0.38 1.63 0.34 0.34-1.79-2.87-4.75-3.81-3.52-37.56-37.05-37.56-37.32 0-0.09 13.09-0.08 29.09 0.01 16.01 0.09 29.1 0.06 29.1-0.08 0-1.22-2.03-5.65-2.59-5.65-0.39 0-0.94-0.7-1.21-1.56s-1.17-2.3-1.98-3.21c-0.82-0.91-3.03-3.95-4.92-6.77-1.88-2.82-3.7-5.51-4.05-5.99-3.51-4.86-10.75-16.46-12.81-20.55-1.43-2.83-2.7-5.26-2.84-5.41-0.24-0.28-43.69-0.79-112.74-1.34-5.026-0.04-9.829-0.06-14.203-0.07zm945.44 0c-4.37 0.01-9.17 0.03-14.2 0.07-69.05 0.55-112.5 1.06-112.74 1.34-0.14 0.15-1.41 2.58-2.84 5.41-2.06 4.09-9.3 15.69-12.81 20.55-0.35 0.48-2.17 3.17-4.06 5.99-1.88 2.82-4.09 5.86-4.91 6.77s-1.71 2.35-1.98 3.21-0.82 1.56-1.21 1.56c-0.56 0-2.59 4.43-2.59 5.65 0 0.14 13.09 0.17 29.09 0.08 16.01-0.09 29.1-0.1 29.1-0.01 0 0.27-33.75 33.8-37.56 37.32-3.21 2.96-4.5 5.09-2.88 4.75 0.36-0.07 1.22 0.1 1.93 0.38 0.71 0.29 7.83 1.72 15.83 3.19 8 1.48 16.09 3.08 17.98 3.57 1.88 0.49 4.19 1.01 5.13 1.16 2.3 0.35 4.41 0.91 8.99 2.4 5.28 1.71 6.1 1.68 8.1-0.33 0.96-0.97 7.4-7.23 14.31-13.91 25.02-24.2 89.7-88.22 89.7-88.79 0-0.24-9.26-0.37-22.38-0.36zm-472.72 48.58a156.91 156.91 0 0 0 -156.91 156.91 156.91 156.91 0 0 0 156.91 156.91 156.91 156.91 0 0 0 156.91 -156.91 156.91 156.91 0 0 0 -156.91 -156.91zm0 53.96a102.95 102.95 0 0 1 102.95 102.95 102.95 102.95 0 0 1 -102.95 102.94 102.95 102.95 0 0 1 -102.95 -102.94 102.95 102.95 0 0 1 102.95 -102.95zm-388.69 203.55c-0.87 0.05-1.34 0.52-2.27 1.46-1.03 1.04-7.53 7.36-14.44 14.04-25.024 24.2-89.704 88.22-89.704 88.79 0.0005 0.32 16.465 0.45 36.588 0.29 69.046-0.55 112.5-1.06 112.74-1.34 0.14-0.15 1.41-2.58 2.84-5.41 2.06-4.09 9.3-15.69 12.81-20.55 0.35-0.48 2.17-3.18 4.05-5.99 1.89-2.82 4.1-5.87 4.92-6.77 0.81-0.91 1.71-2.35 1.98-3.21s0.82-1.56 1.21-1.56c0.56 0 2.59-4.43 2.59-5.65 0-0.14-13.09-0.17-29.1-0.08-16 0.09-29.09 0.09-29.09 0 0-0.26 33.75-33.79 37.56-37.31 3.21-2.96 4.5-5.1 2.87-4.75-0.35 0.07-1.22-0.1-1.92-0.38-0.71-0.29-7.83-1.72-15.83-3.2-8.01-1.47-16.09-3.07-17.98-3.56-1.88-0.49-4.19-1.01-5.13-1.16-2.08-0.32-3.67-0.73-10.12-2.63-2.46-0.72-3.71-1.08-4.57-1.03zm777.38 0c-0.86-0.05-2.11 0.31-4.58 1.03-6.44 1.9-8.03 2.31-10.11 2.63-0.94 0.15-3.25 0.67-5.13 1.16-1.89 0.49-9.98 2.09-17.98 3.56-8 1.48-15.12 2.91-15.83 3.2-0.71 0.28-1.57 0.45-1.93 0.38-1.62-0.35-0.33 1.79 2.88 4.75 3.81 3.52 37.56 37.05 37.56 37.32 0 0.09-13.09 0.08-29.1-0.01-16-0.09-29.09-0.06-29.09 0.08 0 1.22 2.03 5.65 2.59 5.65 0.39 0 0.94 0.7 1.21 1.56s1.16 2.3 1.98 3.21 3.03 3.95 4.91 6.77c1.89 2.81 3.71 5.51 4.06 5.99 3.51 4.86 10.75 16.46 12.81 20.55 1.43 2.83 2.73 5.29 2.89 5.47s23.13 0.51 51.04 0.74c27.9 0.22 50.8 0.46 50.88 0.52 0.57 0.46 47.35 0.19 47.35-0.27 0-0.57-64.56-64.48-89.7-88.79-6.91-6.68-13.41-13-14.44-14.04-0.93-0.94-1.4-1.41-2.27-1.46zm-543.51 214.66c-1.22 0-5.65 2.03-5.65 2.59 0 0.39-0.7 0.94-1.56 1.21s-2.3 1.16-3.21 1.98-3.95 3.03-6.77 4.91c-2.82 1.89-5.51 3.71-5.99 4.06-4.86 3.51-16.46 10.75-20.55 12.81-2.83 1.43-5.26 2.7-5.41 2.84-0.28 0.24-0.79 43.69-1.34 112.74-0.16 20.12-0.03 36.58 0.29 36.58 0.57 0 64.59-64.68 88.79-89.7 6.68-6.91 13-13.41 14.04-14.44 1.87-1.85 1.88-1.91 0.42-6.85-1.89-6.44-2.3-8.03-2.63-10.11-0.14-0.94-0.66-3.25-1.15-5.13-0.49-1.89-2.09-9.98-3.57-17.98-1.47-8-2.9-15.12-3.19-15.83-0.28-0.71-0.45-1.57-0.38-1.93 0.34-1.62-1.79-0.33-4.75 2.88-3.52 3.81-37.05 37.56-37.32 37.56-0.09 0-0.08-13.09 0.01-29.1 0.09-16 0.06-29.09-0.08-29.09zm309.64 0c-0.14 0-0.17 13.09-0.08 29.09 0.09 16.01 0.09 29.1 0 29.1-0.26 0-33.8-33.75-37.31-37.56-2.96-3.21-5.1-4.5-4.75-2.88 0.07 0.36-0.1 1.22-0.38 1.93-0.29 0.71-1.72 7.83-3.2 15.83-1.47 8-3.07 16.09-3.56 17.98-0.49 1.88-1.01 4.19-1.16 5.13-0.32 2.08-0.73 3.67-2.63 10.11-1.45 4.94-1.44 5 0.43 6.85 1.04 1.03 7.35 7.53 14.04 14.44 6.68 6.91 29.27 29.92 50.18 51.14 20.91 21.21 38.29 38.56 38.61 38.56s0.45-16.46 0.29-36.58c-0.55-69.05-1.07-112.5-1.34-112.74-0.15-0.14-2.58-1.41-5.41-2.84-4.09-2.06-15.69-9.3-20.55-12.81-0.48-0.35-3.18-2.17-5.99-4.06-2.82-1.88-5.86-4.09-6.77-4.91s-2.35-1.71-3.21-1.98-1.56-0.82-1.56-1.21c0-0.56-4.43-2.59-5.65-2.59z" transform="translate(-812.72 113.34)"/>
</g>
</svg>
