<svg xmlns="http://www.w3.org/2000/svg" viewBox="0 0 2298.05 4975.09"><defs><style>.cls-1{fill:#fff;}</style></defs><g id="Layer_2" data-name="Layer 2"><g id="Layer_1-2" data-name="Layer 1"><polygon class="cls-1" points="1150.88 2191.54 1149.56 2234.65 1077.09 2224.57 1077.94 2197.14 1150.88 2191.54"/><path d="M1151,2236.37l-75.45-10.5.93-30.13,76-5.82Zm-72.37-13.1,69.48,9.67,1.22-39.78-69.93,5.37Z"/><polygon class="cls-1" points="1150.88 2308.51 1149.56 2351.63 1077.09 2341.55 1077.94 2314.11 1150.88 2308.51"/><path d="M1151,2353.34l-75.45-10.49.93-30.13,76-5.83Zm-72.37-13.09,69.48,9.66,1.22-39.77-69.93,5.37Z"/><polygon class="cls-1" points="1150.88 2417.36 1149.56 2460.47 1077.09 2450.4 1077.94 2422.96 1150.88 2417.36"/><path d="M1151,2462.19l-75.45-10.49.93-30.13,76-5.83Zm-72.37-13.09,69.48,9.66,1.22-39.78-69.93,5.37Z"/><polygon class="cls-1" points="1150.88 2535.79 1149.56 2578.9 1077.09 2568.82 1077.94 2541.39 1150.88 2535.79"/><path d="M1151,2580.62l-75.45-10.5.93-30.12,76-5.83Zm-72.37-13.1,69.48,9.67,1.22-39.78-69.93,5.37Z"/><g id="Stem"><path class="cls-1" d="M1143,983V4737.19a1251.63,1251.63,0,0,1,30,166.15q4,35.39,6.1,70h3.7V983Z"/><path d="M1184.28,4975.09h-6.59l-.11-1.66c-1.4-23.14-3.44-46.64-6.08-69.85a1253.3,1253.3,0,0,0-30-165.87l-.07-.25V981.18h42.83Zm-3.8-3.59h.8V984.77h-36.83V4736.92a1256.51,1256.51,0,0,1,30,166.17C1177.05,4925.82,1179.07,4948.83,1180.48,4971.5Z"/></g><g id="Petal_8" data-name="Petal 8"><path class="cls-1" d="M1480.73,516.71c-45.77,232.2-154.32,348.26-256,328.21s-158.1-168.63-112.32-400.83S1369.73,0,1390.45,4C1410.3,8,1526.51,284.51,1480.73,516.71Z"/><path d="M1247.17,848.62a117.73,117.73,0,0,1-22.78-2.23c-51.61-10.17-91.6-53.46-112.62-121.89-22.4-73-22.71-170-.89-280.7,10.57-53.61,30.75-110,60-167.68,24.25-47.84,54.11-95.47,88.73-141.57C1316.8,58.4,1378.1.06,1390.74,2.57c8.59,1.69,25.14,38.68,30,50,14.82,34.41,29.35,77.68,40.9,121.83,14.62,55.87,24.23,111.28,28.57,164.69,5.25,64.48,2.55,124.35-8,177.93-21.82,110.68-59,200.37-107.36,259.36C1336.1,823.58,1291.5,848.62,1247.17,848.62ZM1389.66,5.46c-10.39,0-66.37,49.3-127.66,130.9-54.09,72-123.71,183.91-148.17,308-21.73,110.2-21.45,206.76.81,279.24,20.67,67.32,59.86,109.88,110.33,119.83a114.6,114.6,0,0,0,22.18,2.17c43.42,0,87.22-24.66,125.38-71.16,48.1-58.61,85-147.84,106.73-258,24.43-123.91,2.33-254-20.51-341.28-11.52-44-26-87.13-40.76-121.41-13.82-32.09-24.12-47.49-27.83-48.22A2.57,2.57,0,0,0,1389.66,5.46Z"/><path class="cls-1" d="M1136.51,461.43C1175,266.29,1309.39,82.14,1380.77,6.81c-44.94,26.73-227.57,223.29-269.71,437-29,147-17,260.53,21.53,329.1C1112,697.5,1110.85,591.57,1136.51,461.43Z"/><path d="M1137.24,784.29l-6-10.61c-41.42-73.73-49.12-191-21.69-330.14,22.84-115.84,85.5-221.21,134.05-289.22C1301.59,73.17,1358.26,18.45,1380,5.52L1389.29,0l-7.43,7.85C1314.42,79,1176.67,265.47,1138,461.72l-1.47-.29,1.47.29c-24.36,123.58-25.73,231.07-4,310.83ZM1369.61,16.67C1312,63,1151.85,244.67,1112.54,444.12c-25.94,131.54-20.39,243.28,15.45,316.8-18.56-78.78-16.17-182,7-299.78,16.85-85.48,54.87-179.78,110-272.71C1282.16,125.76,1328,62.66,1369.61,16.67Z"/><path class="cls-1" d="M1466.8,516.27c43.59-221.13-62.87-483.68-81.26-487.3l-157.87,800.8C1321.94,848.35,1423.21,737.41,1466.8,516.27Z"/><path d="M1248,833.26a106.14,106.14,0,0,1-20.59-2l-1.47-.29L1384.36,27.2l1.47.29c11.52,2.28,43.1,75.58,65,163.2a931,931,0,0,1,25.71,156.55c4.54,61.32,1.75,118.29-8.31,169.32h0c-20.78,105.42-55.66,190.93-100.86,247.3C1331.05,809.19,1289.31,833.26,1248,833.26Zm-18.54-4.68c46.29,8.43,94.39-15.17,135.64-66.6,44.9-56,79.57-141.05,100.26-246,23.26-118,3.39-241.63-17.37-324.56-23-92-52.15-152.7-61.34-160.22Z"/><path class="cls-1" d="M1385.54,29l-.18.91c32.7,60.29,106.22,284.84,68.05,478.45-42,212.85-135.56,325.27-225.54,320.41l-.2,1c94.27,18.58,195.54-92.36,239.13-313.5S1403.93,32.59,1385.54,29Z"/><path d="M1248,833.26a106.14,106.14,0,0,1-20.59-2l-1.47-.29.74-3.78,1.31.07c45.32,2.45,90.08-24.51,129.48-78C1399.36,692.44,1432,609,1451.94,508c20.72-105.1,7.39-215-7.45-288.63-17-84.54-43.27-157.14-60.45-188.82l-.26-.47.57-2.92,1.48.29c11.52,2.28,43.1,75.58,65,163.2a931,931,0,0,1,25.71,156.55c4.54,61.32,1.75,118.29-8.31,169.32-20.78,105.42-55.66,190.93-100.86,247.3C1331.05,809.19,1289.31,833.26,1248,833.26Zm-6.17-3.19c42.41,2.53,85.68-21.22,123.27-68.09,44.9-56,79.57-141.05,100.26-246,23.26-118,3.39-241.63-17.37-324.56-21.16-84.5-47.45-142.61-58.71-157.34,17.25,34.05,41.92,104,58.18,184.74,14.89,73.93,28.27,184.22,7.45,289.8-20,101.41-52.85,185.24-95,242.45C1340,778,1318.49,798.49,1295.94,812,1278.12,822.58,1260,828.65,1241.8,830.07Z"/></g><g id="Petal_7" data-name="Petal 7"><path class="cls-1" d="M936.46,467.36c131.83,196.56,137.14,355.38,51,413.13s-231-7.44-362.86-204-132.06-496-114.52-507.81C526.91,157.41,804.64,270.8,936.46,467.36Z"/><path d="M918.67,902.14c-29.7,0-62.31-9-96.17-27C755.08,839.44,686.22,771,623.39,677.32c-30.44-45.38-56.06-99.54-76.16-161-16.67-51-29.24-105.77-37.35-162.84-13.41-94.3-11.29-178.9-.6-186.07,7.27-4.87,45.12,9.58,56.55,14.13,34.82,13.85,75.69,34.17,115.08,57.23C730.75,268,776.73,300.34,817.57,335c49.3,41.88,89.72,86.12,120.14,131.48,62.84,93.69,100,183.36,107.49,259.31,7,71.24-13.18,126.6-56.87,155.91C968,895.35,944.44,902.14,918.67,902.14ZM514,169.36a5.74,5.74,0,0,0-3,.57c-7.57,5.07-12.72,80.34,1.9,183.14,12.67,89.18,42.57,217.53,113,322.58,62.56,93.29,131,161.37,198,196.88,62.22,33,120,35.37,162.75,6.71s62.45-83,55.55-153.12c-7.43-75.45-44.43-164.64-107-257.93C864.87,363.3,757.27,287,679.4,241.38c-39.27-23-80-43.24-114.68-57C537.93,173.69,520.87,169.36,514,169.36Z"/><path class="cls-1" d="M654,671.67C543.19,506.49,508,281.23,505.23,177.49c-12.88,50.67-3,318.8,118.31,499.73C707,801.7,795.75,873.47,871.47,894.72,803.56,855.94,727.85,781.83,654,671.67Z"/><path d="M882.79,899.45l-11.72-3.29c-81.42-22.85-169.77-100.3-248.78-218.1-65.76-98.06-96-216.89-109.72-299.3-16.42-98.36-15-177.13-8.79-201.64l2.66-10.47.29,10.8c2.64,98,37.07,327.26,148.49,493.39,70.16,104.61,145.19,181.58,217,222.57ZM504.3,192.35c-8,73.44,7.25,315.2,120.48,484,74.68,111.34,157.61,186.43,234.94,213.08-68.83-42.59-140.15-117.29-207-217-48.52-72.36-88.31-165.93-115.07-270.6C519.61,331.33,507.41,254.29,504.3,192.35Z"/><path class="cls-1" d="M926.3,476.9c-125.54-187.19-386.47-297.56-402-287.12L978.89,867.67C1058.69,814.15,1051.84,664.09,926.3,476.9Z"/><path d="M978.48,869.75,522.18,189.37l1.25-.83c9.75-6.55,83.91,23,161.38,69.4a930.89,930.89,0,0,1,128.88,92.52c46.58,40.15,84.89,82.4,113.86,125.6,59.84,89.24,95.65,174.37,103.54,246.19,7.41,67.39-10.83,119.48-51.36,146.66ZM526.61,190.59l452.68,675c38.69-26.75,56-77.46,48.82-143-7.84-71.34-43.48-156-103-244.84-67-99.88-168.46-173.25-241.79-217.21C601.94,211.75,538.4,189.42,526.61,190.59Z"/><path class="cls-1" d="M524.26,189.78l.52.78c65.76,19.51,276.53,126.3,386.44,290.19,120.84,180.17,134.14,325.85,67.09,386l.58.87c79.8-53.51,72.95-203.57-52.59-390.76S539.83,179.34,524.26,189.78Z"/><path d="M978.48,869.75l-2.15-3.2,1-.87c33.77-30.31,46.37-81,36.44-146.69C1003.18,649.16,967.3,567.06,910,481.59c-59.67-89-146.79-157.23-209.37-198.83C628.8,235,558.9,202.24,524.36,192l-.52-.15-1.66-2.47,1.25-.83c9.75-6.55,83.91,23,161.38,69.4a930.89,930.89,0,0,1,128.88,92.52c46.58,40.15,84.89,82.4,113.86,125.6,59.84,89.24,95.65,174.37,103.54,246.19,7.41,67.39-10.83,119.48-51.36,146.66Zm-448-679c36.27,11.89,103.18,43.9,171.76,89.49C765.08,322,852.53,390.54,912.47,479.91c57.57,85.85,93.61,168.36,104.24,238.63,5,33.09,4.28,62.78-2.15,88.25-5.08,20.12-13.63,37.25-25.47,51.1,31.77-28.19,45.58-75.6,39-135.32-7.84-71.34-43.48-156-103-244.84-67-99.88-168.46-173.25-241.79-217.21C608.56,215.72,548.88,193.23,530.51,190.77Z"/></g><g id="Petal_6" data-name="Petal 6"><path class="cls-1" d="M516.71,817.31c232.2,45.78,348.26,154.33,328.21,256s-168.63,158.11-400.83,112.33S0,928.31,4,907.59C8,887.75,284.51,771.54,516.71,817.31Z"/><path d="M596.38,1203.3c-46.71,0-98-5.37-152.58-16.14-53.61-10.57-110-30.75-167.68-60-47.84-24.26-95.47-54.11-141.57-88.73C58.4,981.25.08,919.93,2.57,907.3c1.69-8.58,38.68-25.13,50-30C87,862.48,130.23,848,174.38,836.4c55.87-14.62,111.28-24.23,164.69-28.58,64.48-5.24,124.34-2.54,177.93,8,110.68,21.82,200.37,58.94,259.36,107.36,55.34,45.41,80.21,98.84,70,150.45s-53.46,91.61-121.89,112.62C687.54,1197.62,644.36,1203.3,596.38,1203.3ZM401,808.12c-84.93,0-165.57,15.41-225.84,31.18-44,11.51-87.13,26-121.41,40.76C21.64,893.88,6.24,904.17,5.51,907.88c-1.76,8.94,47.82,65.81,130.85,128.17,72,54.09,183.91,123.7,308,148.17,54.41,10.72,105.51,16.09,152,16.09,47.68,0,90.53-5.64,127.23-16.91,67.32-20.67,109.88-59.85,119.83-110.33s-14.55-102.88-69-147.55c-58.61-48.1-147.84-85-258-106.74C478.05,811.22,439.08,808.12,401,808.12Z"/><path class="cls-1" d="M461.43,1161.54C266.29,1123.07,82.14,988.65,6.81,917.28c26.73,44.94,223.29,227.57,437,269.7,147.05,29,260.54,17,329.11-21.52C697.5,1186.06,591.57,1187.19,461.43,1161.54Z"/><path d="M596.33,1204.6c-46.66,0-98-5.35-152.78-16.15-115.85-22.83-221.23-85.5-289.23-134C73.16,996.46,18.45,939.78,5.52,918L0,908.75l7.85,7.44C79,983.62,265.47,1121.38,461.72,1160.07c123.58,24.36,231.07,25.73,310.83,3.94l11.74-3.2-10.61,6C729,1191.89,668.24,1204.6,596.33,1204.6ZM16.67,928.44C63,986,244.67,1146.19,444.12,1185.51c131.54,25.93,243.28,20.38,316.8-15.45-34.93,8.23-74.7,12.34-118.39,12.34-54.83,0-115.86-6.47-181.39-19.39-85.48-16.85-179.78-54.88-272.71-110C125.76,1015.89,62.66,970,16.67,928.44Z"/><path class="cls-1" d="M516.27,831.25C295.14,787.65,32.59,894.12,29,912.51l800.8,157.87C848.35,976.1,737.41,874.84,516.27,831.25Z"/><path d="M831,1072.14,27.2,913.69l.29-1.47c2.28-11.52,75.58-43.1,163.2-65a931,931,0,0,1,156.55-25.71c61.32-4.55,118.29-1.75,169.32,8.31C622,850.56,707.49,885.43,763.86,930.64c52.89,42.42,76.82,92.15,67.38,140ZM31.2,911.42l797.38,157.19C837,1022.33,813.41,974.23,762,933c-56-44.9-141.06-79.57-246-100.26-118-23.26-241.63-3.39-324.56,17.37C99.42,873.12,38.72,902.24,31.2,911.42Z"/><path class="cls-1" d="M29,912.51l.91.18C90.17,880,314.72,806.47,508.33,844.63c212.85,42,325.27,135.56,320.41,225.54l1,.21c18.58-94.28-92.36-195.54-313.5-239.13S32.59,894.12,29,912.51Z"/><path d="M831,1072.14l-3.78-.75.07-1.3c2.45-45.3-24.51-90.08-78-129.49C692.44,898.69,609,866,508,846.11c-105.1-20.72-215-7.39-288.63,7.45-84.54,17-157.14,43.27-188.82,60.45l-.47.25-2.92-.57.29-1.47c2.28-11.52,75.58-43.1,163.2-65a931,931,0,0,1,156.55-25.71c61.32-4.55,118.29-1.75,169.32,8.31C622,850.56,707.49,885.43,763.86,930.64c52.89,42.42,76.82,92.15,67.38,140ZM391.67,832.45c38.24,0,77.92,3,117,10.71,101.41,20,185.24,52.85,242.45,95C778,958.05,798.49,979.55,812,1002.1c10.63,17.83,16.7,36,18.12,54.15,2.53-42.4-21.22-85.69-68.09-123.27-56-44.9-141.05-79.57-246-100.26-118-23.26-241.63-3.39-324.56,17.37-84.5,21.15-142.61,47.45-157.34,58.7,34.05-17.24,104-41.92,184.74-58.17C265.42,841.23,326.46,832.45,391.67,832.45Z"/></g><g id="Petal_5" data-name="Petal 5"><path class="cls-1" d="M467.36,1361.58c196.56-131.82,355.38-137.13,413.13-51s-7.44,231-204,362.85-496,132.06-507.81,114.52C157.41,1771.14,270.79,1493.41,467.36,1361.58Z"/><path d="M231,1797.51c-35.58,0-59.87-3.23-63.57-8.74-4.87-7.27,9.58-45.13,14.13-56.56,13.85-34.81,34.17-75.68,57.23-115.07,29.17-49.84,61.55-95.82,96.25-136.66,41.88-49.3,86.12-89.72,131.48-120.14,93.69-62.84,183.36-100,259.31-107.49,71.23-7,126.6,13.18,155.9,56.87s27,102.58-6.55,165.82C839.44,1543,771,1611.82,677.32,1674.66c-45.38,30.43-99.54,56.06-161,76.15-51,16.68-105.77,29.25-162.84,37.36C307.83,1794.66,264.43,1797.51,231,1797.51Zm236.36-435.93.83,1.25C363.3,1433.17,287,1540.77,241.38,1618.65c-23,39.27-43.24,80-57,114.67-12.92,32.47-16.53,50.64-14.42,53.78,5.07,7.56,80.34,12.71,183.14-1.9,89.18-12.67,217.53-42.57,322.58-113,93.29-62.56,161.37-131,196.88-198,33-62.22,35.37-120,6.71-162.75s-83-62.45-153.12-55.55c-75.45,7.43-164.64,44.43-257.93,107Z"/><path class="cls-1" d="M671.67,1644.08C506.49,1754.86,281.23,1790,177.49,1792.82c50.67,12.88,318.8,3,499.73-118.31C801.7,1591,873.47,1502.3,894.72,1426.57,855.94,1494.49,781.83,1570.2,671.67,1644.08Z"/><path d="M233,1798.6c-26.29,0-45.73-1.75-55.88-4.33l-10.47-2.66,10.8-.29c98-2.64,327.26-37.07,493.39-148.49l.83,1.25-.83-1.25c104.61-70.16,181.58-145.2,222.57-217l6-10.57L896.16,1427c-22.85,81.42-100.3,169.77-218.1,248.77-98.06,65.77-216.89,96-299.3,109.72C321.12,1795.09,270.21,1798.6,233,1798.6Zm-40.65-4.86c73.44,8,315.2-7.25,484-120.48,111.34-74.67,186.43-157.6,213.08-234.93-42.59,68.83-117.29,140.15-217,207-72.36,48.53-165.93,88.32-270.6,115.08C331.33,1778.44,254.29,1790.64,192.35,1793.74Z"/><path class="cls-1" d="M476.9,1371.74c-187.19,125.54-297.56,386.48-287.12,402l677.88-454.62C814.15,1239.36,664.09,1246.2,476.9,1371.74Z"/><path d="M189.37,1775.86l-.83-1.24c-6.55-9.76,23-83.92,69.4-161.39a931.38,931.38,0,0,1,92.52-128.87c40.14-46.58,82.4-84.89,125.6-113.86,89.24-59.85,174.37-95.65,246.19-103.54,67.4-7.41,119.48,10.83,146.66,51.36l.84,1.25Zm561.34-507.52a257.27,257.27,0,0,0-28.14,1.6c-71.34,7.84-156,43.47-244.84,103-99.88,67-173.25,168.46-217.22,241.78-48.76,81.34-71.09,144.85-69.92,156.66l675-452.68C842.78,1285.8,802.61,1268.34,750.71,1268.34Z"/><path class="cls-1" d="M189.78,1773.78l.77-.52c19.52-65.76,126.31-276.52,290.2-386.43,180.17-120.84,325.85-134.15,386-67.09l.87-.58c-53.51-79.8-203.57-73-390.76,52.58S179.34,1758.22,189.78,1773.78Z"/><path d="M189.37,1775.86l-.83-1.24c-6.55-9.76,23-83.92,69.4-161.39a931.38,931.38,0,0,1,92.52-128.87c40.14-46.58,82.4-84.89,125.6-113.86,89.24-59.85,174.37-95.65,246.19-103.54,67.39-7.41,119.48,10.83,146.66,51.36l.84,1.25-3.2,2.14-.87-1c-30.31-33.76-81-46.36-146.69-36.43-69.84,10.55-151.93,46.44-237.41,103.76-89,59.67-157.22,146.79-198.82,209.36C235,1669.25,202.24,1739.14,192,1773.69l-.15.52Zm561.34-507.52a257.27,257.27,0,0,0-28.14,1.6c-71.34,7.84-156,43.47-244.84,103-99.88,67-173.25,168.46-217.22,241.78-44.79,74.72-67.28,134.4-69.74,152.77,11.89-36.27,43.9-103.19,89.49-171.77C322,1533,390.54,1445.52,479.91,1385.58,565.76,1328,648.27,1292,718.54,1281.34c33.09-5,62.78-4.28,88.25,2.14,20.12,5.08,37.25,13.63,51.1,25.48C834.28,1282.35,797.2,1268.34,750.71,1268.34Z"/></g><g id="Petal_4" data-name="Petal 4"><path class="cls-1" d="M817.31,1781.34c45.78-232.21,154.33-348.27,256-328.21s158.11,168.62,112.33,400.83S928.31,2298.09,907.59,2294C887.75,2290.1,771.54,2013.54,817.31,1781.34Z"/><path d="M908.15,2295.56a4.54,4.54,0,0,1-.85-.08c-8.58-1.69-25.13-38.68-30-50-14.82-34.41-29.35-77.68-40.9-121.84-14.62-55.87-24.23-111.27-28.58-164.69-5.24-64.48-2.54-124.34,8-177.92,21.82-110.69,58.94-200.37,107.36-259.37,45.41-55.33,98.84-80.2,150.45-70s91.61,53.47,112.62,121.89c22.4,73,22.71,170,.89,280.71-10.57,53.6-30.75,110-60,167.68-24.26,47.84-54.11,95.46-88.73,141.56C982.42,2238.08,922.46,2295.56,908.15,2295.56Zm142.75-843.13c-43.43,0-87.22,24.65-125.38,71.16-48.1,58.61-85,147.84-106.74,258-24.42,123.91-2.32,254,20.52,341.27,11.51,44,26,87.14,40.76,121.41,13.82,32.09,24.11,47.5,27.82,48.23a2.78,2.78,0,0,0,.51,0c10.39,0,66.37-49.29,127.66-130.89,54.09-72,123.7-183.92,148.17-308,21.72-110.2,21.44-206.76-.82-279.24-20.67-67.33-59.85-109.88-110.33-119.83A114.5,114.5,0,0,0,1050.9,1452.43Z"/><path class="cls-1" d="M1161.54,1836.62c-38.47,195.13-172.89,379.28-244.26,454.61,44.94-26.72,227.57-223.28,269.7-437,29-147,17-260.54-21.52-329.11C1186.06,1600.55,1187.19,1706.48,1161.54,1836.62Z"/><path d="M908.75,2298.05l7.44-7.85c67.43-71.17,205.19-257.62,243.88-453.87l1.47.29-1.47-.29c24.36-123.59,25.72-231.07,3.94-310.83l-3.2-11.74,6,10.61c41.42,73.73,49.12,191,21.68,330.13-22.83,115.84-85.5,221.22-134,289.22-57.94,81.16-114.62,135.87-136.36,148.8Zm261.31-760.92c18.55,78.78,16.16,182-7,299.78-16.85,85.47-54.88,179.77-110,272.71-37.15,62.66-83,125.77-124.6,171.76,57.57-46.29,217.75-228,257.07-427.46C1211.44,1722.38,1205.89,1610.65,1170.06,1537.13Z"/><path class="cls-1" d="M831.25,1781.77c-43.6,221.14,62.87,483.69,81.26,487.31l157.87-800.8C976.1,1449.69,874.84,1560.64,831.25,1781.77Z"/><path d="M913.69,2270.84l-1.47-.29c-11.52-2.27-43.11-75.57-65-163.19a931,931,0,0,1-25.71-156.55c-4.55-61.32-1.76-118.29,8.3-169.33,20.79-105.41,55.66-190.92,100.87-247.29,42.42-52.89,92.14-76.83,140-67.39l1.47.29Zm-82.44-489.07,1.47.29c-23.26,118-3.39,241.63,17.37,324.57,23,92,52.15,152.7,61.33,160.22l157.19-797.38c-46.28-8.43-94.39,15.16-135.63,66.6-44.9,56-79.57,141-100.26,246Z"/><path class="cls-1" d="M912.51,2269.08l.18-.91c-32.7-60.3-106.22-284.85-68.06-478.45,42-212.85,135.56-325.27,225.54-320.41l.21-1c-94.28-18.59-195.54,92.36-239.13,313.49S894.12,2265.46,912.51,2269.08Z"/><path d="M913.69,2270.84l-1.47-.29c-11.52-2.27-43.11-75.57-65-163.19a931,931,0,0,1-25.71-156.55c-4.55-61.32-1.76-118.29,8.3-169.33,20.79-105.41,55.66-190.92,100.87-247.29,42.42-52.89,92.14-76.83,140-67.39l1.47.29-.75,3.78-1.3-.07c-45.3-2.44-90.08,24.51-129.49,78C898.69,1605.61,866,1689,846.11,1790c-20.72,105.09-7.39,215,7.45,288.63,17,84.54,43.27,157.13,60.45,188.81l.25.48Zm136.41-803.05c-40.42,0-81.35,23.67-117.12,68.28-44.9,56-79.57,141-100.26,246-23.26,118-3.39,241.63,17.37,324.57,21.15,84.5,47.45,142.6,58.7,157.33-17.24-34-41.92-104-58.18-184.73-14.88-73.93-28.26-184.22-7.45-289.8,20-101.41,52.85-185.25,95-242.45,19.86-26.94,41.36-47.42,63.91-60.88,17.82-10.64,36-16.71,54.15-18.12Q1053.18,1467.79,1050.1,1467.79Z"/></g><g id="Petal_3" data-name="Petal 3"><path class="cls-1" d="M1361.58,1830.69c-131.82-196.56-137.13-355.38-51-413.13s231,7.44,362.85,204,132.06,496,114.52,507.81C1771.14,2140.63,1493.41,2027.25,1361.58,1830.69Z"/><path d="M1784,2131.6c-12.68,0-42-11.21-51.81-15.11-34.81-13.85-75.68-34.18-115.07-57.23-49.84-29.17-95.82-61.55-136.66-96.25-49.3-41.89-89.72-86.12-120.14-131.48-62.84-93.7-100-183.37-107.49-259.31-7-71.24,13.18-126.61,56.87-155.91s102.58-27,165.82,6.56c67.43,35.74,136.28,104.16,199.12,197.85,30.43,45.38,56,99.55,76.15,161,16.68,51,29.25,105.76,37.36,162.84,13.41,94.3,11.29,178.89.6,186.06A8.8,8.8,0,0,1,1784,2131.6Zm-404.63-732.68c-25.19,0-48.21,6.61-68,19.88-42.73,28.66-62.46,83-55.55,153.12,7.43,75.46,44.43,164.65,107,257.94,70.34,104.88,177.94,181.23,255.82,226.81,39.27,23,80,43.23,114.67,57,32.47,12.91,50.64,16.53,53.78,14.42,7.57-5.07,12.71-80.35-1.9-183.15-12.68-89.17-42.58-217.52-113-322.58-62.56-93.28-131-161.36-198-196.87C1440.73,1407.81,1408.6,1398.92,1379.39,1398.92Z"/><path class="cls-1" d="M1644.08,1626.38c110.78,165.18,145.94,390.44,148.74,494.18,12.88-50.68,3-318.81-118.31-499.73-83.48-124.48-172.21-196.25-247.94-217.5C1494.49,1442.11,1570.2,1516.21,1644.08,1626.38Z"/><path d="M1791.61,2131.4l-.29-10.8c-2.64-98-37.07-327.26-148.49-493.39-70.16-104.61-145.2-181.58-217-222.58l-10.57-6,11.72,3.28c81.42,22.85,169.77,100.31,248.77,218.11,65.77,98.06,96,216.89,109.72,299.3,16.42,98.36,15,177.12,8.8,201.64Zm-146.29-505.86c48.53,72.35,88.32,165.93,115.07,270.6,18,70.58,30.25,147.62,33.35,209.56,8-73.44-7.24-315.2-120.48-484-74.67-111.35-157.6-186.43-234.93-213.08C1507.16,1451.17,1578.48,1525.87,1645.32,1625.54Z"/><path class="cls-1" d="M1371.74,1821.15c125.54,187.19,386.48,297.55,402,287.11l-454.62-677.88C1239.36,1483.9,1246.2,1634,1371.74,1821.15Z"/><path d="M1770.27,2110.42c-19.23,0-86.77-28.19-157-70.32a930.5,930.5,0,0,1-128.87-92.51c-46.58-40.15-84.89-82.41-113.86-125.61-59.85-89.23-95.65-174.36-103.54-246.18-7.41-67.4,10.83-119.48,51.36-146.66l1.25-.84.83,1.25,455.46,679.12-1.24.84A8.05,8.05,0,0,1,1770.27,2110.42Zm-451.52-677.95c-38.69,26.76-56,77.47-48.81,143,7.84,71.34,43.47,156,103,244.84,67,99.89,168.46,173.26,241.78,217.22,79.3,47.54,141.66,70,155.68,70a9.55,9.55,0,0,0,1-.05Z"/><path class="cls-1" d="M1773.78,2108.26l-.52-.77c-65.76-19.51-276.52-126.3-386.43-290.19-120.84-180.18-134.15-325.86-67.09-386l-.58-.87c-79.81,53.52-73,203.57,52.58,390.77S1758.22,2118.7,1773.78,2108.26Z"/><path d="M1770.27,2110.42c-19.23,0-86.78-28.19-157-70.32a930.5,930.5,0,0,1-128.87-92.51c-46.58-40.15-84.89-82.41-113.86-125.61-59.85-89.23-95.65-174.36-103.54-246.18-7.41-67.4,10.83-119.48,51.36-146.66l1.25-.84,2.14,3.2-1,.87c-33.76,30.3-46.36,81-36.43,146.69,10.55,69.83,46.44,151.92,103.76,237.4,59.67,89,146.79,157.23,209.36,198.83,71.82,47.74,141.71,80.51,176.26,90.76l.52.16,1.65,2.47-1.24.83A8.05,8.05,0,0,1,1770.27,2110.42ZM1309,1440.16c-31.78,28.19-45.59,75.59-39,135.31,7.84,71.34,43.47,156,103,244.84,67,99.89,168.46,173.26,241.78,217.22,74.71,44.79,134.39,67.29,152.77,69.74-36.27-11.88-103.19-43.9-171.77-89.49-62.8-41.74-150.25-110.27-210.19-199.65-57.57-85.84-93.62-168.36-104.24-238.63-5-33.09-4.28-62.78,2.15-88.24C1288.56,1471.14,1297.11,1454,1309,1440.16Z"/></g><g id="Petal_2" data-name="Petal 2"><path class="cls-1" d="M1781.34,1480.73c-232.21-45.77-348.27-154.32-328.21-256s168.62-158.1,400.83-112.32,444.13,257.37,440.05,278.09C2290.1,1410.3,2013.54,1526.51,1781.34,1480.73Z"/><path d="M1896.59,1492.82c-41,0-79.68-3.54-115.54-10.61-110.69-21.82-200.38-59-259.37-107.36-55.33-45.41-80.2-98.84-70-150.46s53.47-91.6,121.89-112.62c73-22.4,170-22.71,280.71-.89,53.6,10.57,110,30.75,167.68,60,47.84,24.25,95.46,54.11,141.56,88.73,76.16,57.2,134.48,118.51,132,131.14-1.69,8.59-38.68,25.14-50,30-34.41,14.83-77.68,29.36-121.84,40.91-55.86,14.62-111.27,24.23-164.69,28.57Q1927,1492.83,1896.59,1492.82Zm-115-13.56c123.91,24.43,254,2.33,341.27-20.51,44-11.52,87.14-26,121.41-40.76,32.09-13.83,47.5-24.12,48.23-27.83,1.76-8.94-47.83-65.8-130.85-128.16-72-54.09-183.92-123.71-308-148.17-110.2-21.73-206.76-21.45-279.25.81-67.32,20.67-109.87,59.86-119.82,110.33s14.55,102.88,69,147.56C1582.2,1420.63,1671.43,1457.54,1781.63,1479.26Z"/><path class="cls-1" d="M1836.62,1136.51c195.13,38.47,379.28,172.88,454.61,244.26-26.72-44.94-223.28-227.57-437-269.71-147-29-260.54-17-329.11,21.53C1600.55,1112,1706.48,1110.85,1836.62,1136.51Z"/><path d="M2298.05,1389.29l-7.85-7.43c-71.17-67.44-257.62-205.19-453.87-243.88-123.59-24.36-231.07-25.73-310.83-4l-11.74,3.21,10.61-6c73.73-41.42,191-49.12,330.13-21.69,115.84,22.84,221.22,85.51,289.22,134.05,81.16,57.95,135.87,114.62,148.8,136.36ZM1836.91,1135c85.47,16.85,179.77,54.87,272.71,110,62.66,37.15,125.77,83,171.76,124.6-46.29-57.57-228-217.75-427.46-257.07-131.54-25.93-243.27-20.38-316.8,15.45C1615.91,1109.43,1719.16,1111.82,1836.91,1135Z"/><path class="cls-1" d="M1781.77,1466.8c221.14,43.59,483.69-62.87,487.31-81.26l-800.8-157.87C1449.69,1321.94,1560.64,1423.21,1781.77,1466.8Z"/><path d="M1895,1478.69c-40.33,0-78.35-3.48-113.55-10.42-105.41-20.78-190.92-55.66-247.29-100.86-52.89-42.42-76.82-92.15-67.39-140l.29-1.47,803.75,158.45-.29,1.47c-2.27,11.52-75.57,43.1-163.19,65a931.19,931.19,0,0,1-156.55,25.71Q1922.27,1478.7,1895,1478.69Zm-425.56-249.25c-8.44,46.27,15.16,94.38,66.6,135.63,56,44.9,141,79.57,246,100.26,118,23.26,241.63,3.39,324.57-17.37,92-23,152.7-52.15,160.21-61.33Z"/><path class="cls-1" d="M2269.08,1385.54l-.91-.18c-60.3,32.7-284.85,106.22-478.45,68.05-212.85-42-325.27-135.56-320.41-225.54l-1-.2c-18.59,94.27,92.36,195.54,313.49,239.13S2265.46,1403.93,2269.08,1385.54Z"/><path d="M1895,1478.69c-40.33,0-78.35-3.48-113.55-10.42-105.41-20.78-190.92-55.66-247.29-100.86-52.89-42.42-76.82-92.15-67.39-140l.29-1.47,3.78.74-.07,1.31c-2.44,45.3,24.51,90.08,78,129.48,56.85,41.92,140.27,74.6,241.25,94.5,105.1,20.72,215,7.39,288.63-7.45,84.54-17,157.13-43.27,188.81-60.45l.48-.26,2.91.58-.29,1.47c-2.27,11.52-75.57,43.1-163.19,65a931.19,931.19,0,0,1-156.55,25.71Q1922.27,1478.7,1895,1478.69ZM1468,1241.8c-2.54,42.4,21.22,85.68,68.09,123.27,56,44.9,141,79.57,246,100.26,118,23.26,241.63,3.39,324.57-17.37,84.5-21.16,142.6-47.45,157.33-58.71-34,17.25-104,41.92-184.73,58.18-73.93,14.89-184.22,28.27-289.8,7.45-101.41-20-185.25-52.85-242.45-95-26.94-19.86-47.42-41.37-60.88-63.92C1475.46,1278.12,1469.39,1260,1468,1241.8Z"/></g><g id="Petal_1" data-name="Petal 1"><path class="cls-1" d="M1830.69,936.46c-196.56,131.83-355.38,137.14-413.13,51s7.44-231,204-362.86,496-132.06,507.81-114.52C2140.63,526.91,2027.25,804.64,1830.69,936.46Z"/><path d="M1545.25,1046.56c-58.23,0-103.45-20.23-128.94-58.23-29.3-43.69-27-102.58,6.56-165.83,35.74-67.42,104.16-136.28,197.85-199.11,45.38-30.44,99.54-56.06,161-76.16,51-16.67,105.76-29.24,162.84-37.35,94.3-13.41,178.89-11.29,186.06-.6,4.88,7.27-9.58,45.12-14.12,56.55-13.85,34.82-34.18,75.69-57.23,115.08-29.17,49.84-61.55,95.82-96.25,136.66-41.89,49.3-86.12,89.72-131.48,120.14l-.84-1.25.84,1.25c-93.7,62.84-183.37,100-259.31,107.49Q1558.32,1046.56,1545.25,1046.56Zm520.85-543c-31.59,0-73.39,2.52-121.13,9.31-89.17,12.67-217.52,42.57-322.58,113-93.28,62.56-161.36,131-196.87,198-33,62.22-35.37,120-6.72,162.75,24.91,37.14,69.26,56.9,126.46,56.9q12.9,0,26.66-1.35c75.46-7.43,164.65-44.43,257.93-107,104.89-70.35,181.24-178,226.82-255.82,23-39.27,43.23-80,57-114.68,12.91-32.46,16.53-50.63,14.42-53.77C2125.4,506.89,2102.54,503.54,2066.1,503.54Z"/><path class="cls-1" d="M1626.38,654c165.18-110.78,390.44-146,494.18-148.74-50.68-12.88-318.81-3-499.74,118.31C1496.35,707,1424.58,795.75,1403.33,871.47,1442.11,803.56,1516.21,727.85,1626.38,654Z"/><path d="M1398.6,882.79l3.28-11.72c22.85-81.42,100.31-169.77,218.11-248.78,98.06-65.76,216.89-96,299.3-109.72,98.36-16.41,177.13-15,201.64-8.79l10.47,2.66-10.8.29c-98,2.64-327.26,37.07-493.39,148.49l-.83-1.25.83,1.25c-104.62,70.16-181.58,145.2-222.58,217Zm666.94-380.27c-99.65,0-298.72,24.91-443.88,122.26-111.35,74.68-186.43,157.61-213.08,234.94,42.58-68.83,117.29-140.15,217-207,72.35-48.53,165.93-88.32,270.6-115.08,70.58-18,147.62-30.24,209.56-33.34A384.82,384.82,0,0,0,2065.54,502.52Z"/><path class="cls-1" d="M1821.15,926.3c187.19-125.54,297.55-386.47,287.11-402L1430.38,978.89C1483.9,1058.69,1634,1051.84,1821.15,926.3Z"/><path d="M1547.33,1032.71c-53.59,0-95-18.36-118.2-53l-.83-1.25,1.25-.84,679.12-455.46.84,1.25c6.54,9.75-23,83.92-69.41,161.38a929.22,929.22,0,0,1-92.52,128.88c-40.14,46.58-82.4,84.89-125.6,113.86-89.23,59.84-174.36,95.65-246.18,103.54A260.82,260.82,0,0,1,1547.33,1032.71Zm-114.86-53.42c26.76,38.69,77.46,56,143,48.82,71.34-7.84,156-43.48,244.84-103,99.89-67,173.26-168.46,217.22-241.79,48.77-81.33,71.1-144.85,69.92-156.66Z"/><path class="cls-1" d="M2108.26,524.26l-.77.52c-19.51,65.76-126.3,276.53-290.19,386.44-180.18,120.84-325.86,134.14-386,67.09l-.87.58c53.52,79.8,203.57,72.95,390.77-52.59S2118.7,539.83,2108.26,524.26Z"/><path d="M1547.33,1032.71c-53.59,0-95-18.36-118.2-53l-.83-1.25,3.2-2.14.87,1c30.3,33.77,81,46.37,146.69,36.44,69.83-10.56,151.92-46.44,237.4-103.76,89-59.67,157.23-146.79,198.83-209.37,47.74-71.81,80.51-141.71,90.76-176.25l.16-.52,2.46-1.66.84,1.25c6.54,9.75-23,83.92-69.41,161.38a929.22,929.22,0,0,1-92.52,128.88c-40.14,46.58-82.4,84.89-125.6,113.86-89.23,59.84-174.36,95.65-246.18,103.54A260.82,260.82,0,0,1,1547.33,1032.71Zm-107.18-43.62c28.2,31.77,75.6,45.58,135.32,39,71.34-7.84,156-43.48,244.84-103,99.89-67,173.26-168.46,217.22-241.79,44.79-74.71,67.29-134.38,69.74-152.76-11.88,36.27-43.9,103.18-89.49,171.76-41.74,62.81-110.27,150.26-199.65,210.2-85.84,57.57-168.36,93.61-238.63,104.24-33.09,5-62.78,4.28-88.24-2.15C1471.14,1009.48,1454,1000.94,1440.15,989.09Z"/></g></g></g></svg>