<svg xmlns="http://www.w3.org/2000/svg" viewBox="0 0 782.7 782.7"><defs><style>.cls-1{fill:#fff;}</style></defs><g id="Layer_2" data-name="Layer 2"><g id="Layer_1-2" data-name="Layer 1"><g id="Gear_1" data-name="Gear 1"><path class="cls-1" d="M391.35,745.62C195.69,745.62,37.08,587,37.08,391.35S195.69,37.08,391.35,37.08,745.62,195.69,745.62,391.35H781.2C781.2,176,606.66,1.5,391.35,1.5S1.5,176,1.5,391.35,176,781.2,391.35,781.2h.58V745.62Z"/><path d="M391.35,782.7A391.45,391.45,0,0,1,239,30.75,391.23,391.23,0,0,1,782.7,391.35v1.5H744.12v-1.5c0-194.52-158.25-352.77-352.77-352.77S38.58,196.83,38.58,391.35,196.83,744.12,391.35,744.12h2.08V782.7Zm0-779.7C177.21,3,3,177.21,3,391.35,3,605.18,176.72,779.19,390.43,779.7V747.12A355.86,355.86,0,0,1,252.87,63.54,355.65,355.65,0,0,1,747.12,389.85H779.7C778.9,176.4,605,3,391.35,3Z"/><path class="cls-1" d="M391.35,37.08c-195.66,0-354.27,158.61-354.27,354.27S195.69,745.62,391.35,745.62h.58V727.84c-185.84,0-336.49-150.65-336.49-336.49S206.09,54.86,391.93,54.86,728.42,205.51,728.42,391.35h17.2C745.62,195.69,587,37.08,391.35,37.08Z"/><path d="M391.35,747.12A355.86,355.86,0,0,1,252.87,63.54,355.65,355.65,0,0,1,747.12,391.35v1.5h-20.2v-1.5c0-184.71-150.28-335-335-335s-335,150.28-335,335,150.28,335,335,335h1.5v20.78Zm0-708.54c-194.52,0-352.77,158.25-352.77,352.77,0,194.21,157.76,352.27,351.85,352.77V729.34a338,338,0,0,1-237.49-577,338,338,0,0,1,577,237.49h14.2C743.31,196,585.37,38.58,391.35,38.58Z"/><path class="cls-1" d="M728.42,391.35c0-185.84-150.65-336.49-336.49-336.49S55.44,205.51,55.44,391.35,206.09,727.84,391.93,727.84V391.35Z"/><path d="M393.43,729.34h-1.5a338,338,0,0,1-239-577,338,338,0,0,1,577,239v1.5H393.43Zm-1.5-673c-184.71,0-335,150.28-335,335,0,184.22,149.46,334.18,333.49,335V389.85H726.92C726.11,205.82,576.15,56.36,391.93,56.36Z"/><path class="cls-1" d="M357.59,646.83h67.52l-10.95,56.38a6.1,6.1,0,0,1-6,4.94H374.54a6.11,6.11,0,0,1-6-4.94Z"/><path d="M408.17,709.65H374.54a7.62,7.62,0,0,1-7.47-6.15l-11.3-58.17h71.16L415.64,703.5A7.63,7.63,0,0,1,408.17,709.65Zm-48.76-61.32L370,702.92a4.62,4.62,0,0,0,4.53,3.73h33.63a4.61,4.61,0,0,0,4.52-3.73l10.6-54.59Z"/><path class="cls-1" d="M424.87,646.86l65.21-17.47,4,57.29a6.12,6.12,0,0,1-4.51,6.33l-32.49,8.7a6.11,6.11,0,0,1-7.07-3.22Z"/><path d="M455.53,703.42a7.65,7.65,0,0,1-6.85-4.27l-26-53.27,68.73-18.41,4.15,59.11a7.64,7.64,0,0,1-5.62,7.88l-32.49,8.7A7.76,7.76,0,0,1,455.53,703.42ZM427,647.84l24.37,50a4.62,4.62,0,0,0,5.34,2.43l32.48-8.7a4.6,4.6,0,0,0,3.4-4.77l-3.89-55.48Z"/><path class="cls-1" d="M489.86,629.48l58.47-33.76L567,650a6.11,6.11,0,0,1-2.72,7.28l-29.13,16.82a6.1,6.1,0,0,1-7.66-1.29Z"/><path d="M532.15,676.43a7.63,7.63,0,0,1-5.76-2.61l-38.86-44.73,61.62-35.57,19.3,56a7.61,7.61,0,0,1-3.38,9.06l-29.13,16.82A7.64,7.64,0,0,1,532.15,676.43Zm-40-46.56,36.48,42a4.61,4.61,0,0,0,5.78,1L563.57,656a4.63,4.63,0,0,0,2-5.49L547.5,597.93Z"/><path class="cls-1" d="M548.13,595.87l47.74-47.74L628,595.74a6.11,6.11,0,0,1-.75,7.73l-23.78,23.78a6.11,6.11,0,0,1-7.73.75Z"/><path d="M599.15,630.54a7.61,7.61,0,0,1-4.25-1.3L545.79,596.1l50.31-50.31,33.14,49.11a7.62,7.62,0,0,1-.92,9.63l-23.79,23.79A7.6,7.6,0,0,1,599.15,630.54Zm-48.67-34.89,46.1,31.11a4.61,4.61,0,0,0,5.83-.57l23.78-23.78a4.61,4.61,0,0,0,.57-5.83l-31.11-46.1Z"/><path class="cls-1" d="M595.72,548.33l33.76-58.47,43.35,37.67a6.1,6.1,0,0,1,1.29,7.66L657.3,564.32A6.11,6.11,0,0,1,650,567Z"/><path d="M652,568.87a7.53,7.53,0,0,1-2.46-.42l-56-19.3,35.57-61.62,44.73,38.86a7.64,7.64,0,0,1,1.6,9.55L658.6,565.07A7.63,7.63,0,0,1,652,568.87ZM597.93,547.5l52.58,18.12a4.61,4.61,0,0,0,5.49-2l16.82-29.13a4.61,4.61,0,0,0-1-5.78l-42-36.48Z"/><path class="cls-1" d="M629.39,490.08l17.47-65.21L698.49,450a6.11,6.11,0,0,1,3.22,7.07L693,489.59a6.12,6.12,0,0,1-6.33,4.51Z"/><path d="M687.11,495.62l-.53,0-59.11-4.15,18.42-68.73,53.25,26a7.61,7.61,0,0,1,4,8.8L694.46,490A7.64,7.64,0,0,1,687.11,495.62Zm-55.8-6.91,55.47,3.89a4.6,4.6,0,0,0,4.78-3.4l8.7-32.48a4.62,4.62,0,0,0-2.43-5.34l-50-24.37Z"/><path class="cls-1" d="M646.83,425.11V357.59l56.38,11a6.11,6.11,0,0,1,4.94,6v33.63a6.1,6.1,0,0,1-4.94,6Z"/><path d="M645.33,426.93V355.77l58.17,11.3a7.62,7.62,0,0,1,6.15,7.47v33.63a7.63,7.63,0,0,1-6.15,7.47Zm3-67.52v63.88l54.59-10.6a4.61,4.61,0,0,0,3.73-4.52V374.54a4.62,4.62,0,0,0-3.73-4.53Z"/><path class="cls-1" d="M646.86,357.84l-17.47-65.22,57.29-4a6.12,6.12,0,0,1,6.33,4.52l8.7,32.48a6.1,6.1,0,0,1-3.22,7.07Z"/><path d="M645.89,360l-18.42-68.73,59.11-4.14a7.62,7.62,0,0,1,7.88,5.62l8.7,32.48a7.62,7.62,0,0,1-4,8.81Zm-14.58-66,16.53,61.7,50-24.37a4.61,4.61,0,0,0,2.43-5.33l-8.7-32.49a4.62,4.62,0,0,0-4.78-3.4Z"/><path class="cls-1" d="M629.48,292.85l-33.76-58.47L650,215.67a6.11,6.11,0,0,1,7.28,2.72l16.82,29.12a6.12,6.12,0,0,1-1.29,7.67Z"/><path d="M629.09,295.17l-35.57-61.62,56-19.3a7.62,7.62,0,0,1,9.06,3.39l16.82,29.12a7.64,7.64,0,0,1-1.6,9.55Zm-31.16-60,31.94,55.32,42-36.47a4.63,4.63,0,0,0,1-5.79L656,219.14a4.6,4.6,0,0,0-5.49-2Z"/><path class="cls-1" d="M595.87,234.57l-47.74-47.74,47.61-32.12a6.09,6.09,0,0,1,7.73.74l23.78,23.78A6.11,6.11,0,0,1,628,187Z"/><path d="M596.1,236.92l-50.31-50.31,49.11-33.15a7.62,7.62,0,0,1,9.63.93l23.79,23.78a7.62,7.62,0,0,1,.92,9.63Zm-45.62-49.86,45.17,45.17,31.11-46.1a4.62,4.62,0,0,0-.57-5.84l-23.78-23.78a4.6,4.6,0,0,0-5.83-.56Z"/><path class="cls-1" d="M548.33,187l-58.47-33.76,37.67-43.35a6.09,6.09,0,0,1,7.66-1.28l29.13,16.81a6.12,6.12,0,0,1,2.72,7.28Z"/><path d="M549.15,189.19l-61.62-35.58,38.86-44.72a7.61,7.61,0,0,1,9.55-1.6l29.13,16.81a7.62,7.62,0,0,1,3.38,9.07Zm-57-36.36,55.32,31.94,18.12-52.58a4.62,4.62,0,0,0-2-5.49l-29.13-16.81a4.61,4.61,0,0,0-5.78,1Z"/><path class="cls-1" d="M490.08,153.32l-65.21-17.48L450,84.22A6.12,6.12,0,0,1,457.1,81l32.49,8.71A6.11,6.11,0,0,1,494.1,96Z"/><path d="M491.45,155.24l-68.73-18.42,26-53.26a7.63,7.63,0,0,1,8.81-4L490,88.25a7.62,7.62,0,0,1,5.62,7.88ZM427,134.86l61.7,16.54,3.89-55.48a4.6,4.6,0,0,0-3.4-4.77l-32.48-8.71a4.63,4.63,0,0,0-5.34,2.43Z"/><path class="cls-1" d="M425.11,135.87H357.59l11-56.38a6.11,6.11,0,0,1,6-4.94h33.63a6.1,6.1,0,0,1,6,4.94Z"/><path d="M426.93,137.37H355.77l11.3-58.16a7.62,7.62,0,0,1,7.47-6.16h33.63a7.63,7.63,0,0,1,7.47,6.16Zm-67.52-3h63.88l-10.6-54.59a4.61,4.61,0,0,0-4.52-3.73H374.54A4.63,4.63,0,0,0,370,79.78Z"/><path class="cls-1" d="M357.84,135.84l-65.22,17.48-4-57.3a6.11,6.11,0,0,1,4.52-6.32L325.6,81a6.11,6.11,0,0,1,7.07,3.23Z"/><path d="M291.25,155.24l-4.14-59.11a7.61,7.61,0,0,1,5.62-7.88l32.48-8.71a7.62,7.62,0,0,1,8.81,4l26,53.26Zm35.93-72.95a4.79,4.79,0,0,0-1.19.15L293.5,91.15a4.62,4.62,0,0,0-3.4,4.77L294,151.4l61.7-16.54-24.37-50A4.61,4.61,0,0,0,327.18,82.29Z"/><path class="cls-1" d="M292.85,153.22,234.38,187l-18.71-54.3a6.12,6.12,0,0,1,2.72-7.28l29.12-16.81a6.1,6.1,0,0,1,7.67,1.28Z"/><path d="M233.55,189.19l-19.3-56a7.63,7.63,0,0,1,3.39-9.07l29.12-16.81a7.61,7.61,0,0,1,9.55,1.6l38.86,44.72Zm17-79.92a4.57,4.57,0,0,0-2.3.62L219.14,126.7a4.6,4.6,0,0,0-2,5.49l18.11,52.58,55.32-31.94-36.47-42A4.64,4.64,0,0,0,250.56,109.27Z"/><path class="cls-1" d="M234.57,186.83l-47.74,47.74L154.71,187a6.09,6.09,0,0,1,.74-7.73l23.78-23.78a6.09,6.09,0,0,1,7.73-.74Z"/><path d="M186.61,236.92,153.46,187.8a7.62,7.62,0,0,1,.93-9.63l23.78-23.78a7.62,7.62,0,0,1,9.63-.93l49.12,33.15Zm-3.06-81.76a4.6,4.6,0,0,0-3.26,1.35l-23.78,23.78a4.62,4.62,0,0,0-.56,5.84l31.11,46.1,45.17-45.17L186.13,156A4.6,4.6,0,0,0,183.55,155.16Z"/><path class="cls-1" d="M187,234.38l-33.76,58.47-43.35-37.67a6.11,6.11,0,0,1-1.28-7.67l16.81-29.12a6.12,6.12,0,0,1,7.28-2.72Z"/><path d="M153.61,295.17l-44.72-38.86a7.61,7.61,0,0,1-1.6-9.55l16.81-29.12a7.61,7.61,0,0,1,9.07-3.39l56,19.3ZM130.7,216.84a4.61,4.61,0,0,0-4,2.3l-16.81,29.12a4.63,4.63,0,0,0,1,5.79l42,36.47,31.94-55.32-52.58-18.11A4.53,4.53,0,0,0,130.7,216.84Z"/><path class="cls-1" d="M153.32,292.62l-17.48,65.22L84.22,332.67A6.11,6.11,0,0,1,81,325.6l8.71-32.48A6.11,6.11,0,0,1,96,288.6Z"/><path d="M136.82,360,83.56,334a7.61,7.61,0,0,1-4-8.81l8.7-32.48a7.62,7.62,0,0,1,7.88-5.62l59.11,4.14ZM95.6,290.09a4.61,4.61,0,0,0-4.45,3.41L82.44,326a4.62,4.62,0,0,0,2.43,5.33l50,24.37L151.4,294,95.92,290.1Z"/><path class="cls-1" d="M135.87,357.59v67.52L79.49,414.16a6.1,6.1,0,0,1-4.94-6V374.54a6.11,6.11,0,0,1,4.94-6Z"/><path d="M137.37,426.93,79.21,415.64a7.63,7.63,0,0,1-6.16-7.47V374.54a7.62,7.62,0,0,1,6.16-7.47l58.16-11.3Zm-3-67.52L79.78,370a4.63,4.63,0,0,0-3.73,4.53v33.63a4.61,4.61,0,0,0,3.73,4.52l54.59,10.6Z"/><path class="cls-1" d="M135.84,424.87l17.48,65.21-57.3,4a6.12,6.12,0,0,1-6.32-4.51L81,457.1A6.12,6.12,0,0,1,84.22,450Z"/><path d="M95.6,495.62A7.63,7.63,0,0,1,88.25,490l-8.7-32.49a7.59,7.59,0,0,1,4-8.8l53.26-26,18.42,68.73L96.13,495.6ZM134.86,427l-50,24.37a4.63,4.63,0,0,0-2.43,5.34l8.71,32.48a4.6,4.6,0,0,0,4.77,3.4l55.48-3.89Z"/><path class="cls-1" d="M153.22,489.86,187,548.33,132.68,567a6.12,6.12,0,0,1-7.28-2.72l-16.81-29.13a6.1,6.1,0,0,1,1.28-7.66Z"/><path d="M130.7,568.87a7.63,7.63,0,0,1-6.6-3.8l-16.81-29.13a7.61,7.61,0,0,1,1.6-9.55l44.72-38.86,35.58,61.62-56,19.3A7.59,7.59,0,0,1,130.7,568.87Zm22.13-76.69-42,36.48a4.61,4.61,0,0,0-1,5.78l16.81,29.13a4.62,4.62,0,0,0,5.49,2l52.58-18.12Z"/><path class="cls-1" d="M186.83,548.13l47.74,47.74L187,628a6.11,6.11,0,0,1-7.73-.75l-23.78-23.78a6.09,6.09,0,0,1-.74-7.73Z"/><path d="M183.55,630.54a7.64,7.64,0,0,1-5.38-2.22l-23.78-23.79a7.62,7.62,0,0,1-.93-9.63l33.15-49.11,50.31,50.31L187.8,629.24A7.58,7.58,0,0,1,183.55,630.54Zm3.51-80.06L156,596.58a4.6,4.6,0,0,0,.56,5.83l23.78,23.78a4.62,4.62,0,0,0,5.84.57l46.1-31.11Z"/><path class="cls-1" d="M234.38,595.72l58.47,33.76-37.67,43.35a6.12,6.12,0,0,1-7.67,1.29L218.39,657.3a6.11,6.11,0,0,1-2.72-7.28Z"/><path d="M250.56,676.43a7.65,7.65,0,0,1-3.8-1L217.64,658.6a7.62,7.62,0,0,1-3.39-9.06l19.3-56,61.62,35.57-38.86,44.73A7.59,7.59,0,0,1,250.56,676.43Zm-15.36-78.5-18.11,52.58a4.6,4.6,0,0,0,2,5.49l29.12,16.82a4.63,4.63,0,0,0,5.79-1l36.47-42Z"/><path class="cls-1" d="M292.62,629.39l65.22,17.47-25.17,51.63a6.1,6.1,0,0,1-7.07,3.22L293.12,693a6.12,6.12,0,0,1-4.52-6.33Z"/><path d="M327.17,703.42a7.82,7.82,0,0,1-2-.26l-32.48-8.7a7.63,7.63,0,0,1-5.62-7.88l4.14-59.11L360,645.88l-26,53.27A7.64,7.64,0,0,1,327.17,703.42ZM294,631.31l-3.89,55.48a4.62,4.62,0,0,0,3.4,4.77l32.49,8.7a4.6,4.6,0,0,0,5.33-2.43l24.37-50Z"/><circle class="cls-1" cx="391.35" cy="391.35" r="262.93"/><path d="M391.35,655.78a264.43,264.43,0,1,1,187-77.45A262.69,262.69,0,0,1,391.35,655.78Zm0-525.85c-144.15,0-261.42,117.27-261.42,261.42S247.2,652.78,391.35,652.78,652.78,535.5,652.78,391.35,535.5,129.93,391.35,129.93Z"/><circle class="cls-1" cx="391.35" cy="391.35" r="252.61"/><path d="M391.35,645.46A254.09,254.09,0,1,1,571,571,252.45,252.45,0,0,1,391.35,645.46Zm0-505.22c-138.46,0-251.11,112.65-251.11,251.11S252.89,642.46,391.35,642.46,642.46,529.82,642.46,391.35,529.81,140.24,391.35,140.24Z"/><circle class="cls-1" cx="391.35" cy="391.35" r="242.09"/><path d="M391.35,634.94a243.6,243.6,0,1,1,172.24-71.35A242,242,0,0,1,391.35,634.94Zm0-484.17c-132.66,0-240.58,107.92-240.58,240.58S258.69,631.94,391.35,631.94,631.94,524,631.94,391.35,524,150.77,391.35,150.77Z"/><circle class="cls-1" cx="391.35" cy="391.35" r="235.32" transform="translate(-162.1 391.35) rotate(-45)"/><path d="M391.35,628.17a236.81,236.81,0,1,1,167.46-69.36A235.28,235.28,0,0,1,391.35,628.17Zm0-470.64c-128.93,0-233.82,104.89-233.82,233.82S262.42,625.17,391.35,625.17,625.17,520.28,625.17,391.35,520.28,157.53,391.35,157.53Z"/><circle class="cls-1" cx="391.35" cy="391.35" r="235.32" transform="translate(-162.1 391.35) rotate(-45)"/><path d="M391,628.27a237.51,237.51,0,1,1,61.68-8.17A238,238,0,0,1,391,628.27Zm.78-470.69c-80.88,0-159.63,41.93-202.89,116.86A233.94,233.94,0,1,0,391.75,157.58Z"/><circle class="cls-1" cx="391.35" cy="391.35" r="235.32" transform="translate(-162.1 391.35) rotate(-45)"/><path d="M391.74,628.27a238,238,0,0,1-61.68-8.17,235.44,235.44,0,1,1,61.68,8.17ZM391,157.43A233.91,233.91,0,0,0,188.86,508.26c64.46,111.66,207.75,150,319.4,85.59l.75,1.3-.75-1.3A233.82,233.82,0,0,0,451.87,165.5,235,235,0,0,0,391,157.43Z"/><circle class="cls-1" cx="391.35" cy="391.35" r="235.32" transform="translate(-162.1 391.35) rotate(-45)"/><path d="M391.35,628.17a236.81,236.81,0,1,1,167.46-69.36A235.28,235.28,0,0,1,391.35,628.17Zm0-470.64c-128.93,0-233.82,104.89-233.82,233.82S262.42,625.17,391.35,625.17,625.17,520.28,625.17,391.35,520.28,157.53,391.35,157.53Z"/><circle class="cls-1" cx="391.35" cy="391.35" r="235.32"/><path d="M391,628.27a237.51,237.51,0,1,1,61.68-8.17A238,238,0,0,1,391,628.27Zm.78-470.69c-80.88,0-159.63,41.93-202.89,116.86A233.94,233.94,0,1,0,391.75,157.58Z"/><circle class="cls-1" cx="391.35" cy="391.35" r="235.32" transform="translate(-162.1 391.35) rotate(-45)"/><path d="M391.74,628.27a238,238,0,0,1-61.68-8.17,236.82,236.82,0,0,1-57.12-433.84l.75,1.3-.75-1.3a236.82,236.82,0,1,1,118.8,442ZM391,157.43A233.91,233.91,0,0,0,188.86,508.26c43.26,74.93,122,116.86,202.89,116.87A233.8,233.8,0,0,0,451.87,165.5,235,235,0,0,0,391,157.43Z"/><path class="cls-1" d="M315.13,545.8l47.4-82.09c12.81-22.19,44.84-22.19,57.65,0l47.39,82.09c12.81,22.19-3.2,49.92-28.83,49.92H344C318.34,595.72,302.32,568,315.13,545.8Z"/><path d="M438.74,597.22H344a34.78,34.78,0,0,1-30.12-52.17L361.23,463a34.79,34.79,0,0,1,60.25,0l47.39,82.09a34.78,34.78,0,0,1-30.13,52.17ZM391.35,448.57a31.45,31.45,0,0,0-27.52,15.89l-47.4,82.09A31.78,31.78,0,0,0,344,594.22h94.78a31.78,31.78,0,0,0,27.53-47.67l-47.39-82.09A31.47,31.47,0,0,0,391.35,448.57Z"/><path class="cls-1" d="M487,534.58,439.6,452.5c-12.81-22.19,3.21-49.93,28.83-49.93h94.78c25.63,0,41.64,27.74,28.83,49.93l-47.39,82.08C531.84,556.77,499.81,556.77,487,534.58Z"/><path d="M515.82,552.72a34.42,34.42,0,0,1-30.12-17.39l-47.4-82.08a34.79,34.79,0,0,1,30.13-52.18h94.78a34.79,34.79,0,0,1,30.13,52.18L546,535.33A34.44,34.44,0,0,1,515.82,552.72ZM468.43,404.07a31.79,31.79,0,0,0-27.53,47.68l47.39,82.08a31.79,31.79,0,0,0,55.06,0l47.39-82.08a31.79,31.79,0,0,0-27.53-47.68Z"/><path class="cls-1" d="M563.21,380.14H468.43c-25.62,0-41.64-27.74-28.83-49.93L487,248.12c12.81-22.19,44.84-22.19,57.65,0L592,330.21C604.85,352.4,588.84,380.14,563.21,380.14Z"/><path d="M563.21,381.64H468.43a34.79,34.79,0,0,1-30.13-52.18l47.4-82.09a34.79,34.79,0,0,1,60.25,0l47.39,82.09a34.79,34.79,0,0,1-30.13,52.18ZM515.82,233a31.47,31.47,0,0,0-27.53,15.89L440.9,331a31.79,31.79,0,0,0,27.53,47.68h94.78A31.79,31.79,0,0,0,590.74,331l-47.39-82.09A31.47,31.47,0,0,0,515.82,233Z"/><path class="cls-1" d="M467.57,236.91,420.18,319c-12.81,22.19-44.84,22.19-57.65,0l-47.4-82.08C302.32,214.72,318.34,187,344,187h94.78C464.37,187,480.38,214.72,467.57,236.91Z"/><path d="M391.35,337.14a34.44,34.44,0,0,1-30.12-17.4l-47.39-82.08A34.79,34.79,0,0,1,344,185.48h94.78a34.79,34.79,0,0,1,30.13,52.18l-47.39,82.08A34.44,34.44,0,0,1,391.35,337.14ZM344,188.48a31.79,31.79,0,0,0-27.53,47.68l47.4,82.08a31.77,31.77,0,0,0,55.05,0l47.39-82.08a31.79,31.79,0,0,0-27.53-47.68Z"/><path class="cls-1" d="M295.71,248.12l47.39,82.09c12.81,22.19-3.2,49.93-28.82,49.93H219.49c-25.62,0-41.64-27.74-28.82-49.93l47.39-82.09C250.87,225.93,282.9,225.93,295.71,248.12Z"/><path d="M314.28,381.64H219.49a34.79,34.79,0,0,1-30.12-52.18l47.39-82.09a34.79,34.79,0,0,1,60.25,0l47.39,82.09a34.79,34.79,0,0,1-30.12,52.18ZM266.88,233a31.45,31.45,0,0,0-27.52,15.89L192,331a31.79,31.79,0,0,0,27.53,47.68h94.79A31.79,31.79,0,0,0,341.8,331l-47.39-82.09A31.47,31.47,0,0,0,266.88,233Z"/><path class="cls-1" d="M219.49,402.57h94.79c25.62,0,41.63,27.74,28.82,49.93l-47.39,82.08c-12.81,22.19-44.84,22.19-57.65,0L190.67,452.5C177.85,430.31,193.87,402.57,219.49,402.57Z"/><path d="M266.88,552.72a34.43,34.43,0,0,1-30.12-17.39l-47.39-82.08a34.79,34.79,0,0,1,30.12-52.18h94.79a34.79,34.79,0,0,1,30.12,52.18L297,535.33A34.44,34.44,0,0,1,266.88,552.72ZM219.49,404.07A31.79,31.79,0,0,0,192,451.75l47.4,82.08a31.78,31.78,0,0,0,55.05,0l47.39-82.08a31.79,31.79,0,0,0-27.52-47.68Z"/><path class="cls-1" d="M323.82,541.45l40.46-70.08a31.26,31.26,0,0,1,54.14,0l40.46,70.08a31.25,31.25,0,0,1-27.07,46.89H350.89A31.26,31.26,0,0,1,323.82,541.45Z"/><path d="M431.81,589.84H350.89a32.76,32.76,0,0,1-28.37-49.14L363,470.62a32.76,32.76,0,0,1,56.74,0l40.46,70.08a32.76,32.76,0,0,1-28.37,49.14Zm-108-48.39,1.3.75a29.76,29.76,0,0,0,25.77,44.64h80.92a29.76,29.76,0,0,0,25.77-44.64l-40.45-70.08a29.76,29.76,0,0,0-51.55,0L325.12,542.2Z"/><path class="cls-1" d="M487.57,524.88l-40.46-70.07a31.26,31.26,0,0,1,27.07-46.89H555.1a31.25,31.25,0,0,1,27.07,46.89l-40.45,70.07A31.27,31.27,0,0,1,487.57,524.88Z"/><path d="M514.64,542a32.42,32.42,0,0,1-28.37-16.38l-40.46-70.07a32.76,32.76,0,0,1,28.37-49.14H555.1a32.76,32.76,0,0,1,28.37,49.14L543,525.63A32.44,32.44,0,0,1,514.64,542Zm-25.77-17.88a29.76,29.76,0,0,0,51.55,0l40.46-70.07a29.76,29.76,0,0,0-25.78-44.64H474.18a29.76,29.76,0,0,0-25.77,44.64Z"/><path class="cls-1" d="M555.1,374.79H474.18a31.26,31.26,0,0,1-27.07-46.89l40.46-70.08a31.27,31.27,0,0,1,54.15,0l40.45,70.08A31.25,31.25,0,0,1,555.1,374.79Z"/><path d="M555.1,376.29H474.18a32.76,32.76,0,0,1-28.37-49.14l40.46-70.08a32.77,32.77,0,0,1,56.75,0l40.45,70.08a32.76,32.76,0,0,1-28.37,49.14Zm-40.46-132.6a29.46,29.46,0,0,0-25.77,14.88l-40.46,70.08a29.76,29.76,0,0,0,25.77,44.64H555.1a29.76,29.76,0,0,0,25.78-44.64l-40.46-70.08A29.46,29.46,0,0,0,514.64,243.69Z"/><path class="cls-1" d="M458.88,241.26l-40.46,70.08a31.26,31.26,0,0,1-54.14,0l-40.46-70.08a31.26,31.26,0,0,1,27.07-46.89h80.92A31.25,31.25,0,0,1,458.88,241.26Z"/><path d="M391.35,328.47A32.44,32.44,0,0,1,363,312.09L322.52,242a32.76,32.76,0,0,1,28.37-49.14h80.92A32.76,32.76,0,0,1,460.18,242l-1.3-.75,1.3.75-40.46,70.08A32.43,32.43,0,0,1,391.35,328.47Zm-40.46-132.6a29.76,29.76,0,0,0-25.77,44.64l40.46,70.08a29.76,29.76,0,0,0,51.55,0l40.45-70.08a29.76,29.76,0,0,0-25.77-44.64Z"/><path class="cls-1" d="M295.13,257.82l40.46,70.08a31.26,31.26,0,0,1-27.07,46.89H227.6a31.26,31.26,0,0,1-27.07-46.89L241,257.82A31.26,31.26,0,0,1,295.13,257.82Z"/><path d="M308.52,376.29H227.6a32.76,32.76,0,0,1-28.37-49.14l40.46-70.08a32.44,32.44,0,0,1,28.37-16.38h0a32.44,32.44,0,0,1,28.37,16.38l40.46,70.08a32.76,32.76,0,0,1-28.37,49.14Zm-40.46-132.6a29.45,29.45,0,0,0-25.77,14.88l-40.46,70.08a29.76,29.76,0,0,0,25.77,44.64h80.92a29.76,29.76,0,0,0,25.77-44.64l-40.46-70.08A29.45,29.45,0,0,0,268.06,243.69Z"/><path class="cls-1" d="M227.6,407.92h80.92a31.26,31.26,0,0,1,27.07,46.89l-40.46,70.07a31.26,31.26,0,0,1-54.14,0l-40.46-70.07A31.26,31.26,0,0,1,227.6,407.92Z"/><path d="M268.06,542a32.42,32.42,0,0,1-28.37-16.38l-40.46-70.07a32.76,32.76,0,0,1,28.37-49.14h80.92a32.76,32.76,0,0,1,28.37,49.14l-40.46,70.07A32.42,32.42,0,0,1,268.06,542ZM227.6,409.42a29.76,29.76,0,0,0-25.77,44.64l40.46,70.07a29.75,29.75,0,0,0,51.54,0l40.46-70.07a29.76,29.76,0,0,0-25.77-44.64Z"/><circle class="cls-1" cx="391.35" cy="391.35" r="98.78" transform="translate(-162.1 391.35) rotate(-45)"/><path d="M391.35,491.63A100.28,100.28,0,1,1,491.63,391.35,100.39,100.39,0,0,1,391.35,491.63Zm0-197.56a97.28,97.28,0,1,0,97.28,97.28A97.39,97.39,0,0,0,391.35,294.07Z"/><circle class="cls-1" cx="391.35" cy="391.35" r="95.84" transform="translate(-162.1 391.35) rotate(-45)"/><path d="M391.35,488.69a97.34,97.34,0,1,1,97.34-97.34A97.45,97.45,0,0,1,391.35,488.69Zm0-191.67a94.34,94.34,0,1,0,94.34,94.33A94.44,94.44,0,0,0,391.35,297Z"/><circle class="cls-1" cx="391.35" cy="391.35" r="95.84"/><path d="M391.35,488.64a97,97,0,0,1-68.83-28.46h0a97.46,97.46,0,1,1,68.83,28.46Zm-66.7-30.58a94.34,94.34,0,1,0,0-133.41A94.44,94.44,0,0,0,324.65,458.06Z"/><circle class="cls-1" cx="391.35" cy="391.35" r="95.84" transform="translate(-162.1 391.35) rotate(-45)"/><path d="M391.35,488.69a97.34,97.34,0,1,1,97.34-97.34A97.45,97.45,0,0,1,391.35,488.69Zm0-191.67a94.34,94.34,0,1,0,94.34,94.33A94.44,94.44,0,0,0,391.35,297Z"/><circle class="cls-1" cx="391.35" cy="391.35" r="95.84"/><path d="M391.35,488.64a97.29,97.29,0,1,1,68.83-28.46A97,97,0,0,1,391.35,488.64Zm0-191.58a94.3,94.3,0,1,0,66.71,27.59A94,94,0,0,0,391.35,297.06Z"/><circle class="cls-1" cx="391.35" cy="391.35" r="95.84" transform="translate(-162.1 391.35) rotate(-45)"/><path d="M391.35,488.69a97.34,97.34,0,1,1,97.34-97.34A97.45,97.45,0,0,1,391.35,488.69Zm0-191.67a94.34,94.34,0,1,0,94.34,94.33A94.44,94.44,0,0,0,391.35,297Z"/><circle class="cls-1" cx="391.35" cy="391.35" r="95.84"/><path d="M391.35,488.64a97.29,97.29,0,1,1,68.83-28.46A97,97,0,0,1,391.35,488.64Zm0-191.58a94.3,94.3,0,1,0,66.71,27.59A94,94,0,0,0,391.35,297.06Z"/><circle class="cls-1" cx="391.35" cy="391.35" r="95.84" transform="translate(-162.1 391.35) rotate(-45)"/><path d="M391.35,488.69a97.34,97.34,0,1,1,97.34-97.34A97.45,97.45,0,0,1,391.35,488.69Zm0-191.67a94.34,94.34,0,1,0,94.34,94.33A94.44,94.44,0,0,0,391.35,297Z"/><circle class="cls-1" cx="391.35" cy="391.35" r="95.84"/><path d="M391.35,488.64a97.29,97.29,0,1,1,68.83-28.46A97,97,0,0,1,391.35,488.64Zm-67.76-165,1.06,1.06a94.34,94.34,0,1,0,133.41,0,94.43,94.43,0,0,0-133.41,0Z"/><circle class="cls-1" cx="391.35" cy="391.35" r="44.03"/><path d="M391.35,436.86a45.52,45.52,0,0,1-32.19-77.7h0a45.52,45.52,0,1,1,32.19,77.7Zm0-88a42.39,42.39,0,0,0-30.07,12.43h0a42.59,42.59,0,1,0,30.07-12.43Z"/><circle class="cls-1" cx="391.35" cy="391.35" r="40.8"/><path d="M391.35,433.63a42.28,42.28,0,0,1-29.91-72.19h0a42.3,42.3,0,1,1,29.91,72.19Zm-27.79-70.07a39.3,39.3,0,1,0,55.58,0,39.08,39.08,0,0,0-55.58,0Z"/><circle class="cls-1" cx="391.35" cy="391.35" r="33.32"/><path d="M391.35,426.15a34.8,34.8,0,0,1-24.62-59.42h0a34.82,34.82,0,1,1,24.62,59.42Zm-22.5-57.3a31.82,31.82,0,1,0,45,0,31.87,31.87,0,0,0-45,0Z"/><path class="cls-1" d="M379.09,379.09a17.35,17.35,0,1,1,0,24.53A17.33,17.33,0,0,1,379.09,379.09Z"/><path d="M391.35,410.19A18.84,18.84,0,0,1,378,378h0a18.85,18.85,0,1,1,13.33,32.17Zm-11.2-30a15.85,15.85,0,1,0,22.41,0,15.86,15.86,0,0,0-22.41,0Z"/><circle class="cls-1" cx="391.35" cy="459.49" r="15.29" transform="translate(-146.05 184.74) rotate(-22.5)"/><path d="M391.35,476.28a16.79,16.79,0,1,1,16.79-16.79A16.8,16.8,0,0,1,391.35,476.28Zm0-30.57a13.79,13.79,0,1,0,13.79,13.78A13.79,13.79,0,0,0,391.35,445.71Z"/><circle class="cls-1" cx="439.53" cy="439.53" r="15.29"/><path d="M439.53,456.31a16.78,16.78,0,1,1,11.87-4.91A16.72,16.72,0,0,1,439.53,456.31Zm0-30.55a13.78,13.78,0,1,0,9.75,4A13.7,13.7,0,0,0,439.53,425.76Z"/><circle class="cls-1" cx="459.49" cy="391.35" r="15.29"/><path d="M459.49,408.14a16.79,16.79,0,1,1,16.79-16.79A16.8,16.8,0,0,1,459.49,408.14Zm0-30.57a13.79,13.79,0,1,0,13.79,13.78A13.79,13.79,0,0,0,459.49,377.57Z"/><circle class="cls-1" cx="439.53" cy="343.17" r="15.29"/><path d="M439.53,360A16.78,16.78,0,1,1,451.4,355,16.76,16.76,0,0,1,439.53,360Zm0-30.56a13.78,13.78,0,1,0,9.75,4A13.74,13.74,0,0,0,439.53,329.39Z"/><circle class="cls-1" cx="391.35" cy="323.21" r="15.29" transform="translate(-113.92 371.39) rotate(-45)"/><path d="M391.35,340a16.79,16.79,0,1,1,16.79-16.79A16.8,16.8,0,0,1,391.35,340Zm0-30.57a13.79,13.79,0,1,0,13.79,13.78A13.79,13.79,0,0,0,391.35,309.43Z"/><circle class="cls-1" cx="343.17" cy="343.17" r="15.29"/><path d="M343.17,360A16.78,16.78,0,1,1,355,355,16.74,16.74,0,0,1,343.17,360Zm0-30.56a13.78,13.78,0,1,0,9.75,4A13.78,13.78,0,0,0,343.17,329.39Z"/><circle class="cls-1" cx="323.21" cy="391.35" r="15.29" transform="translate(-182.06 343.17) rotate(-45)"/><path d="M323.21,408.14A16.79,16.79,0,1,1,340,391.35,16.8,16.8,0,0,1,323.21,408.14Zm0-30.57A13.79,13.79,0,1,0,337,391.35,13.79,13.79,0,0,0,323.21,377.57Z"/><circle class="cls-1" cx="343.17" cy="439.53" r="15.29"/><path d="M343.17,456.31A16.78,16.78,0,1,1,355,451.4,16.7,16.7,0,0,1,343.17,456.31Zm0-30.56a13.79,13.79,0,1,0,9.75,4A13.69,13.69,0,0,0,343.17,425.75Z"/></g></g></g></svg>