<?xml version="1.0" encoding="utf-8"?>
<svg viewBox="0 0 500 500" xmlns="http://www.w3.org/2000/svg">
  <g id="Leaves" transform="matrix(10.990258, 0, 0, 10.990258, 39.64185, 16.401121)" style="">
    <ellipse class="cls-1" cx="28.79" cy="8.34" rx="8.87" ry="5.59" transform="translate(-1.16 7.18) rotate(-13.94)" style="fill: rgb(159, 255, 215);"/>
    <ellipse class="cls-1" cx="9.95" cy="7.03" rx="5.59" ry="8.58" transform="translate(-0.43 13.4) rotate(-66.78)" style="fill: rgb(159, 255, 215);"/>
  </g>
  <g id="Leaves-2" data-name="Leaves" transform="matrix(10.990258, 0, 0, 10.990258, 39.64185, 16.401121)" style="">
    <path d="M18.1,12.65c0-.09-.82-.22-.76-.39l-.45.22A11.77,11.77,0,0,1,1.06,7.34a11.44,11.44,0,0,1-1-2.71A1.41,1.41,0,0,1,.55,3.08,11.64,11.64,0,0,1,19,6.78c.06.12.13.24.19.34.65-.75,1.24-1.52,1.92-2.2a11.61,11.61,0,0,1,16.42.14,11.2,11.2,0,0,1,1,1.1,1.14,1.14,0,0,1,.11,1.25A11.8,11.8,0,0,1,29,14.91a11.14,11.14,0,0,1-9.07-2.77l-.24-.2a1.51,1.51,0,0,0-.18.26c-1.81,3.77,1,8.24.57,12.45-.22,2.25-1.72,2.84-1,5,.1.31-2.33,3-2,3M20.92,8.19l.3-.09a39,39,0,0,1,4.14-1,30.82,30.82,0,0,1,4.4-.23,1.42,1.42,0,0,1,.95.43.86.86,0,0,1,.05,1.06,1,1,0,0,1-1,.47,19.21,19.21,0,0,0-8.38,1.38,3.55,3.55,0,0,0-.44.21l.09.13.17.16A9.31,9.31,0,0,0,28.43,13a9.78,9.78,0,0,0,8-5.48.63.63,0,0,0-.13-.85,9.73,9.73,0,0,0-13.07-1A9.91,9.91,0,0,0,20.92,8.19Zm-3.48-.26c-.09-.18-.17-.37-.26-.54A9.8,9.8,0,0,0,4,3.06a9.14,9.14,0,0,0-1.37.84c-.78.57-.7.35-.39,1.24a10,10,0,0,0,11,6.53A9.43,9.43,0,0,0,17,10.14l-.42-.29A19,19,0,0,0,8.65,7.07C8,7,7.59,6.6,7.65,6a1,1,0,0,1,1.1-.9l.13,0c.92.14,1.85.3,2.76.52A22.82,22.82,0,0,1,17.44,7.93Z"/>
  </g>
  <g id="Type" transform="matrix(10.990258, 0, 0, 10.990258, 39.64185, 16.401121)" style="">
    <g class="cls-2" style="isolation: isolate;">
      <path d="M16.58,11.43h4.19V33c0,4-.9,6.86-2.69,8.53A9.2,9.2,0,0,1,11.59,44a12.92,12.92,0,0,1-6.88-1.89V38H4.9A9.53,9.53,0,0,0,10.6,40,6.32,6.32,0,0,0,15,38.62q1.55-1.42,1.54-5.39Z"/>
    </g>
  </g>
</svg>