<?xml version="1.0" encoding="utf-8"?>
<svg viewBox="0 0 64 64" xmlns="http://www.w3.org/2000/svg" xmlns:xlink="http://www.w3.org/1999/xlink">
  <defs>
    <linearGradient id="gradient-4-0" gradientUnits="userSpaceOnUse" x1="32" y1="0" x2="32" y2="64" gradientTransform="matrix(1.000006, 0, 0, 1.000006, -0.000191, -0.000195)" xlink:href="#gradient-4"/>
    <linearGradient id="gradient-4">
      <stop offset="0" style="stop-color: rgb(0, 223, 164);"/>
      <stop offset="1" style="stop-color: rgb(61, 136, 131);"/>
    </linearGradient>
    <linearGradient gradientUnits="userSpaceOnUse" x1="32" y1="0" x2="32" y2="64" id="gradient-0" gradientTransform="matrix(1.000006, 0, 0, 1.000006, -0.000191, -0.000195)">
      <stop offset="0" style="stop-color: #bada55"/>
      <stop offset="1" style="stop-color: #758d29"/>
    </linearGradient>
    <style>.cls-1{fill:url(#linear-gradient);}.cls-2{fill:none;stroke:#1d1d1b;stroke-miterlimit:10;stroke-width:0.5px;}</style>
  </defs>
  <g id="Background" style="">
    <circle class="cls-1" cx="32" cy="32" r="32" style="stroke-width: 0px; stroke: url(#gradient-0); paint-order: fill; fill: url(#gradient-4-0);" transform="matrix(0, -1, 0.999988, 0, 0.000391, 64.000004)"/>
  </g>
  <g id="Layer_1-2" transform="matrix(0.106, 0, 0, 0.106, 16.386252, 2.0497)" style="">
    <path class="sta0" d="M 123.939 389.594 L 170.66 389.594 L 170.66 583.547 C 162.951 584.137 155.16 584.437 147.3 584.437 C 139.439 584.437 131.649 584.137 123.939 583.547 L 123.939 389.594 Z" style="fill: rgb(255, 255, 255);"/>
    <path class="sta0" d="M 276.816 213.477 L 276.816 365.564 C 276.816 437.072 218.808 495.08 147.299 495.186 C 147.299 495.186 147.299 495.186 147.299 495.186 C 75.791 495.186 17.783 437.178 17.783 365.669 C 17.783 365.669 17.783 365.669 17.783 365.669 L 17.783 213.477 L -8.057 213.477 L -8.057 368.833 C -8.057 454.58 61.447 524.19 147.299 524.19 C 233.046 524.19 302.656 454.686 302.656 368.833 L 302.656 213.477 L 276.816 213.477 Z" style="fill: rgb(255, 255, 255);"/>
    <path d="M 145.988 39.1 C 205.788 39.1 254.288 87.6 254.288 147.4 L 254.288 281.562 C 293.488 281.562 16.288 281.562 37.688 281.562 L 37.688 147.4 C 37.688 87.5 86.188 39.1 145.988 39.1 Z" style="fill: rgb(255, 255, 255);"/>
  </g>
  <g id="Layer_2_1_" style="" transform="matrix(0.106068, 0, 0, 0.106, 16.247546, 2.0497)">
    <g>
      <defs>
        <path id="SVGID_1_" d="M152.5,39.1L152.5,39.1c59.8,0,108.3,48.5,108.3,108.3v216.6c0,59.8-48.5,108.3-108.3,108.3h0 c-59.8,0-108.3-48.5-108.3-108.3V147.4C44.2,87.5,92.7,39.1,152.5,39.1z"/>
      </defs>
      <clipPath id="SVGID_2_">
        <path d="M152.5,39.1L152.5,39.1c59.8,0,108.3,48.5,108.3,108.3v216.6c0,59.8-48.5,108.3-108.3,108.3h0 c-59.8,0-108.3-48.5-108.3-108.3V147.4C44.2,87.5,92.7,39.1,152.5,39.1z" transform="matrix(1, 0, 0, 1, 0, 0)" style="overflow: visible;"/>
      </clipPath>
      <g class="sta2" style="clip-path: url(#SVGID_2_);" transform="matrix(1, 0, 0, 1, -5.200004, 0)">
        <rect x="-18.818" y="244.814" class="sta3" width="294.5" height="113.208" style="fill: rgb(255, 255, 255);"/>
        <rect x="5.25" y="332.7" class="sta0" width="294.5" height="154.8" style="fill: rgb(255, 255, 255);"/>
      </g>
    </g>
  </g>
</svg>