<?xml version="1.0" standalone="no"?>
<!DOCTYPE svg PUBLIC "-//W3C//DTD SVG 20010904//EN"
 "http://www.w3.org/TR/2001/REC-SVG-20010904/DTD/svg10.dtd">
<svg version="1.0" xmlns="http://www.w3.org/2000/svg"
 width="512.000000pt" height="512.000000pt" viewBox="0 0 512.000000 512.000000"
 preserveAspectRatio="xMidYMid meet">

<g transform="translate(0.000000,512.000000) scale(0.100000,-0.100000)"
fill="#000000" stroke="none">
<path d="M1012 4405 c-29 -8 -76 -30 -105 -48 -283 -181 -221 -605 102 -701
190 -56 399 51 471 241 31 82 25 213 -12 295 -76 165 -283 262 -456 213z"/>
<path d="M1974 4410 c-107 -22 -218 -110 -270 -215 -26 -55 -29 -69 -29 -165
0 -88 4 -113 23 -154 113 -247 425 -312 621 -130 187 173 160 473 -56 611 -86
55 -186 73 -289 53z"/>
<path d="M2952 4400 c-73 -11 -154 -53 -212 -110 -149 -150 -151 -394 -3 -544
84 -86 175 -120 300 -114 207 9 365 175 364 383 -1 114 -38 202 -117 279 -88
86 -207 123 -332 106z"/>
<path d="M3862 4384 c-114 -30 -219 -127 -262 -241 -31 -83 -26 -214 12 -296
32 -68 114 -153 180 -185 280 -137 599 94 557 403 -31 229 -261 380 -487 319z"/>
<path d="M4920 3973 c-39 -15 -72 -49 -106 -111 -105 -189 -263 -376 -357
-421 -67 -32 -94 -26 -275 58 l-154 71 -30 -24 -31 -24 -49 39 c-28 21 -58 39
-68 39 -10 0 -38 -11 -61 -25 -24 -14 -47 -25 -51 -25 -17 0 -7 48 13 61 20
14 18 16 -40 57 -35 24 -78 67 -103 102 l-42 59 -34 -21 -35 -21 -43 23 c-24
13 -45 22 -47 20 -2 -3 -18 -26 -35 -51 -34 -51 -101 -114 -138 -131 -32 -15
-30 -24 9 -44 17 -9 91 -50 164 -92 l131 -77 5 -415 c2 -281 7 -426 15 -450 9
-26 12 -259 12 -880 l0 -846 23 -44 c66 -132 248 -132 315 0 l22 44 0 748 c0
473 4 748 10 748 6 0 10 -278 12 -752 3 -838 -2 -781 72 -846 60 -53 148 -55
212 -7 74 57 68 -18 75 940 5 641 9 869 18 895 8 21 15 128 19 274 l7 239 60
13 c127 26 242 95 376 227 135 133 315 401 326 487 8 58 -26 124 -76 149 -39
20 -89 26 -121 14z"/>
<path d="M95 3956 c-64 -28 -106 -109 -90 -173 9 -38 104 -200 172 -296 72
-100 212 -242 294 -298 67 -45 166 -93 215 -103 l31 -7 6 -136 c4 -75 7 -171
7 -212 0 -42 7 -103 15 -134 13 -49 15 -183 15 -891 l0 -832 25 -50 c34 -68
82 -99 155 -99 73 0 133 37 161 98 18 40 19 77 19 790 0 653 2 747 15 747 13
0 15 -97 17 -764 3 -758 3 -765 24 -793 68 -92 191 -106 273 -30 52 49 51 23
51 924 0 707 3 847 15 893 12 44 15 135 15 466 l0 410 -53 22 c-29 12 -92 46
-141 76 -81 50 -91 53 -120 44 -17 -6 -48 -25 -69 -41 l-38 -30 -29 28 -30 28
-160 -73 c-183 -84 -223 -90 -290 -46 -68 45 -183 189 -281 355 -53 88 -68
106 -103 122 -48 22 -80 23 -121 5z"/>
<path d="M1476 3815 c-18 -33 -107 -122 -156 -156 -23 -15 -21 -16 86 -76 60
-33 135 -76 166 -94 l58 -34 1 -370 c0 -209 5 -396 11 -430 7 -37 13 -398 17
-936 l6 -875 28 -43 c32 -48 91 -81 147 -81 41 0 108 29 132 56 49 55 48 43
48 840 0 592 3 745 13 742 9 -4 13 -169 17 -764 4 -551 8 -764 17 -779 60
-104 193 -126 276 -47 60 56 57 17 58 814 0 694 7 942 27 1068 5 30 13 227 17
436 l7 381 -131 72 c-124 68 -133 72 -167 62 -21 -6 -49 -22 -65 -37 l-27 -26
-52 41 c-28 23 -58 41 -66 41 -8 0 -37 -11 -64 -25 -60 -31 -60 -31 -60 -2 0
15 9 29 26 37 l25 14 -28 14 c-50 27 -111 82 -148 137 l-37 53 -36 -21 -35
-21 -38 22 c-21 12 -42 22 -46 22 -5 0 -17 -16 -27 -35z"/>
<path d="M2436 3806 c-25 -46 -89 -112 -143 -147 l-45 -28 44 -22 c23 -12 100
-55 170 -96 l127 -74 3 -417 c3 -286 8 -428 16 -452 9 -26 12 -254 12 -877 0
-570 3 -851 11 -870 13 -34 55 -80 91 -99 32 -17 105 -18 145 -3 40 15 73 48
94 94 18 38 19 82 19 783 0 472 4 742 10 742 6 0 10 -275 12 -752 3 -695 4
-755 20 -785 48 -87 166 -120 252 -69 30 17 51 40 65 69 21 43 21 51 21 878 0
748 2 839 17 884 14 42 17 115 21 471 l4 422 -127 70 c-120 66 -129 69 -164
60 -20 -5 -47 -21 -62 -34 -33 -31 -39 -30 -78 10 -46 48 -75 51 -138 14 l-53
-29 0 30 c0 21 6 32 20 36 28 9 25 18 -15 39 -33 18 -122 107 -156 157 l-16
23 -34 -21 -34 -22 -40 25 c-22 13 -42 24 -45 24 -3 0 -14 -15 -24 -34z"/>
<path d="M670 3783 c-30 -13 -67 -36 -82 -50 -52 -50 -59 -125 -17 -185 24
-33 98 -63 135 -54 34 9 274 119 274 126 0 3 -26 16 -58 29 -40 17 -77 45
-124 93 -36 37 -68 68 -70 67 -2 0 -28 -12 -58 -26z"/>
<path d="M4237 3706 c-38 -43 -74 -72 -116 -92 -33 -16 -61 -32 -61 -35 0 -3
61 -34 135 -68 120 -55 140 -62 176 -56 103 18 152 138 88 219 -20 26 -58 49
-130 79 l-36 15 -56 -62z"/>
</g>
</svg>
