<svg id="Layer_1" data-name="Layer 1" xmlns="http://www.w3.org/2000/svg" xmlns:xlink="http://www.w3.org/1999/xlink" viewBox="0 0 512 512"><defs><style>.cls-1{stroke:#20a7ac;stroke-miterlimit:10;fill:url(#linear-gradient);}.cls-2{fill:#fff;}</style><linearGradient id="linear-gradient" x1="18.5" y1="256" x2="529.5" y2="256" gradientUnits="userSpaceOnUse"><stop offset="0" stop-color="#44b5b9"/><stop offset="0.37" stop-color="#3483a0"/><stop offset="0.97" stop-color="#182a73"/><stop offset="1" stop-color="#182a73"/></linearGradient></defs><circle class="cls-1" cx="256" cy="256" r="255.5"/><path class="cls-2" d="M101.2,71.5a49,49,0,0,0-10.5,4.8c-28.3,18.1-22.1,60.5,10.2,70.1,19,5.6,39.9-5.1,47.1-24.1,3.1-8.2,2.5-21.3-1.2-29.5C139.2,76.3,118.5,66.6,101.2,71.5Z" transform="translate(0.5 -1.5)"/><path class="cls-2" d="M197.4,71c-10.7,2.2-21.8,11-27,21.5-2.6,5.5-2.9,6.9-2.9,16.5,0,8.8.4,11.3,2.3,15.4,11.3,24.7,42.5,31.2,62.1,13A38.85,38.85,0,0,0,197.4,71Z" transform="translate(0.5 -1.5)"/><path class="cls-2" d="M295.2,72c-7.3,1.1-15.4,5.3-21.2,11a38.78,38.78,0,0,0-.3,54.4c8.4,8.6,17.5,12,30,11.4a37.73,37.73,0,0,0,36.4-38.3c-.1-11.4-3.8-20.2-11.7-27.9C319.6,74,307.7,70.3,295.2,72Z" transform="translate(0.5 -1.5)"/><path class="cls-2" d="M386.2,73.6c-11.4,3-21.9,12.7-26.2,24.1-3.1,8.3-2.6,21.4,1.2,29.6,3.2,6.8,11.4,15.3,18,18.5,28,13.7,59.9-9.4,55.7-40.3C431.8,82.6,408.8,67.5,386.2,73.6Z" transform="translate(0.5 -1.5)"/><path class="cls-2" d="M489.67,131c-3.9,1.5-8.6-6.87-12-.67-10.5,18.9-22.57,33.07-32,37.57-6.7,3.2-9.4,2.6-27.5-5.8L402.8,155l-3,2.4-3.1,2.4-4.9-3.9c-2.8-2.1-5.8-3.9-6.8-3.9s-3.8,1.1-6.1,2.5a25.73,25.73,0,0,1-5.1,2.5c-1.7,0-.7-4.8,1.3-6.1s1.8-1.6-4-5.7A47.44,47.44,0,0,1,360.8,135l-4.2-5.9-3.4,2.1-3.5,2.1-4.3-2.3c-2.4-1.3-4.5-2.2-4.7-2s-1.8,2.6-3.5,5.1c-3.4,5.1-10.1,11.4-13.8,13.1-3.2,1.5-3,2.4.9,4.4,1.7.9,9.1,5,16.4,9.2l13.1,7.7.5,41.5c.2,28.1.7,42.6,1.5,45,.9,2.6,1.2,25.9,1.2,88v84.6l2.3,4.4a17.48,17.48,0,0,0,31.5,0l2.2-4.4V352.8c0-47.3.4-74.8,1-74.8s1,27.8,1.2,75.2c.3,83.8-.2,78.1,7.2,84.6a16.73,16.73,0,0,0,21.2.7c7.4-5.7,6.8,1.8,7.5-94,.5-64.1.9-86.9,1.8-89.5.8-2.1,1.5-12.8,1.9-27.4l.7-23.9,6-1.3c12.7-2.6,24.2-9.5,37.6-22.7s14.13-6.77,15.23-15.37c.8-5.8,7.67-16.83,2.67-19.33C493.1,143,492.87,129.8,489.67,131Z" transform="translate(0.5 -1.5)"/><path class="cls-2" d="M16.33,163.67c7.2,10,22.57,23.83,30.77,29.43,6.7,4.5,16.6,9.3,21.5,10.3l3.1.7.6,13.6c.4,7.5.7,17.1.7,21.2a66,66,0,0,0,1.5,13.4c1.3,4.9,1.5,18.3,1.5,89.1v83.2l2.5,5c3.4,6.8,8.2,9.9,15.5,9.9s13.3-3.7,16.1-9.8c1.8-4,1.9-7.7,1.9-79,0-65.3.2-74.7,1.5-74.7s1.5,9.7,1.7,76.4c.3,75.8.3,76.5,2.4,79.3,6.8,9.2,19.1,10.6,27.3,3,5.2-4.9,5.1-2.3,5.1-92.4,0-70.7.3-84.7,1.5-89.3,1.2-4.4,1.5-13.5,1.5-46.6v-41l-5.3-2.2a132.67,132.67,0,0,1-14.1-7.6c-8.1-5-9.1-5.3-12-4.4a32.68,32.68,0,0,0-6.9,4.1l-3.8,3-2.9-2.8-3-2.8L89,160c-18.3,8.4-22.3,9-29,4.6s-18.3-18.9-28.1-35.5" transform="translate(0.5 -1.5)"/><path class="cls-2" d="M147.6,130.5c-1.8,3.3-10.7,12.2-15.6,15.6-2.3,1.5-2.1,1.6,8.6,7.6,6,3.3,13.5,7.6,16.6,9.4l5.8,3.4.1,37c0,20.9.5,39.6,1.1,43,.7,3.7,1.3,39.8,1.7,93.6l.6,87.5,2.8,4.3A18.52,18.52,0,0,0,184,440c4.1,0,10.8-2.9,13.2-5.6,4.9-5.5,4.8-4.3,4.8-84,0-59.2.3-74.5,1.3-74.2s1.3,16.9,1.7,76.4c.4,55.1.8,76.4,1.7,77.9,6,10.4,19.3,12.6,27.6,4.7,6-5.6,5.7-1.7,5.8-81.4,0-69.4.7-94.2,2.7-106.8.5-3,1.3-22.7,1.7-43.6l.7-38.1-13.1-7.2c-12.4-6.8-13.3-7.2-16.7-6.2a18.31,18.31,0,0,0-6.5,3.7l-2.7,2.6-5.2-4.1c-2.8-2.3-5.8-4.1-6.6-4.1s-3.7,1.1-6.4,2.5c-6,3.1-6,3.1-6,.2a4.12,4.12,0,0,1,2.6-3.7l2.5-1.4-2.8-1.4a46.64,46.64,0,0,1-14.8-13.7l-3.7-5.3-3.6,2.1-3.5,2.1-3.8-2.2a22.64,22.64,0,0,0-4.6-2.2C149.8,127,148.6,128.6,147.6,130.5Z" transform="translate(0.5 -1.5)"/><path class="cls-2" d="M243.6,131.4c-2.5,4.6-8.9,11.2-14.3,14.7l-4.5,2.8,4.4,2.2c2.3,1.2,10,5.5,17,9.6l12.7,7.4.3,41.7c.3,28.6.8,42.8,1.6,45.2.9,2.6,1.2,25.4,1.2,87.7,0,57,.3,85.1,1.1,87,1.3,3.4,5.5,8,9.1,9.9,3.2,1.7,10.5,1.8,14.5.3s7.3-4.8,9.4-9.4c1.8-3.8,1.9-8.2,1.9-78.3,0-47.2.4-74.2,1-74.2s1,27.5,1.2,75.2c.3,69.5.4,75.5,2,78.5a18.58,18.58,0,0,0,25.2,6.9,15.44,15.44,0,0,0,6.5-6.9c2.1-4.3,2.1-5.1,2.1-87.8,0-74.8.2-83.9,1.7-88.4,1.4-4.2,1.7-11.5,2.1-47.1l.4-42.2-12.7-7c-12-6.6-12.9-6.9-16.4-6a17.87,17.87,0,0,0-6.2,3.4c-3.3,3.1-3.9,3-7.8-1-4.6-4.8-7.5-5.1-13.8-1.4l-5.3,2.9v-3c0-2.1.6-3.2,2-3.6,2.8-.9,2.5-1.8-1.5-3.9-3.3-1.8-12.2-10.7-15.6-15.7l-1.6-2.3-3.4,2.1-3.4,2.2-4-2.5A30.45,30.45,0,0,0,246,128C245.7,128,244.6,129.5,243.6,131.4Z" transform="translate(0.5 -1.5)"/><path class="cls-2" d="M67,133.7a35.33,35.33,0,0,0-8.2,5,13.94,13.94,0,0,0-1.7,18.5c2.4,3.3,9.8,6.3,13.5,5.4C74,161.7,98,150.7,98,150c0-.3-2.6-1.6-5.8-2.9-4-1.7-7.7-4.5-12.4-9.3-3.6-3.7-6.8-6.8-7-6.7S70,132.3,67,133.7Z" transform="translate(0.5 -1.5)"/><path class="cls-2" d="M423.7,141.4a35.9,35.9,0,0,1-11.6,9.2c-3.3,1.6-6.1,3.2-6.1,3.5s6.1,3.4,13.5,6.8c12,5.5,14,6.2,17.6,5.6,10.3-1.8,15.2-13.8,8.8-21.9-2-2.6-5.8-4.9-13-7.9l-3.6-1.5Z" transform="translate(0.5 -1.5)"/></svg>