<?xml version="1.0" encoding="utf-8"?>
<svg viewBox="0 0 448 512" fill="white" xmlns="http://www.w3.org/2000/svg">
  <path d="M 384 32 C 419.3 32 448 60.7 448 96 L 448 416 C 448 451.3 419.3 480 384 480 L 64 480 C 28.7 480 0 451.3 0 416 L 0 96 C 0 60.7 28.7 32 64 32 Z M 356.562 192.527 C 355.11 188.987 352.752 185.891 349.72 183.552 L 267.495 103.434 C 265.749 101.259 263.106 99.995 260.315 100 L 116.726 100 C 107.483 99.987 99.987 107.484 100 116.726 L 100 402.865 C 99.987 412.11 107.483 419.606 116.726 419.591 L 339.862 419.591 C 349.076 419.563 356.526 412.078 356.51 402.865 L 356.51 192.527 Z M 269.602 132.698 L 325.476 185.035 L 269.602 185.035 Z M 118.677 400.965 L 118.677 118.599 L 250.872 118.599 L 250.872 194.322 C 250.872 199.509 255.079 203.712 260.263 203.712 L 337.885 203.712 L 337.885 400.965 Z M 153.221 237.659 C 150.565 240.699 150.565 245.234 153.221 248.272 C 154.477 249.703 156.288 250.528 158.189 250.535 L 267.859 250.535 C 269.758 250.509 271.555 249.677 272.801 248.245 C 274.071 246.807 274.781 244.963 274.804 243.043 C 274.807 241.126 274.105 239.274 272.828 237.84 C 271.574 236.41 269.764 235.586 267.859 235.578 L 158.112 235.578 C 156.244 235.629 154.48 236.459 153.247 237.866 Z M 153.221 343.92 C 150.565 346.961 150.565 351.496 153.221 354.534 C 154.488 355.946 156.294 356.758 158.189 356.771 L 298.32 356.771 C 300.226 356.765 302.042 355.954 303.315 354.534 C 305.97 351.496 305.97 346.961 303.315 343.92 C 302.066 342.479 300.255 341.644 298.345 341.631 L 158.189 341.631 C 156.291 341.646 154.488 342.479 153.247 343.92 Z M 158.164 288.644 C 156.268 288.672 154.47 289.505 153.221 290.932 C 150.565 293.974 150.565 298.507 153.221 301.545 C 154.477 302.976 156.288 303.801 158.189 303.809 L 298.32 303.809 C 300.232 303.803 302.05 302.982 303.315 301.545 C 305.97 298.507 305.97 293.974 303.315 290.932 C 302.057 289.501 300.253 288.669 298.345 288.644 Z M 153.221 184.671 C 150.565 187.712 150.565 192.245 153.221 195.284 C 154.477 196.714 156.288 197.539 158.189 197.547 L 208.94 197.547 C 210.839 197.518 212.634 196.686 213.882 195.258 C 215.136 193.814 215.828 191.968 215.833 190.056 C 215.837 188.139 215.134 186.286 213.856 184.853 C 212.6 183.425 210.792 182.6 208.888 182.589 L 158.189 182.589 C 156.294 182.619 154.496 183.451 153.247 184.879 Z" style=""/>
</svg>