<?xml version="1.0" encoding="utf-8"?>
<svg viewBox="0 0 64 64" xmlns="http://www.w3.org/2000/svg">
  <defs>
    <linearGradient gradientUnits="userSpaceOnUse" x1="32" y1="0" x2="32" y2="64" id="gradient-0" gradientTransform="matrix(0.005571, 0.999983, -1.227352, 0.006838, 78.098597, -1.640512)">
      <stop offset="0" style="stop-color: rgb(116, 51, 51);"/>
      <stop offset="1" style="stop-color: rgb(255, 51, 51);"/>
    </linearGradient>
    <linearGradient gradientUnits="userSpaceOnUse" x1="32" y1="0" x2="32" y2="64" id="gradient-1">
      <stop offset="0" style="stop-color: #bada55"/>
      <stop offset="1" style="stop-color: #758d29"/>
    </linearGradient>
    <style>.cls-1{fill:url(#linear-gradient);}.cls-2{fill:#fff;}</style>
  </defs>
  <circle class="cls-1" cx="32" cy="32" r="32" style="fill: url(#gradient-0); stroke: url(#gradient-1); stroke-width: 0px;"/>
  <g id="Legs" style="" transform="matrix(1.00299, 0, 0, 0.992053, 0.147613, 0.93473)">
    <path d="M22.58,57.67a3.91,3.91,0,0,0,2.66-1c.67-.77.92-1.83.92-5V40.36H28.6V52.54c0,2.6-.42,4.3-1.61,5.52a6.2,6.2,0,0,1-4.16,1.52Z" transform="translate(0 0)" style="fill: rgb(255, 255, 255);"/>
    <path d="M33.7,58.1a4,4,0,0,0,2.67-1c.66-.78.91-1.83.91-5V40.78h2.44V53c0,2.61-.41,4.3-1.61,5.52A6.14,6.14,0,0,1,34,60Z" transform="translate(0 0)" style="fill: rgb(255, 255, 255);"/>
  </g>
  <g id="Horn" style="" transform="matrix(1.467548, 0, 0, 0.992053, -7.145964, 3.713727)">
    <path d="M22.4,22.08l-.21.07a22.15,22.15,0,0,0-5.89,2.72,11.7,11.7,0,0,0-3.66,3.77,2.3,2.3,0,0,1-2.4.71C9.46,29.19,9,28.74,9,28.26H9l0-14.06c0-.64.85-1.16,1.89-1.16a2,2,0,0,1,1.79.78,13.3,13.3,0,0,0,4.1,3.67,26.83,26.83,0,0,0,4,1.94" transform="translate(0 0)" style="fill: rgb(255, 255, 255); stroke: rgb(0, 0, 0); stroke-width: 0px;"/>
  </g>
  <path id="Right_Eye" data-name="Right Eye" class="cls-2" d="M 21.679 17.562 C 21.679 15.331 22.946 13.501 24.506 13.488 C 26.072 13.473 27.39 15.262 27.39 17.438 C 27.39 19.612 26.124 21.592 24.563 21.592 C 22.999 21.592 21.679 19.793 21.679 17.562 Z M 24.069 45.111 L 26.656 48.087 C 26.945 48.406 27.357 48.59 27.791 48.594 C 28.224 48.591 28.635 48.407 28.922 48.087 L 31.18 45.528 C 32.259 44.297 34.192 44.297 35.272 45.528 L 37.529 48.087 C 37.818 48.406 38.229 48.59 38.662 48.594 C 39.096 48.591 39.509 48.407 39.797 48.087 L 42.383 45.111 C 43.346 44.03 44.998 43.885 46.135 44.783 L 47.078 45.539 C 47.348 45.744 47.678 45.86 48.02 45.865 C 48.856 45.86 49.53 45.192 49.535 44.367 L 49.535 21.67 C 49.535 15.907 46.427 10.581 41.381 7.701 C 30.507 1.492 16.917 9.252 16.917 21.67 L 16.917 44.367 C 16.924 45.192 17.599 45.86 18.432 45.865 C 18.774 45.862 19.106 45.747 19.375 45.539 L 20.378 44.783 C 21.504 43.913 23.118 44.057 24.069 45.111 Z" style=""/>
</svg>