<?xml version="1.0" encoding="utf-8"?>
<svg viewBox="0 0 256 256" xmlns="http://www.w3.org/2000/svg">
  <g style="stroke: none; stroke-width: 0; stroke-dasharray: none; stroke-linecap: butt; stroke-linejoin: miter; stroke-miterlimit: 10; fill: none; fill-rule: nonzero; opacity: 1;" transform="matrix(2.81, 0, 0, 2.81, 1.406594, 1.406594)">
    <path d="M 90 45 C 90 69.853 69.853 90 45 90 C 20.147 90 0 69.853 0 45 C 0 20.147 20.147 0 45 0 C 69.853 0 90 20.147 90 45 Z M 51.298 56.864 C 49.754 65.313 46.801 69.806 45.039 69.806 C 43.277 69.806 40.324 65.314 38.78 56.864 C 40.842 57.03 42.942 57.114 45.039 57.114 C 47.136 57.114 49.236 57.03 51.298 56.864 Z M 21.323 37.053 C 23.795 29.546 29.74 23.601 37.247 21.129 C 35.574 24.392 34.36 28.692 33.622 33.429 C 28.885 34.167 24.586 35.38 21.323 37.053 Z M 52.83 21.129 C 60.338 23.601 66.283 29.547 68.755 37.054 C 65.492 35.381 61.192 34.167 56.455 33.429 C 55.717 28.692 54.504 24.392 52.83 21.129 Z M 68.755 52.637 C 66.283 60.144 60.338 66.089 52.831 68.561 C 54.504 65.297 55.718 60.998 56.456 56.261 C 61.193 55.523 65.492 54.31 68.755 52.637 Z M 37.246 68.561 C 29.739 66.088 23.795 60.144 21.323 52.637 C 24.586 54.31 28.885 55.523 33.622 56.261 C 34.36 60.998 35.573 65.297 37.246 68.561 Z M 38.78 32.826 C 40.325 24.377 43.277 19.884 45.039 19.884 C 46.801 19.884 49.754 24.377 51.298 32.826 C 49.236 32.66 47.136 32.576 45.039 32.576 C 42.942 32.576 40.842 32.66 38.78 32.826 Z M 51.992 37.893 C 52.194 40.032 52.309 42.351 52.309 44.845 C 52.309 47.339 52.194 49.658 51.992 51.797 C 49.853 51.999 47.533 52.114 45.039 52.114 C 42.545 52.114 40.225 51.999 38.086 51.797 C 37.884 49.658 37.769 47.339 37.769 44.845 C 37.769 42.351 37.884 40.032 38.086 37.893 C 40.225 37.691 42.545 37.576 45.039 37.576 C 47.533 37.576 49.853 37.691 51.992 37.893 Z M 33.019 38.587 C 32.853 40.649 32.769 42.749 32.769 44.846 C 32.769 46.942 32.853 49.042 33.019 51.103 C 24.57 49.558 20.078 46.607 20.078 44.845 C 20.078 43.083 24.57 40.131 33.019 38.587 Z M 57.059 51.103 C 57.225 49.042 57.309 46.942 57.309 44.846 C 57.309 42.749 57.225 40.649 57.059 38.587 C 65.508 40.131 70 43.083 70 44.845 C 70 46.607 65.508 49.559 57.059 51.103 Z M 75 44.845 C 75 28.325 61.56 14.885 45.039 14.885 C 28.519 14.885 15.079 28.324 15.078 44.844 L 15.078 44.846 C 15.078 61.367 28.518 74.807 45.039 74.807 C 61.56 74.807 75 61.366 75 44.845 Z" style="stroke: none; stroke-width: 1; stroke-dasharray: none; stroke-linecap: butt; stroke-linejoin: miter; stroke-miterlimit: 10; fill: rgb(32,196,203); fill-rule: nonzero; opacity: 1;"/>
  </g>
</svg>