<?xml version="1.0" standalone="no"?>
<!DOCTYPE svg PUBLIC "-//W3C//DTD SVG 20010904//EN"
 "http://www.w3.org/TR/2001/REC-SVG-20010904/DTD/svg10.dtd">
<svg version="1.0" xmlns="http://www.w3.org/2000/svg"
 width="700.000000pt" height="700.000000pt" viewBox="0 0 700.000000 700.000000"
 preserveAspectRatio="xMidYMid meet">
<metadata>
Created by potrace 1.14, written by Peter Selinger 2001-2017
</metadata>
<g transform="translate(0.000000,700.000000) scale(0.100000,-0.100000)"
fill="#000000" stroke="none">
<path d="M1688 6765 c-2 -2 -27 -6 -57 -10 -30 -4 -63 -9 -75 -11 -12 -2 -48
-9 -81 -15 -97 -17 -292 -86 -410 -144 -135 -66 -264 -150 -370 -242 -98 -85
-133 -133 -138 -195 -11 -112 115 -451 240 -647 256 -400 647 -682 1103 -795
58 -14 123 -28 145 -31 22 -3 63 -8 90 -12 103 -14 387 -7 488 13 12 2 48 9
79 14 75 14 261 73 340 109 l64 28 -2 -1081 c-4 -1932 -6 -2260 -15 -2331 -17
-137 -19 -154 -39 -231 -48 -191 -123 -315 -240 -394 -129 -87 -229 -128 -410
-167 -14 -3 -88 -6 -165 -6 -334 1 -590 78 -859 259 -44 29 -84 51 -88 48 -4
-3 -8 -146 -8 -319 l0 -313 33 -21 c170 -105 424 -196 685 -246 101 -19 439
-27 552 -13 213 26 436 112 625 239 72 49 220 185 270 249 136 172 249 484
281 775 3 27 8 66 12 85 3 19 7 798 9 1730 2 932 5 1695 7 1697 2 2 37 -19 79
-47 147 -97 417 -213 547 -235 19 -3 51 -10 70 -15 91 -24 415 -34 540 -17
163 22 258 43 380 84 478 158 858 492 1073 944 116 243 111 266 -118 493 -208
207 -440 351 -707 440 -59 19 -122 38 -140 41 -18 3 -41 8 -50 11 -20 6 -40
10 -93 18 -330 48 -653 11 -950 -110 -302 -123 -516 -288 -770 -593 -55 -66
-102 -120 -105 -120 -3 -1 -21 29 -40 67 -157 310 -357 539 -627 720 -84 57
-225 133 -298 161 -33 13 -69 27 -80 32 -68 29 -244 73 -380 94 -42 7 -391 15
-397 10z"/>
</g>
</svg>
